<?xml version="1.0" encoding="iso-8859-1"?>
<!-- Generator: Adobe Illustrator 19.0.0, SVG Export Plug-In . SVG Version: 6.00 Build 0)  -->
<svg version="1.1" id="Layer_1" xmlns="http://www.w3.org/2000/svg" xmlns:xlink="http://www.w3.org/1999/xlink" x="0px" y="0px"
	 viewBox="0 0 501.333 501.333" style="enable-background:new 0 0 501.333 501.333;" xml:space="preserve">
<g>
	<g>
		<g>
			<path d="M497.173,44.824c-2.667-2.027-6.08-2.667-9.28-1.813l-114.56,31.253l-120-31.253c-1.813-0.533-3.84-0.427-5.653,0.107
				L138.453,74.264L13.227,43.011c-5.76-1.387-11.52,2.027-12.907,7.787C0.107,51.651,0,52.504,0,53.357v362.667
				c0,4.907,3.307,9.173,8.107,10.347l128,32c1.707,0.427,3.627,0.427,5.333,0l109.333-29.653l120,29.653
				c1.707,0.427,3.627,0.427,5.333-0.107l117.333-32c4.693-1.28,7.893-5.44,7.893-10.347V53.357
				C501.333,50.051,499.84,46.851,497.173,44.824z M480,407.917l-106.773,29.12l-120-29.653c-0.853-0.213-1.707-0.32-2.56-0.32
				c-0.96,0-1.92,0.107-2.773,0.427L138.56,437.144l-117.227-29.44V67.011l114.773,28.693c1.813,0.427,3.733,0.427,5.547-0.107
				L250.88,64.451l119.893,31.253c1.813,0.427,3.733,0.427,5.44,0L480,67.331V407.917z"/>
			<path d="M355.2,258.904c-4.16,4.16-4.373,10.88-0.213,15.04c0.107,0.107,0.213,0.213,0.213,0.213l29.76,29.76l-29.76,29.76
				c-4.267,4.053-4.373,10.88-0.213,15.04c4.053,4.267,10.88,4.373,15.04,0.213c0.107-0.107,0.213-0.213,0.213-0.213l29.76-29.76
				l29.76,29.76c4.267,4.053,10.987,3.947,15.04-0.213c3.947-4.16,3.947-10.667,0-14.827l-29.653-29.653l29.76-29.76
				c4.267-4.053,4.373-10.88,0.213-15.04c-4.053-4.267-10.88-4.373-15.04-0.213c-0.107,0.107-0.213,0.213-0.213,0.213L400,288.984
				l-29.76-29.867C366.187,254.851,359.36,254.744,355.2,258.904z"/>
			<path d="M320,288.024c-28.8,0-58.667-33.813-73.387-67.2c-40.533-92.587-113.707-69.867-124.16-66.027
				c-9.6,2.133-69.12,19.52-69.12,123.307c0,5.867,4.8,10.667,10.667,10.667c5.867,0,10.667-4.8,10.667-10.667
				c0-91.627,50.453-102.187,52.48-102.507c0.853-0.107,1.6-0.427,2.453-0.747c2.56-1.067,62.72-25.173,97.493,54.507
				c16.853,38.507,53.12,80,92.907,80c5.867,0,10.667-4.8,10.667-10.667C330.667,292.824,325.867,288.024,320,288.024z"/>
		</g>
	</g>
</g>
<g>
</g>
<g>
</g>
<g>
</g>
<g>
</g>
<g>
</g>
<g>
</g>
<g>
</g>
<g>
</g>
<g>
</g>
<g>
</g>
<g>
</g>
<g>
</g>
<g>
</g>
<g>
</g>
<g>
</g>
</svg>
