<svg width="35" height="44" viewBox="0 0 35 44" fill="none" xmlns="http://www.w3.org/2000/svg">
<path d="M19.8 16.856C19.8 16.696 18.616 17.176 18.104 17.208C15.608 17.944 13.016 17.656 12.44 15.256C12.28 14.168 13.208 14.072 12.76 13.112C12.44 12.664 11.672 12.472 11.064 12.792C10.744 13.4 10.424 14.008 10.296 14.808C10.008 14.808 10.104 15.064 9.976 15.256C9.592 15.864 9.016 16.184 8.76 16.792C8.568 17.24 7.864 17.464 7.832 17.88C7.832 18.2 7.32 18.392 7.224 18.488C7.16 18.552 7.16 18.712 7.064 18.776C6.328 19.224 5.784 19.864 5.08 20.312C4.6 20.472 4.248 20.728 3.832 20.92C3.16 20.888 3.288 21.592 2.456 21.4C2.008 20.376 3 19.608 2.936 18.488C3.512 17.976 3.704 16.824 4.152 16.472C4.184 16.44 4.12 16.216 4.152 16.184C4.376 15.8 4.696 15.48 4.92 15.096C5.144 14.712 5.272 14.232 5.688 14.04C5.816 13.752 6.072 13.56 6.136 13.272C6.328 12.696 5.752 12.824 5.848 12.344C4.696 12.216 4.792 13.336 3.832 13.4C3.576 14.168 3.192 14.808 2.616 15.256C2.744 15.896 2.328 15.992 2.296 16.472C1.496 17.144 1.304 18.424 0.76 19.416C0.888 20.248 0.44 20.76 0.76 21.4C0.248 22.008 0.92 22.776 1.08 23.256C2.072 23.64 2.68 23.064 3.704 23.096C3.864 22.648 4.44 22.648 4.76 22.456C5.144 22.264 5.496 22.072 5.848 21.848C6.552 21.432 7.064 20.76 7.832 20.472C7.832 19.992 8.376 19.832 8.6 19.544C8.888 19.256 9.016 18.872 9.368 18.616C9.976 18.104 10.232 17.24 11.064 16.952C11.256 17.208 11.416 17.336 11.672 17.56C11.832 17.688 12.056 18.008 12.28 18.168C12.472 18.296 12.76 18.232 12.92 18.328C12.888 18.328 13.048 18.456 13.048 18.488C13.432 18.808 14.072 18.84 14.456 19.096C15.768 19.16 16.312 19.16 17.496 19.032C18.424 19.064 20.28 18.168 20.216 18.232C20.152 18.296 19.8 17.016 19.8 16.856ZM30.2185 0.695999C29.8665 0.695999 29.3865 1.016 29.3865 1.592C29.3865 2.104 29.8345 2.84 30.4745 2.84C30.8585 2.552 31.2105 2.232 31.2425 1.592C31.0505 0.983999 30.6345 0.695999 30.2185 0.695999ZM26.4745 8.664C25.4825 10.168 23.1785 11 22.0265 11.992C20.4905 12.44 21.2265 12.664 19.7865 13.144C19.4345 13.304 18.9865 13.528 18.5385 13.528C18.0585 13.432 17.8345 13.368 17.4185 13.368C16.6825 13.368 16.4265 13.72 16.4265 14.296C16.4265 14.936 16.7785 15.352 17.6745 15.352C18.4425 15.352 19.3705 15.096 20.0745 14.84C22.0905 14.36 21.7065 13.816 23.4025 12.984C23.9145 12.888 24.3625 12.12 24.8745 12.12C24.9385 12.12 25.0025 12.152 25.0985 12.184C24.8425 12.984 24.7785 13.944 24.3305 14.488C24.0425 15.288 23.5625 15.896 23.5625 16.952C23.1145 17.24 22.9545 17.816 22.6345 18.2C21.4185 18.36 21.1305 19.48 20.0105 19.736C19.3705 20.472 18.5385 21.016 17.5465 21.4C16.8745 22.264 15.8505 22.872 15.1145 23.704C14.5065 23.704 14.6345 24.344 14.0585 24.344C13.9945 24.344 12.9385 25.56 12.8105 25.72C12.0105 26.616 10.9225 27.576 10.1865 28.312C9.3225 29.176 7.8825 31.16 6.9545 32.92C6.1545 33.912 5.5465 36.024 5.1305 36.6V36.952C5.1305 37.112 4.9065 37.336 4.8105 37.528C4.6825 37.912 4.6185 38.296 4.3625 38.616C4.3625 39.512 4.1705 40.216 4.1705 41.08C4.1705 42.136 4.8105 42.872 5.2585 43.672H6.9545C7.3705 43.256 8.1385 43.224 8.3305 42.616C8.7465 42.584 8.9385 42.392 8.9705 42.008C9.4505 41.976 10.2185 41.176 10.2185 41.176C10.2185 41.112 10.1865 41.016 10.1865 40.952C10.1865 40.632 10.7945 40.664 10.7945 40.472C10.7945 40.28 10.8905 40.376 10.9545 40.312C11.4985 39.448 12.1705 38.84 12.6505 38.296C12.9065 38.008 13.0665 37.688 13.4185 37.528C13.8025 36.6 14.2505 35.736 15.1145 35.224C15.2425 34.712 15.4345 34.232 15.8825 34.008C16.0425 33.272 16.5225 33.048 16.5225 32.76C16.5225 32.728 16.4905 32.696 16.4905 32.632C17.1625 31.928 17.5465 30.936 18.3145 30.328C18.4425 29.528 19.0505 29.208 19.0825 28.312C19.6905 28.248 20.1385 27.16 20.3305 26.488C20.7145 25.784 21.1625 25.176 21.2585 24.184C21.2905 24.216 21.3545 24.216 21.3865 24.216C21.8025 24.216 22.0905 22.68 22.6345 22.168C22.9225 21.72 23.0185 21.016 23.5625 20.792V19.864C23.9785 19.832 24.0105 19.416 24.1705 19.096C24.6185 19.096 24.3625 18.392 24.6185 18.2H24.7785C25.5465 18.2 25.7065 17.56 26.1545 17.272C27.0505 17.272 27.2105 16.6 28.0105 16.504C28.2665 15.896 29.0025 15.768 29.3865 15.256C30.5065 15.128 30.9225 13.976 32.2985 13.88V13.912C32.2985 13.944 32.2985 13.976 32.3305 13.976C32.5545 13.976 33.3865 13.112 33.5465 13.016V13.048V13.016C33.5785 13.016 33.5785 13.016 33.5785 13.016C33.5785 13.016 33.5785 13.016 33.5465 13.016L34.1545 11.928V11.864C34.1545 11.672 33.9305 11.416 33.7385 11.416C33.7385 11.416 33.1305 11.608 32.9065 11.736C32.5225 11.96 32.0745 12.248 31.5305 12.344C31.3065 13.08 29.0665 13.592 28.2985 14.488C27.6905 14.552 27.4985 15.032 26.9225 15.128C26.8905 15.288 25.8985 15.896 25.8345 15.896C25.7705 15.896 25.7385 15.864 25.7065 15.736C25.7065 15.032 26.1225 14.744 26.3145 14.2C26.5385 13.016 27.1465 12.248 27.2425 10.968C27.4665 10.648 27.7225 10.328 27.7225 9.784C27.7225 9.688 27.7225 9.56 27.6905 9.432C27.3705 9.016 27.2745 8.664 26.4745 8.664ZM21.8665 20.184C21.8665 20.6 21.3545 20.696 21.2585 20.952C21.0985 21.304 21.0985 22.072 20.6185 22.328V22.456C20.6185 22.744 20.2985 22.68 20.2985 22.968C20.2985 23 20.2985 23.064 20.3305 23.096C20.1385 23.48 20.1705 23.704 19.8505 24.024C19.5945 24.28 18.7945 27.096 18.0265 27.256C18.0265 27.32 18.0585 27.352 18.0585 27.416C18.0585 27.736 17.0025 29.048 16.4905 29.848C16.2665 30.168 16.2025 30.52 16.0105 30.776C15.7225 31.256 15.6265 31.384 14.9545 32.472C14.0905 33.88 13.0985 35.256 12.0425 36.472C10.8585 38.168 9.4185 39.576 8.0425 41.08C7.3705 41.08 7.0185 41.944 6.4745 41.944C6.3785 41.944 6.2825 41.912 6.1865 41.848C6.1225 41.848 6.0905 41.88 6.0585 41.88C6.0905 41.88 5.5465 40.952 5.5465 40.6C5.5465 39.992 5.7385 38.264 6.0265 38.008C6.1545 37.944 6.1545 37.848 6.1545 37.752V37.496C6.1545 37.08 6.5065 37.048 6.6665 36.472C6.6985 36.248 6.6345 35.992 6.7945 35.704C6.8905 35.544 7.0505 35.576 7.1145 35.384C7.2425 35.096 7.0825 34.68 7.4345 34.456C7.4025 34.392 7.4025 34.36 7.4025 34.328C7.4025 34.104 7.7545 34.232 7.7545 34.008C7.7545 33.976 7.7545 33.912 7.7225 33.848C7.7865 33.656 8.0105 33.624 8.0425 33.4C8.7145 32.056 8.6505 31.896 10.5065 29.72C10.8265 29.592 10.8265 29.208 11.1145 28.952C11.2105 28.856 11.4345 28.888 11.4345 28.728C11.4345 28.632 11.4025 28.536 11.4025 28.504V28.472C12.2345 27.8 13.1945 26.616 14.1865 25.88C14.2185 25.816 14.2505 25.56 14.3785 25.56C14.4105 25.56 14.5065 25.592 14.5705 25.592C14.6345 25.592 15.4985 24.792 15.8825 24.472C16.6505 23.832 17.3865 23.128 18.3145 22.648C18.6345 22.488 18.7305 21.88 19.4025 21.88H19.5625C19.9785 21.112 20.9705 20.92 21.3865 20.184H21.8665Z" fill="#3D3D3D"/>
</svg>
