<svg width="52" height="60" viewBox="0 0 52 60" fill="#FF6161" xmlns="http://www.w3.org/2000/svg">
<path d="M23.288 5.256C22.968 5.384 22.84 5.736 22.36 5.736C22.072 6.408 21.56 6.856 21.304 7.56C20.408 7.688 20.536 8.84 19.608 8.936C19.48 9.48 19.128 9.8 18.84 10.184C18.456 10.44 18.328 10.984 18.072 11.4C17.016 12.296 16.024 13.224 15 14.184C14.616 14.76 13.912 15.016 13.624 15.72C13.208 15.816 13.048 16.136 12.696 16.328C12.6 16.712 12.152 16.808 12.088 17.256C11.48 17.224 11.48 17.768 11 17.864C10.296 18.952 9.304 19.72 8.408 20.616C7.512 21.512 6.648 22.472 5.784 23.4C4.6 23.688 4.216 24.776 3.16 25.224C3.128 25.448 2.936 25.48 2.872 25.704C2.616 25.64 2.488 25.928 2.392 25.704C2.744 24.776 3 23.816 3.32 22.92C3.416 22.696 3.384 22.344 3.48 22.152C3.576 21.928 3.832 21.928 3.928 21.704C4.344 20.808 4.504 19.208 5.016 18.792C5.048 18.76 4.984 18.536 5.016 18.472C5.176 18.088 5.368 17.864 5.496 17.544C5.848 16.648 6.008 15.624 6.552 14.792C6.52 13.928 7.096 13.384 6.712 12.648C7.384 12.296 7.032 10.92 7.32 10.184C6.872 9.864 7 8.968 6.232 8.936C5.496 9 5.592 9.928 5.016 10.184C4.76 11.016 4.76 12.04 4.568 12.936C4.568 13.384 5.432 13.32 5.016 13.704C5.24 14.248 4.76 14.344 4.696 14.472C4.536 15.016 4.504 15.4 4.408 15.72C4.248 16.136 4.024 16.52 3.8 16.776C3.992 17.384 3.544 17.672 3.48 17.864C3.384 18.216 3.448 18.632 3.16 18.92C3.064 19.272 3.096 19.752 2.712 19.848C2.744 20.392 2.616 20.776 2.264 20.936V21.864C1.592 22.728 1.496 24.136 0.856 25.064C1.016 26.472 0.216 26.888 0.408 28.296C1.816 28.36 2.872 28.072 3.48 27.688C3.864 27.432 3.992 27.176 4.248 26.92C4.984 26.216 5.752 25.704 6.392 25.064C6.968 24.552 7.448 23.944 8.088 23.528C8.28 23.24 8.344 22.76 8.856 22.76C8.856 22.184 9.432 22.216 9.464 21.704C10.136 21.288 10.52 20.584 11.16 20.168C11.512 19.464 12.28 19.112 12.856 18.632C13.24 17.96 13.88 17.48 14.392 16.936C14.808 16.264 15.544 15.944 15.928 15.24C17.112 14.632 17.752 13.512 18.84 12.776C19.288 11.88 20.088 11.24 20.536 10.344C21.368 9.8 21.688 8.712 22.68 8.328C22.968 7.24 23.768 6.664 23.896 5.416C23.608 5.448 23.576 5.256 23.288 5.256ZM50.6753 22.024L48.4993 23.272C48.1793 23.624 47.6673 23.656 47.2833 24.104C47.1233 24.264 46.7713 24.36 46.6113 24.552C46.3873 24.808 45.5873 25.128 45.4273 25.352C45.2993 25.576 45.1393 25.384 45.0433 25.576C44.8513 25.928 44.6913 25.896 44.4993 26.152C44.2113 26.44 43.6673 26.856 43.2193 26.536C43.1233 25.8 43.4753 25.544 43.6673 25.16C44.0513 23.624 44.5953 22.248 44.9153 20.68C45.9073 17.768 46.4833 14.376 46.2913 10.248C46.0353 9.416 45.8433 8.52 45.8433 7.496C45.4593 7.016 45.3953 6.376 45.2033 5.96C45.1393 5.768 44.9793 5.64 44.9153 5.48C44.7233 5.064 44.5953 4.424 44.4353 4.264C44.2113 4.008 44.0193 3.848 43.9873 3.496C43.3153 2.952 42.7073 2.312 42.1313 1.64C40.7873 0.967999 39.3473 0.423998 37.5233 0.263998C36.1793 0.519999 34.8033 0.679998 33.3953 0.871998C32.0193 1.608 30.3233 1.992 29.2353 3.016C28.5953 3.112 28.3393 3.56 27.6993 3.656C27.5073 4.2 26.8033 4.264 26.4833 4.712C25.9073 4.968 25.5233 5.384 24.9473 5.64C23.9873 6.28 23.3793 7.24 22.3233 7.784C22.0673 8.424 21.5553 8.872 21.1073 9.32C20.9473 9.64 20.8513 9.992 20.4993 10.088C20.6913 10.472 20.2753 10.44 20.1793 10.568C20.0513 10.728 19.9553 11.016 19.8593 11.176C19.7633 11.368 19.6353 11.56 19.5713 11.784C19.0593 12.872 18.5153 13.864 18.3233 15.176C18.1313 16.648 18.4193 18.728 18.4833 20.072C19.0593 20.84 19.3473 21.864 19.7313 22.856C20.2753 23.208 20.5312 23.88 20.9473 24.392C21.3633 24.872 22.0033 25.16 22.3233 25.768C23.1553 26.152 24.0193 26.536 24.6273 27.144C25.2353 27.048 25.4913 27.432 25.8753 27.464C26.0033 27.464 25.9713 27.592 26.0033 27.592C26.2593 27.688 26.5473 27.688 26.7713 27.752C28.0833 28.104 29.2993 28.648 30.6113 29C32.9473 29.128 34.6753 29.832 37.3953 29.608C37.6833 29.576 37.9073 29.512 38.0033 29.288C38.2273 29.224 38.8033 29.48 38.7713 29.128C39.3473 29.096 39.7633 28.936 39.8273 28.36C39.7953 27.528 39.4113 27.048 38.7713 26.824C38.2913 27.016 37.9393 27.336 37.6833 27.752C36.6593 27.88 36.1793 27.816 35.2193 27.752C34.7393 27.72 34.2913 27.656 33.8433 27.592C32.8193 27.528 31.7633 27.592 30.9313 27.464C30.6433 27.4 30.2913 27.208 30.0033 27.144C29.8113 27.08 29.5873 27.208 29.3953 27.144C29.3313 27.112 29.1713 26.856 29.0753 26.824C28.7553 26.76 28.3393 26.728 28.0193 26.696C27.5713 26.6 27.2193 26.44 26.7713 26.536C26.2273 25.96 25.2993 25.768 24.6273 25.288C23.6993 25.096 23.3793 24.296 22.4833 24.072C22.5473 23.4 21.6193 23.688 21.7153 22.984C21.2673 22.792 21.0753 22.312 20.7873 21.928C20.0193 20.232 19.3473 18.472 19.5713 15.784C19.8593 14.728 20.2433 13.8 20.4993 12.712C21.1713 11.912 21.6833 10.952 22.3233 10.088C23.0913 9.32 23.7313 8.424 24.4673 7.624C25.2673 7.304 25.8433 6.728 26.4833 6.248C27.1553 5.8 27.8593 5.384 28.4673 4.872C28.9793 4.872 29.0753 4.552 29.2353 4.424C29.6833 4.04 30.1313 3.88 30.6113 3.656C30.8353 3.528 31.0273 3.592 31.2513 3.496C31.3793 3.4 31.5073 3.112 31.6993 3.016C31.8913 2.92 32.1793 2.92 32.3073 2.888C33.8113 2.248 36.2433 1.8 37.8433 1.96C38.9953 2.056 39.5713 2.28 40.4673 2.408C40.7233 2.92 41.5233 2.888 41.6833 3.496C42.0993 3.88 42.8993 4.168 42.8993 4.712C42.9313 5.096 43.7313 5.384 43.5393 5.8C43.6353 6.312 44.0833 6.472 44.1473 7.016C44.2433 8.488 44.8193 9.832 44.9153 11.336C45.1073 14.824 43.9233 18.312 43.3793 21.32C42.7073 22.568 42.5793 24.392 41.8433 25.608C41.3953 27.112 40.6273 28.264 40.1473 29.768C39.3473 29.928 39.3153 30.856 38.4513 30.984C38.0033 31.56 37.5553 32.136 36.7553 32.36C36.4673 33.032 35.6673 33.224 35.3793 33.896C35.0593 34.088 34.8033 34.312 34.4513 34.504C34.4513 35.016 33.8433 34.92 33.6833 35.272C31.6353 36.936 29.6513 38.76 27.8593 40.52C27.2193 41.128 26.5793 41.768 25.8753 42.344C25.2353 43.432 24.1793 44.168 23.4113 45.128C23.0593 45.512 22.8673 45.928 22.6433 46.184C22.5473 46.312 22.4513 46.504 22.3233 46.664C21.9393 47.144 21.4273 47.56 21.1073 48.04C21.0113 48.168 21.0113 48.392 20.9473 48.488C20.7873 48.808 20.6273 49.032 20.4993 49.256C20.1793 49.256 19.8593 50.248 19.7313 50.504C19.5713 50.728 19.5073 50.92 19.4113 51.112C19.3793 51.144 19.1553 51.176 19.0913 51.272C18.9953 51.496 18.8993 51.88 18.8033 52.168C18.7073 52.392 18.5153 52.712 18.4833 52.808C18.3873 53.16 18.2913 53.48 18.1953 53.864C18.0033 54.536 18.0993 54.92 17.8753 55.4V57.704C18.1953 58.024 18.1953 58.632 18.3233 58.952C18.4513 59.176 18.9633 59.24 18.9633 59.56C19.1873 59.592 19.5073 59.496 19.5713 59.72C20.4673 59.816 20.6593 59.272 21.5553 59.4C22.1313 58.792 22.7073 58.184 23.5713 57.864C23.8273 57.256 24.3073 56.84 24.7873 56.488C25.2033 55.944 25.5553 55.432 26.1633 55.112C27.1873 52.936 29.0753 51.624 30.1633 49.576C30.8033 49.032 31.1873 48.232 31.6993 47.56C31.8273 47.432 31.7633 47.272 31.8593 47.112C31.9873 46.92 32.1793 46.952 32.3073 46.792C32.5312 46.536 32.7233 46.152 32.9153 45.896C33.3633 45.288 33.6833 44.616 34.1632 44.04C34.4833 43.592 34.8033 43.144 34.9313 42.504C35.4433 42.504 35.5713 41.8 35.6993 41.576C35.8593 41.256 36.0193 41.064 36.1473 40.808C36.2433 40.68 36.4033 40.616 36.4673 40.52C36.5953 40.296 36.5633 39.816 36.9153 39.752C37.0433 39.016 37.6513 38.824 37.6833 38.056C38.1953 37.768 38.2593 37.064 38.4513 36.68C38.7073 36.168 38.9953 35.752 39.2193 35.272C39.4113 34.952 39.6353 34.568 39.6993 34.216C40.0513 33.832 40.1793 33.256 40.4673 32.968C40.4993 32.936 40.4353 32.712 40.4673 32.68C40.5953 32.296 40.8513 32.104 40.7553 31.592C41.5553 31.272 41.6193 30.184 42.4513 29.896C43.0273 29.352 43.3153 28.744 44.1473 28.424C45.5553 27.912 46.8993 26.632 47.7953 26.024C48.0833 25.768 50.8033 23.368 51.1553 23.176C51.0592 22.76 51.1233 22.312 50.6753 22.024ZM38.4513 32.968C38.8353 33.032 38.2913 33.384 38.2913 33.608C37.8753 34.824 37.2033 35.912 36.6273 36.968C36.4353 37.32 36.3713 37.544 36.1473 37.896C35.7633 38.536 35.1553 39.4 34.9313 40.36C34.2273 40.872 33.8753 41.768 33.5553 42.664C32.9153 42.92 32.8513 43.72 32.3073 44.04C32.0513 44.584 31.5713 44.936 31.3793 45.576C30.5793 46.472 29.9713 47.528 29.2353 48.488C28.8513 48.968 28.4353 49.416 28.0193 49.864C27.6033 50.28 27.4113 50.888 26.7713 51.112C26.2913 52.296 25.2353 52.936 24.7873 54.184C24.1473 54.536 23.7313 55.048 23.2513 55.56C22.6753 56.136 22.1633 56.68 21.5553 57.256C21.4273 57.384 21.1073 57.384 20.7873 57.544C20.7233 57.576 20.6913 57.832 20.6273 57.864C20.4033 57.96 20.2113 58.024 19.7313 58.024C19.5073 57.48 19.3153 56.904 19.2513 56.168C19.2193 55.432 19.4113 54.728 19.4113 54.024C19.7633 53.352 20.0193 52.648 20.3393 52.04C20.4993 51.656 20.6593 51.08 20.9473 50.792C21.0433 50.696 21.2033 50.632 21.2673 50.504C21.2993 50.28 21.6833 49.608 21.8753 49.416C22.0673 49.192 22.4513 49.032 22.6433 48.808C22.7713 48.616 22.6753 48.328 22.8033 48.2C22.9633 47.944 23.4753 47.496 23.5713 46.952C24.2433 46.536 24.6913 45.928 25.1073 45.256C25.7473 44.904 25.9713 44.104 26.7713 43.88C27.5073 42.76 28.3393 41.736 29.3953 40.968C29.5553 40.68 29.7793 40.392 30.0033 40.2C30.1313 40.104 30.2273 40.136 30.3233 40.04C30.7713 39.592 31.6033 38.952 32.1473 38.344C33.6833 37.096 35.2833 35.944 36.6273 34.504C37.2353 34.024 37.9713 33.608 38.4513 32.968Z" fill="#FF6161"/>
</svg>
