<svg width="199" height="60" viewBox="0 0 199 60" fill="#FF6161" xmlns="http://www.w3.org/2000/svg">
<path fill="#FF6161"  d="M23.288 5.256C22.968 5.384 22.84 5.736 22.36 5.736C22.072 6.408 21.56 6.856 21.304 7.56C20.408 7.688 20.536 8.84 19.608 8.936C19.48 9.48 19.128 9.8 18.84 10.184C18.456 10.44 18.328 10.984 18.072 11.4C17.016 12.296 16.024 13.224 15 14.184C14.616 14.76 13.912 15.016 13.624 15.72C13.208 15.816 13.048 16.136 12.696 16.328C12.6 16.712 12.152 16.808 12.088 17.256C11.48 17.224 11.48 17.768 11 17.864C10.296 18.952 9.304 19.72 8.408 20.616C7.512 21.512 6.648 22.472 5.784 23.4C4.6 23.688 4.216 24.776 3.16 25.224C3.128 25.448 2.936 25.48 2.872 25.704C2.616 25.64 2.488 25.928 2.392 25.704C2.744 24.776 3 23.816 3.32 22.92C3.416 22.696 3.384 22.344 3.48 22.152C3.576 21.928 3.832 21.928 3.928 21.704C4.344 20.808 4.504 19.208 5.016 18.792C5.048 18.76 4.984 18.536 5.016 18.472C5.176 18.088 5.368 17.864 5.496 17.544C5.848 16.648 6.008 15.624 6.552 14.792C6.52 13.928 7.096 13.384 6.712 12.648C7.384 12.296 7.032 10.92 7.32 10.184C6.872 9.864 7 8.968 6.232 8.936C5.496 9 5.592 9.928 5.016 10.184C4.76 11.016 4.76 12.04 4.568 12.936C4.568 13.384 5.432 13.32 5.016 13.704C5.24 14.248 4.76 14.344 4.696 14.472C4.536 15.016 4.504 15.4 4.408 15.72C4.248 16.136 4.024 16.52 3.8 16.776C3.992 17.384 3.544 17.672 3.48 17.864C3.384 18.216 3.448 18.632 3.16 18.92C3.064 19.272 3.096 19.752 2.712 19.848C2.744 20.392 2.616 20.776 2.264 20.936V21.864C1.592 22.728 1.496 24.136 0.856 25.064C1.016 26.472 0.216 26.888 0.408 28.296C1.816 28.36 2.872 28.072 3.48 27.688C3.864 27.432 3.992 27.176 4.248 26.92C4.984 26.216 5.752 25.704 6.392 25.064C6.968 24.552 7.448 23.944 8.088 23.528C8.28 23.24 8.344 22.76 8.856 22.76C8.856 22.184 9.432 22.216 9.464 21.704C10.136 21.288 10.52 20.584 11.16 20.168C11.512 19.464 12.28 19.112 12.856 18.632C13.24 17.96 13.88 17.48 14.392 16.936C14.808 16.264 15.544 15.944 15.928 15.24C17.112 14.632 17.752 13.512 18.84 12.776C19.288 11.88 20.088 11.24 20.536 10.344C21.368 9.8 21.688 8.712 22.68 8.328C22.968 7.24 23.768 6.664 23.896 5.416C23.608 5.448 23.576 5.256 23.288 5.256ZM26.8353 25.672C27.0913 25.384 27.6033 25.224 27.8273 24.904C29.2673 24.168 29.8433 23.208 29.4913 22.216C28.6913 22.28 28.0513 22.856 27.3793 23.048C26.8353 23.368 26.8353 23.816 26.1953 24.072C25.3633 24.552 24.5953 24.904 23.7633 25.352C22.8993 25.8 22.0033 26.312 20.8513 26.408C20.4353 26.76 19.4753 27.304 18.8353 26.888C18.9633 25.928 19.8273 25.704 20.2113 25.032C20.9153 24.584 21.6513 23.016 22.4513 22.696C23.0593 22.248 23.2193 21.288 24.0193 21C24.2753 20.136 25.2353 19.976 25.3953 19.016C25.0433 18.792 25.2673 18.024 24.6273 18.088C24.0513 17.928 24.1473 18.408 23.8593 18.536C23.6033 18.76 23.3793 18.984 23.0913 19.176C22.9633 19.496 22.5153 19.496 22.4833 19.944C22.1633 20.072 21.8113 20.2 21.7153 20.552C20.6593 21.32 19.5393 23.272 18.5473 24.104C18.0353 24.488 17.2353 25.8 16.9473 26.408C16.8193 26.696 16.7233 27.24 16.8513 27.816C16.8193 28.328 17.3633 28.296 17.4593 28.712C18.1313 28.552 18.9633 28.712 19.7633 28.584C19.8273 28.552 20.1473 28.296 20.2113 28.264C20.5312 28.168 20.8193 28.456 20.9793 28.104C21.8113 27.752 22.8353 27.592 23.6033 27.176C23.6353 26.984 24.6273 26.504 24.6913 26.728C25.0433 26.056 26.4193 26.152 26.8353 25.672ZM29.5873 11.048C30.0993 11.304 31.1873 11.592 31.6033 11.048C31.5393 10.184 31.4433 9.352 31.1233 8.744C29.5553 8.456 29.5553 9.736 29.5873 11.048ZM45.1398 22.888C44.1798 23.24 43.5078 24.136 42.6438 24.584C41.6838 24.936 40.7238 25.416 39.8598 25.896C38.7718 26.152 38.0358 26.984 36.9478 27.24C36.5318 27.464 35.8918 27.496 35.4118 27.688C34.1958 28.264 32.3398 28.2 30.6438 28.296C29.8118 27.976 28.9798 27.624 28.6598 26.76C28.2118 25.224 28.9798 25.064 29.2998 23.816C29.5238 23.592 29.6838 23.304 30.0677 23.208C30.1958 22.344 31.1238 22.312 31.2838 21.544C31.5718 21.288 31.9238 21.128 31.9238 20.616C32.4358 20.872 32.4038 20.264 32.5318 20.136C32.7238 19.976 33.0438 19.912 33.1398 19.688C33.5238 19.816 33.7158 19.496 33.9078 19.368C34.0358 19.336 34.2598 19.432 34.3558 19.368C34.4518 19.336 34.3558 18.92 34.6758 19.08C34.9958 19.24 34.9958 19.24 34.8358 18.92C35.6678 18.472 36.4358 18.6 37.1398 19.08C37.2678 19.464 37.4278 19.656 37.4278 19.976C37.4918 20.84 36.9158 21.16 36.8198 21.672C36.7558 21.928 36.8518 22.184 36.8198 22.44C37.7798 23.24 38.5478 22.376 38.9638 21.992C39.0598 21.768 38.8038 21.192 39.1238 21.224C38.7398 19.848 38.4518 18.408 37.7478 17.384C34.2598 16.776 32.0838 18.76 30.3558 20.456C29.3958 21.256 28.7878 22.44 27.9238 23.368C27.7958 24.008 27.2518 24.904 27.1878 25.544C27.0918 26.632 27.3158 26.504 27.2838 27.528C27.6998 27.688 27.7958 28.168 27.8918 28.616C28.5638 28.776 28.9478 29.192 29.4278 29.544C30.4838 29.768 31.8278 29.672 33.1078 29.704C33.9398 29.448 34.7398 29.224 35.8918 29.288C35.9238 28.968 36.5638 29.256 36.6598 29C36.6598 28.648 37.2998 28.936 37.5558 28.84C38.0038 28.392 38.8038 28.328 39.3158 27.976C39.7958 28.008 39.7638 27.496 40.4038 27.688C40.4998 27.24 41.0118 27.208 41.3318 27.112C41.3638 27.112 41.5558 26.792 41.6198 26.76C42.0998 26.536 42.6438 26.248 43.0918 25.992C43.8598 25.832 45.5558 24.68 45.7798 23.944C46.1958 22.568 45.6838 22.568 45.1398 22.888ZM56.0123 25.224C55.5643 25.288 54.9883 25.192 54.8283 25.544C54.5723 25.608 54.1563 25.608 53.9003 25.704C53.6123 25.832 53.4203 26.056 53.1643 26.184C53.1323 26.184 52.3003 26.6 52.2683 26.632C51.7563 27.08 50.9883 27.208 50.5083 27.336C49.3883 27.496 47.9803 27.976 46.9563 27.496C46.9243 27.464 46.9563 27.368 46.8283 27.336C46.4763 27.24 46.2523 26.984 45.9003 26.728C45.3563 25.544 45.8683 24.552 46.0603 23.336C46.4443 23.112 46.4443 22.6 46.6683 22.28C46.8602 21.96 47.3083 21.768 47.2763 21.352C48.1083 20.84 48.0443 19.912 48.8123 19.368C49.1643 18.408 49.9963 17.96 50.3483 17.064C50.5723 16.968 51.1483 17.224 51.1163 16.904C51.6603 16.264 52.4283 16.968 52.8123 16.904C53.1643 16.84 53.4523 16.712 53.7403 16.584C54.1883 16.712 54.1883 16.712 54.6363 16.584C55.6923 16.264 55.7563 16.776 56.8123 16.296C57.1963 16.424 57.7403 16.456 58.3483 16.424C59.2123 16.104 59.8203 16.36 60.4923 15.976C61.4843 16.072 62.0603 15.784 62.9563 15.816C62.9243 15.848 63.5963 15.752 64.3963 15.688C64.7803 15.208 64.2363 14.952 63.8523 14.76C60.3003 15.048 56.5243 15.208 52.9723 15.528C52.6523 15.432 51.9483 15.688 51.8843 15.368C52.3963 13.608 53.7403 12.712 54.5083 11.208C54.1563 10.92 54.6683 9.832 54.0283 9.832C52.9723 9.704 53.0363 10.664 52.4923 11.048C51.9163 11.88 51.4363 12.744 50.7963 13.512C50.4763 13.96 49.8043 14.472 49.5803 14.76C49.4843 14.888 49.5163 15.08 49.4203 15.208C49.2923 15.368 49.0683 15.624 48.8123 15.656C47.2763 15.816 45.8043 16.04 44.2043 16.136C43.9803 16.456 43.2763 16.328 42.9883 16.584C42.7003 16.872 41.8362 16.584 41.9002 17.192C42.2203 18.248 43.5323 17.768 44.5243 17.672C45.2283 17.576 45.9963 17.416 46.3483 17.352C46.8283 17.288 47.3723 17.256 47.5963 17.512C46.7003 18.6 46.1883 20.104 45.4203 21.352C44.9723 21.768 44.7483 23.176 44.3643 23.976C44.1403 24.808 43.9163 25.608 44.0443 26.408C44.2043 27.496 45.0363 28.072 45.4203 28.712C45.8363 28.84 46.3163 28.872 46.5083 29.192C47.4363 29.224 48.5883 29.064 49.2603 29.352C49.5803 29.16 49.8683 29.096 50.1883 29.032C50.8603 28.872 50.3483 29.096 50.8283 28.968C51.1163 28.904 51.6923 28.712 51.8843 28.648C52.2683 28.552 52.3003 28.424 52.4923 28.36C52.5883 28.296 53.0683 28.072 53.1643 28.072C53.6763 27.912 54.2203 27.432 54.5403 27.272C55.0523 27.016 55.4043 26.6 56.1723 26.248C55.8843 25.896 56.4923 25.608 56.0123 25.224ZM56.898 21.704C56.354 22.216 56.226 22.952 55.842 23.624C55.746 23.816 55.81 24.04 55.682 24.232C55.618 24.36 55.298 24.424 55.234 24.552C55.042 24.872 54.914 25.288 54.754 25.64C54.754 26.696 54.658 27.88 55.074 28.552C55.842 28.776 57.378 28.936 58.466 28.712C59.842 28.072 61.058 27.304 62.146 26.408C62.53 25.992 62.402 25.704 62.786 25.64C62.69 25.352 63.49 24.904 63.682 24.712C64.322 23.784 65.154 23.208 65.538 21.96C65.538 21.928 65.602 21.864 66.114 21.672C66.594 21.48 66.274 21.64 66.786 21.448C67.042 21.352 67.17 21.32 67.234 21.288C67.394 21.16 68.034 20.2 68.002 19.944C68.002 19.912 67.234 19.784 66.69 20.008C66.242 20.168 66.658 20.04 66.21 20.136C65.954 20.2 65.794 20.136 65.762 20.072C65.666 19.56 65.634 18.952 65.378 18.408C65.41 17.512 64.322 17.096 63.81 16.712C62.786 16.712 62.242 17.192 61.378 17.32C60.93 17.768 60.642 18.344 60.13 18.728C59.298 18.984 58.914 19.656 57.986 19.784C57.634 19.976 57.346 20.328 57.218 20.392C57.154 20.84 57.026 21.352 56.898 21.704ZM62.914 18.728C63.138 18.664 63.81 18.856 64.002 18.856C64.29 19.24 64.098 20.104 64.162 20.712C63.586 21.032 62.306 21.224 61.378 21.16C61.442 20.872 61.25 20.616 61.218 20.872C60.802 20.552 61.57 20.104 61.666 19.784C62.114 19.688 62.562 19.56 62.754 19.176C62.69 18.92 62.882 18.92 62.914 18.728ZM59.074 21.8C59.586 21.928 59.874 22.312 60.29 22.568C60.706 22.568 61.154 22.504 61.378 22.696C62.018 22.664 63.042 22.6 63.554 22.28C63.554 22.792 63.298 22.792 63.074 23.176C62.658 23.432 62.338 23.752 62.018 24.104C61.666 24.424 61.378 24.808 61.09 25.16C60.482 25.256 60.194 25.8 59.714 26.088C59.522 26.184 59.522 26.12 59.394 26.248C59.298 26.344 58.178 26.984 57.858 27.016H56.29C56.162 26.216 56.61 25.992 56.61 25.32C57.218 24.648 57.666 23.656 58.306 22.856C58.466 22.632 58.53 22.28 58.914 22.248C58.85 21.992 59.042 21.992 59.074 21.8ZM80.6655 24.328C79.4495 25.224 77.8175 26.664 76.0255 26.856C75.0015 26.952 74.0415 26.888 73.4335 26.536C73.2735 25.768 73.8815 25.768 74.0415 25.32C74.5215 24.552 75.0655 24.2 75.4175 23.304C75.5135 23.176 75.7375 23.048 75.8655 22.856C75.9615 22.696 75.8975 22.248 76.1855 22.248C76.1855 21.608 75.5775 21.288 75.7055 20.552C75.4495 20.136 75.3535 19.56 75.0975 19.176C74.9695 18.344 75.0655 17.352 74.3295 17.16C73.6255 16.936 73.7535 17.544 73.5935 17.736C73.3375 17.96 72.3135 18.6 72.2815 18.952C71.7055 19.24 70.1375 21.384 69.7215 21.864C69.3055 22.184 68.4415 23.304 67.9615 23.72C67.9295 23.688 69.0815 24.52 69.0815 24.52C69.9775 24.264 72.6335 20.456 73.5615 20.232C73.8495 20.648 73.9775 21.576 74.0415 22.248C73.0815 23.176 72.6015 24.296 71.7375 25.32C71.6415 25.896 71.3535 26.28 71.4175 26.984C71.7055 27.336 71.9295 27.912 72.3455 27.912C72.5055 27.944 72.4415 28.04 72.5055 28.072C72.8575 28.232 72.9535 28.2 73.2735 28.232C74.0095 28.328 75.1615 28.488 76.1855 28.392C78.3295 27.912 79.8975 26.536 81.5615 25.48C81.5935 25.544 82.7135 24.36 82.7135 24.36C82.7135 24.36 82.2975 23.112 82.2975 23.144C82.2975 23.176 81.1455 23.912 80.6655 24.328ZM125.488 22.024L123.312 23.272C122.992 23.624 122.48 23.656 122.096 24.104C121.936 24.264 121.584 24.36 121.424 24.552C121.2 24.808 120.4 25.128 120.24 25.352C120.112 25.576 119.952 25.384 119.856 25.576C119.664 25.928 119.504 25.896 119.312 26.152C119.024 26.44 118.48 26.856 118.032 26.536C117.936 25.8 118.288 25.544 118.48 25.16C118.864 23.624 119.408 22.248 119.728 20.68C120.72 17.768 121.296 14.376 121.104 10.248C120.848 9.416 120.656 8.52 120.656 7.496C120.272 7.016 120.208 6.376 120.016 5.96C119.952 5.768 119.792 5.64 119.728 5.48C119.536 5.064 119.408 4.424 119.248 4.264C119.024 4.008 118.832 3.848 118.8 3.496C118.128 2.952 117.52 2.312 116.944 1.64C115.6 0.967999 114.16 0.423998 112.336 0.263998C110.992 0.519999 109.616 0.679998 108.208 0.871998C106.832 1.608 105.136 1.992 104.048 3.016C103.408 3.112 103.152 3.56 102.512 3.656C102.32 4.2 101.616 4.264 101.296 4.712C100.72 4.968 100.336 5.384 99.7598 5.64C98.7998 6.28 98.1918 7.24 97.1358 7.784C96.8798 8.424 96.3678 8.872 95.9198 9.32C95.7598 9.64 95.6638 9.992 95.3118 10.088C95.5038 10.472 95.0878 10.44 94.9918 10.568C94.8638 10.728 94.7678 11.016 94.6718 11.176C94.5758 11.368 94.4478 11.56 94.3838 11.784C93.8718 12.872 93.3278 13.864 93.1358 15.176C92.9438 16.648 93.2318 18.728 93.2958 20.072C93.8718 20.84 94.1598 21.864 94.5438 22.856C95.0878 23.208 95.3438 23.88 95.7598 24.392C96.1758 24.872 96.8158 25.16 97.1358 25.768C97.9678 26.152 98.8318 26.536 99.4398 27.144C100.048 27.048 100.304 27.432 100.688 27.464C100.816 27.464 100.784 27.592 100.816 27.592C101.072 27.688 101.36 27.688 101.584 27.752C102.896 28.104 104.112 28.648 105.424 29C107.76 29.128 109.488 29.832 112.208 29.608C112.496 29.576 112.72 29.512 112.816 29.288C113.04 29.224 113.616 29.48 113.584 29.128C114.16 29.096 114.576 28.936 114.64 28.36C114.608 27.528 114.224 27.048 113.584 26.824C113.104 27.016 112.752 27.336 112.496 27.752C111.472 27.88 110.992 27.816 110.032 27.752C109.552 27.72 109.104 27.656 108.656 27.592C107.632 27.528 106.576 27.592 105.744 27.464C105.456 27.4 105.104 27.208 104.816 27.144C104.624 27.08 104.4 27.208 104.208 27.144C104.144 27.112 103.984 26.856 103.888 26.824C103.568 26.76 103.152 26.728 102.832 26.696C102.384 26.6 102.032 26.44 101.584 26.536C101.04 25.96 100.112 25.768 99.4398 25.288C98.5118 25.096 98.1918 24.296 97.2958 24.072C97.3598 23.4 96.4318 23.688 96.5278 22.984C96.0798 22.792 95.8878 22.312 95.5998 21.928C94.8318 20.232 94.1598 18.472 94.3838 15.784C94.6718 14.728 95.0558 13.8 95.3118 12.712C95.9838 11.912 96.4958 10.952 97.1358 10.088C97.9038 9.32 98.5438 8.424 99.2798 7.624C100.08 7.304 100.656 6.728 101.296 6.248C101.968 5.8 102.672 5.384 103.28 4.872C103.792 4.872 103.888 4.552 104.048 4.424C104.496 4.04 104.944 3.88 105.424 3.656C105.648 3.528 105.84 3.592 106.064 3.496C106.192 3.4 106.32 3.112 106.512 3.016C106.704 2.92 106.992 2.92 107.12 2.888C108.624 2.248 111.056 1.8 112.656 1.96C113.808 2.056 114.384 2.28 115.28 2.408C115.536 2.92 116.336 2.888 116.496 3.496C116.912 3.88 117.712 4.168 117.712 4.712C117.744 5.096 118.544 5.384 118.352 5.8C118.448 6.312 118.896 6.472 118.96 7.016C119.056 8.488 119.632 9.832 119.728 11.336C119.92 14.824 118.736 18.312 118.192 21.32C117.52 22.568 117.392 24.392 116.656 25.608C116.208 27.112 115.44 28.264 114.96 29.768C114.16 29.928 114.128 30.856 113.264 30.984C112.816 31.56 112.368 32.136 111.568 32.36C111.28 33.032 110.48 33.224 110.192 33.896C109.872 34.088 109.616 34.312 109.264 34.504C109.264 35.016 108.656 34.92 108.496 35.272C106.448 36.936 104.464 38.76 102.672 40.52C102.032 41.128 101.392 41.768 100.688 42.344C100.048 43.432 98.9918 44.168 98.2238 45.128C97.8718 45.512 97.6798 45.928 97.4558 46.184C97.3598 46.312 97.2638 46.504 97.1358 46.664C96.7518 47.144 96.2398 47.56 95.9198 48.04C95.8238 48.168 95.8238 48.392 95.7598 48.488C95.5998 48.808 95.4398 49.032 95.3118 49.256C94.9918 49.256 94.6718 50.248 94.5438 50.504C94.3838 50.728 94.3198 50.92 94.2238 51.112C94.1918 51.144 93.9678 51.176 93.9038 51.272C93.8078 51.496 93.7118 51.88 93.6158 52.168C93.5198 52.392 93.3278 52.712 93.2958 52.808C93.1998 53.16 93.1038 53.48 93.0078 53.864C92.8158 54.536 92.9118 54.92 92.6878 55.4V57.704C93.0078 58.024 93.0078 58.632 93.1358 58.952C93.2638 59.176 93.7758 59.24 93.7758 59.56C93.9998 59.592 94.3198 59.496 94.3838 59.72C95.2798 59.816 95.4718 59.272 96.3678 59.4C96.9438 58.792 97.5198 58.184 98.3838 57.864C98.6398 57.256 99.1198 56.84 99.5998 56.488C100.016 55.944 100.368 55.432 100.976 55.112C102 52.936 103.888 51.624 104.976 49.576C105.616 49.032 106 48.232 106.512 47.56C106.64 47.432 106.576 47.272 106.672 47.112C106.8 46.92 106.992 46.952 107.12 46.792C107.344 46.536 107.536 46.152 107.728 45.896C108.176 45.288 108.496 44.616 108.976 44.04C109.296 43.592 109.616 43.144 109.744 42.504C110.256 42.504 110.384 41.8 110.512 41.576C110.672 41.256 110.832 41.064 110.96 40.808C111.056 40.68 111.216 40.616 111.28 40.52C111.408 40.296 111.376 39.816 111.728 39.752C111.856 39.016 112.464 38.824 112.496 38.056C113.008 37.768 113.072 37.064 113.264 36.68C113.52 36.168 113.808 35.752 114.032 35.272C114.224 34.952 114.448 34.568 114.512 34.216C114.864 33.832 114.992 33.256 115.28 32.968C115.312 32.936 115.248 32.712 115.28 32.68C115.408 32.296 115.664 32.104 115.568 31.592C116.368 31.272 116.432 30.184 117.264 29.896C117.84 29.352 118.128 28.744 118.96 28.424C120.368 27.912 121.712 26.632 122.608 26.024C122.896 25.768 125.616 23.368 125.968 23.176C125.872 22.76 125.936 22.312 125.488 22.024ZM113.264 32.968C113.648 33.032 113.104 33.384 113.104 33.608C112.688 34.824 112.016 35.912 111.44 36.968C111.248 37.32 111.184 37.544 110.96 37.896C110.576 38.536 109.968 39.4 109.744 40.36C109.04 40.872 108.688 41.768 108.368 42.664C107.728 42.92 107.664 43.72 107.12 44.04C106.864 44.584 106.384 44.936 106.192 45.576C105.392 46.472 104.784 47.528 104.048 48.488C103.664 48.968 103.248 49.416 102.832 49.864C102.416 50.28 102.224 50.888 101.584 51.112C101.104 52.296 100.048 52.936 99.5998 54.184C98.9598 54.536 98.5438 55.048 98.0638 55.56C97.4878 56.136 96.9758 56.68 96.3678 57.256C96.2398 57.384 95.9198 57.384 95.5998 57.544C95.5358 57.576 95.5038 57.832 95.4398 57.864C95.2158 57.96 95.0238 58.024 94.5438 58.024C94.3198 57.48 94.1278 56.904 94.0638 56.168C94.0318 55.432 94.2238 54.728 94.2238 54.024C94.5758 53.352 94.8318 52.648 95.1518 52.04C95.3118 51.656 95.4718 51.08 95.7598 50.792C95.8558 50.696 96.0158 50.632 96.0798 50.504C96.1118 50.28 96.4958 49.608 96.6878 49.416C96.8798 49.192 97.2638 49.032 97.4558 48.808C97.5838 48.616 97.4878 48.328 97.6158 48.2C97.7758 47.944 98.2878 47.496 98.3838 46.952C99.0558 46.536 99.5038 45.928 99.9198 45.256C100.56 44.904 100.784 44.104 101.584 43.88C102.32 42.76 103.152 41.736 104.208 40.968C104.368 40.68 104.592 40.392 104.816 40.2C104.944 40.104 105.04 40.136 105.136 40.04C105.584 39.592 106.416 38.952 106.96 38.344C108.496 37.096 110.096 35.944 111.44 34.504C112.048 34.024 112.784 33.608 113.264 32.968ZM136.798 23.912C136.478 23.912 135.87 24.232 135.582 24.328C135.294 24.456 134.654 24.776 134.366 25C133.022 25.992 130.494 27.048 128.798 27.144H128.478C128.03 27.016 127.262 26.824 126.782 26.408C127.518 26.152 127.902 25.576 128.638 25.32C128.83 24.904 129.278 24.776 129.566 24.424C129.854 24.072 130.174 23.4 130.622 23.176C130.718 22.056 131.902 20.68 131.902 19.432C132.158 19.144 132.094 18.6 132.222 18.376C132.286 18.248 132.35 18.312 132.35 18.056C132.382 17.448 132.35 17.032 131.902 16.68C130.845 16.648 130.398 17.224 129.278 17.128C128.67 17.768 127.838 18.152 126.974 18.536C126.526 19.272 125.661 19.656 125.31 20.52C124.862 20.68 124.702 21.16 124.542 21.608C124.158 21.768 123.646 23.304 123.549 23.624C123.549 23.72 123.422 23.784 123.422 23.784C123.23 24.52 123.422 25.32 123.549 25.96C123.486 26.536 123.742 27.4 124.478 27.496C125.694 28.328 127.55 28.808 129.566 28.68C131.966 28.52 136.222 25.992 136.702 25.224C136.798 25.064 136.798 23.976 136.798 23.912ZM130.526 18.536C130.654 18.536 130.654 18.728 130.686 18.824C130.686 19.432 130.334 19.912 130.046 20.36C129.47 21.288 128.222 23.496 127.262 24.264C126.942 24.52 126.718 24.648 126.334 24.872C126.141 24.968 125.566 25.224 125.086 25.192C125.118 23.56 126.558 21.736 127.134 20.68C127.998 20.296 128.51 19.336 129.438 18.824C129.694 18.696 130.11 18.824 130.526 18.536ZM163.775 23.56C164.223 20.264 161.759 23.176 160.895 23.88C159.967 24.168 160.191 24.616 159.391 25.064C158.751 25.448 158.559 25.448 158.015 25.704C157.759 25.8 157.439 25.8 157.247 25.992C156.927 25.96 156.927 26.216 156.767 26.312C155.679 26.376 154.879 27.464 153.695 26.92C153.631 25.832 154.015 25.16 154.303 24.456C154.783 22.888 155.903 21.96 156.319 20.328C156.991 19.496 157.503 17.576 156.319 16.936C155.199 17.352 154.591 18.28 153.407 18.632C152.959 19.496 151.935 19.72 151.391 20.488C151.007 20.744 150.527 20.936 150.335 21.384C150.111 21.48 149.951 21.64 149.855 21.864C149.663 21.832 149.279 22.376 149.247 22.024C149.407 20.584 150.207 18.696 149.087 17.704C147.679 17.864 147.103 18.888 145.727 19.08C145.439 19.624 144.767 19.784 144.319 20.168C143.839 20.488 143.359 20.84 142.783 21.096C142.463 21.576 142.047 21.992 141.407 22.152C141.375 22.536 140.927 22.504 140.799 22.792C140.447 22.632 140.127 23.304 140.031 22.92C140.031 22.216 140.511 21.768 140.447 21.32C140.607 20.744 140.543 20.744 140.799 20.232C140.799 19.88 140.959 19.496 140.959 19.144C141.855 18.28 142.623 15.656 141.119 15.144H140.799C140.799 15.336 140.543 15.272 140.511 15.432C140.191 15.752 140.287 16.456 139.743 16.52C139.775 17.16 138.975 17 139.103 17.736C138.975 18.312 139.871 17.8 139.583 18.504C139.199 20.008 138.943 20.424 138.751 21.32C138.719 21.64 138.527 21.96 138.335 22.312C138.047 23.08 137.535 23.656 137.279 24.456C136.575 25.512 136.319 27.08 135.583 27.848C135.359 28.072 135.295 28.168 135.263 28.456C135.263 28.616 135.295 28.776 135.263 28.936C135.711 29.512 136.415 28.936 137.279 29.064C137.503 28.616 138.047 28.424 138.175 27.848C138.495 27.816 138.495 27.432 138.655 27.24C138.783 27.08 139.135 26.92 139.103 26.632C139.967 26.056 140.607 25.256 141.247 24.456C142.111 24.392 142.175 23.528 142.943 23.4C143.391 22.856 143.807 22.312 144.479 22.024C144.927 21.512 145.407 21.064 146.015 20.776C146.495 20.456 147.199 19.656 147.871 20.008C147.711 20.872 147.391 21.576 147.263 22.472C146.751 23.016 146.591 23.976 146.015 24.456C145.791 25.32 145.311 25.896 144.959 26.632C144.575 26.76 144.543 27.24 144.479 27.688C143.935 28.008 144.383 28.328 144.479 28.776C145.247 28.872 145.311 28.264 146.175 28.456C146.879 27.624 147.615 26.856 148.159 25.864C148.639 25.544 149.023 25.16 149.407 24.776C150.591 23.56 151.487 22.216 152.767 21.256C153.407 20.776 153.727 20.04 154.623 20.008C154.559 20.552 154.239 20.84 154.015 21.256C153.727 21.576 153.631 22.12 153.407 22.472C153.183 22.856 152.831 23.144 152.927 23.848C152.479 23.688 152.671 24.2 152.639 24.456C152.319 24.52 152.479 25.032 152.159 25.096C152.031 26.184 151.487 27.688 152.319 28.456C153.759 29.224 155.583 28.296 156.927 28.008C158.463 27.592 158.623 26.888 160.191 26.504C161.247 26.12 162.879 24.104 163.775 23.56ZM180.647 22.504C179.911 22.92 179.367 23.368 178.727 23.72C178.279 23.976 177.831 24.2 177.447 24.648C176.519 25.064 175.623 25.448 174.695 25.864C174.215 26.088 173.639 26.248 173.159 26.472C172.679 26.728 172.295 26.6 171.783 26.76C171.495 26.824 171.111 26.76 170.855 26.888C170.759 26.6 169.927 26.984 170.087 26.44C169.863 25.832 170.471 25.736 170.695 25.512C170.983 25.224 171.207 24.904 171.623 24.744C171.911 24.296 172.199 23.784 172.679 23.528C172.711 22.664 173.543 22.632 173.447 21.672C173.223 21.416 173.223 20.904 172.839 20.744C171.047 20.584 171.015 22.184 169.767 22.6C169.767 23.24 169.319 23.464 168.999 23.816C168.935 24.52 168.519 24.872 168.391 25.512C167.911 25.448 167.975 25.928 167.623 25.96C167.431 26.152 167.079 26.152 166.695 26.12C166.727 26.6 166.055 26.6 165.767 26.76C165.607 26.856 165.511 26.952 165.319 27.048C165.127 27.176 164.871 27.08 164.871 27.368C164.007 27.4 163.175 28.2 162.247 27.656C162.343 26.504 162.919 25.896 163.175 24.904C163.623 24.84 163.655 24.36 163.943 24.136C164.231 23.912 164.327 23.496 164.711 23.368C165.191 22.824 165.671 22.28 166.087 21.672C167.111 21.32 167.687 20.488 168.551 19.976C169.063 19.88 169.319 19.464 169.767 19.208C170.247 18.984 170.855 18.92 171.303 18.6C172.295 18.76 172.839 18.056 173.607 18.44C173.575 19.144 172.583 19.496 173.159 20.296C173.383 20.264 173.735 20.36 173.767 20.136C173.767 19.912 174.151 20.008 174.087 19.688C174.535 19.56 174.727 19.208 174.983 18.92C175.367 17.64 174.887 16.52 173.767 16.296C172.391 16.488 171.495 17.192 170.087 17.384C169.767 17.928 168.999 18.024 168.391 18.312C167.879 18.6 167.655 19.176 166.855 19.208C166.535 19.752 166.023 20.104 165.479 20.456C164.647 21.352 163.623 22.088 162.855 23.048C162.407 23.528 162.119 24.168 161.639 24.584C161.479 25.256 161.255 25.864 160.871 26.28C160.519 27.656 160.903 28.68 161.639 29.352C161.959 29.192 162.471 29.512 162.407 29.512C162.919 29.544 164.167 29.192 164.391 29.064C164.871 28.744 165.703 28.584 165.927 28.424C166.439 28.104 167.047 27.784 167.463 27.656C167.815 27.592 167.943 27.144 168.391 27.208C168.807 27.144 168.551 27.784 168.839 27.816C168.871 28.2 169.447 28.04 169.479 28.424C169.735 28.52 170.375 28.264 170.375 28.584C171.431 28.392 172.199 28.456 173.319 28.328C173.767 27.688 174.759 27.848 175.303 27.304C175.687 27.336 175.751 27.176 176.071 26.984C176.359 26.824 176.711 26.824 176.999 26.696C177.543 26.408 177.959 25.992 178.503 25.704C179.047 25.416 178.919 25.192 179.463 24.936C179.975 24.68 180.583 23.88 181.127 23.592C181.031 23.624 180.647 22.504 180.647 22.504ZM196.768 23.976C196.8 23.848 197.312 23.656 197.6 23.656C198.08 23.624 198.432 23.016 198.272 21.512C197.344 21.544 196.864 22.056 196.256 22.376C196.032 22.472 195.584 22.856 195.328 22.952C195.104 23.176 194.912 23.4 194.528 23.656C193.984 24.04 194.048 23.976 193.376 24.232C192 25.224 191.488 25.096 189.824 25.8C189.472 25.896 189.472 26.056 189.056 26.088C188.8 26.312 188.288 26.088 187.968 26.216C187.616 26.184 187.296 26.952 187.04 26.536C187.36 26.344 187.2 25.672 187.648 25.608C187.904 25.288 188.096 24.936 188.288 24.52C188.8 23.976 189.92 22.376 190.144 21.512C190.56 21.416 190.464 20.808 190.912 20.744C190.88 20.136 191.584 20.264 191.52 19.656C192.16 19.304 192.736 18.344 192.288 17.352C191.52 16.936 190.208 17.576 189.664 17.832C188.96 18.472 187.776 18.856 187.04 19.368C186.88 19.464 186.72 19.72 186.56 19.816C186.112 20.168 185.76 20.36 185.344 20.584C185.056 20.744 184.928 21 184.576 20.904C184.416 21.288 183.968 21.416 183.808 21.832C183.392 21.704 183.584 22.12 183.296 22.12C183.072 22.056 182.912 22.728 182.816 22.28H182.976C182.976 22.12 183.2 22.056 182.976 21.96C183.36 21.32 183.904 18.504 183.36 17.992C182.592 17.864 182.24 17.8 182.016 18.344C181.856 18.728 181.28 21.416 181.152 21.96C180.768 23.048 179.456 24.84 178.976 25.768C178.688 26.184 178.464 26.696 178.048 26.984C177.792 27.464 177.376 27.752 177.44 28.52C177.856 29.096 178.048 28.584 178.848 28.68C179.2 28.456 179.456 28.136 179.776 27.912C180.256 27.816 180.192 27.176 180.704 27.144C181.376 26.664 181.6 25.832 182.304 25.384C182.496 25.032 182.976 24.712 183.264 24.424C184.224 23.56 187.008 21.48 188.288 21.032C187.904 21.736 186.912 23.624 186.592 24.072C186.464 24.232 186.432 24.264 186.272 24.392C186.24 24.424 186.304 24.648 186.272 24.68C186.144 24.872 185.92 25 185.824 25.16C185.664 25.352 185.664 25.512 185.504 25.768C185.44 25.896 185.248 25.832 185.216 25.928C185.088 26.12 185.216 26.248 185.056 26.376C184.992 26.408 185.088 26.632 185.056 26.696C184.8 27.144 184.544 27.752 184.576 28.52C185.28 29.256 186.464 28.872 187.36 28.84C188.608 28.072 190.08 27.976 191.264 27.144C191.84 26.696 192.128 26.824 192.672 26.344C193.536 25.96 193.664 25.704 194.208 25.512C194.912 25.192 196.128 24.52 196.768 23.976Z"/>
</svg>
