<svg width="526" height="410" viewBox="0 0 526 410" fill="none" xmlns="http://www.w3.org/2000/svg">
<g clip-path="url(#clip0)">
<path d="M442.944 0.95265L3.13356 121.263L62.3905 338.75L502.201 218.439L442.944 0.95265Z" fill="#F5F5F5"/>
<path d="M445.358 8.59498e-05L0.00392151 121.827L60.7114 344.637L506.065 222.81L445.358 8.59498e-05Z" fill="url(#paint0_linear)"/>
<path d="M448.922 22.8974L9.11122 143.208L62.3497 338.606L502.161 218.295L448.922 22.8974Z" fill="white"/>
<path d="M16.8094 133.969C19.8557 133.142 21.6565 129.998 20.8314 126.945C20.0063 123.893 16.8679 122.089 13.8216 122.915C10.7752 123.742 8.97446 126.887 9.79952 129.939C10.6246 132.992 13.763 134.796 16.8094 133.969Z" fill="#FF5252"/>
<path d="M34.6264 129.976C37.6877 129.139 39.4918 125.973 38.6561 122.906C37.8203 119.838 34.6612 118.031 31.5999 118.868C28.5387 119.705 26.7345 122.871 27.5703 125.938C28.406 129.006 31.5652 130.813 34.6264 129.976Z" fill="#FFFF00"/>
<path d="M51.2604 125.424C54.3217 124.587 56.1258 121.421 55.2901 118.354C54.4543 115.286 51.2952 113.479 48.2339 114.316C45.1727 115.153 43.3685 118.319 44.2043 121.386C45.04 124.454 48.1992 126.261 51.2604 125.424Z" fill="#69F0AE"/>
<path d="M124.841 111.27L9.03802 142.948L62.3472 338.605L178.15 306.926L124.841 111.27Z" fill="#007AFF"/>
<path d="M114.415 179.782C110.004 163.592 92.6356 154.239 75.6308 158.879C58.6259 163.52 48.4278 180.445 52.8146 196.642C56.2775 209.351 67.7154 217.843 80.703 218.662L78.6467 211.107C77.1566 205.648 80.6374 199.897 86.3951 198.326C92.129 196.755 98.0416 199.939 99.5079 205.403L101.564 212.958C112.329 205.63 117.878 192.461 114.415 179.782Z" fill="url(#paint1_linear)"/>
<path d="M85.3366 193.716L84.9226 193.829C84.0144 194.078 83.4791 195.017 83.7271 195.927L86.2167 205.064C86.4647 205.974 87.4019 206.511 88.3102 206.262L88.7241 206.149C89.6324 205.901 90.1676 204.961 89.9197 204.051L87.43 194.914C87.1821 194.004 86.2448 193.468 85.3366 193.716Z" fill="url(#paint2_linear)"/>
<path d="M85.6009 195.439C92.1395 193.65 96.0653 187.155 94.3696 180.931C92.6738 174.707 85.9986 171.112 79.46 172.9C72.9215 174.689 68.9957 181.184 70.6914 187.408C72.3872 193.632 79.0624 197.228 85.6009 195.439Z" fill="url(#paint3_linear)"/>
<path d="M86.3713 198.32C80.6374 199.891 77.1626 205.642 78.6229 211.101L80.6792 218.655C88.0699 219.107 95.4027 217.102 101.54 212.952L99.484 205.397C98.0178 199.938 92.1051 196.755 86.3713 198.32Z" fill="url(#paint4_linear)"/>
<path d="M70.4274 186.811C69.0098 185.338 68.0366 183.494 67.62 181.49C67.424 180.481 67.4311 179.443 67.6409 178.437C67.8508 177.431 68.2591 176.477 68.8419 175.631C70.183 173.762 72.4181 172.645 74.5996 171.839C76.7811 171.033 79.1294 170.525 81.2394 169.504C84.7139 167.821 87.3896 164.837 88.6898 161.197C89.3603 162.783 89.798 164.459 89.9892 166.171C90.0758 167.043 89.9801 167.924 89.7081 168.757C89.4362 169.59 88.9939 170.357 88.4097 171.009C89.9892 169.725 90.3051 171.606 90.1978 172.854C91.3899 173.637 93.5773 173.213 94.0482 174.509C94.5815 175.783 94.7865 177.171 94.6442 178.546C94.4356 179.914 95.6038 181.914 94.2389 182.386" fill="url(#paint5_linear)"/>
<path d="M111.673 175.888C110.209 170.521 107.302 165.66 103.27 161.834C99.2379 158.008 94.235 155.365 88.8067 154.192C83.3784 153.02 77.7331 153.363 72.486 155.184C67.2389 157.005 62.5914 160.235 59.0502 164.521C55.509 168.807 53.2099 173.984 52.4036 179.489C51.5973 184.994 52.3146 190.616 54.4775 195.74C56.6404 200.865 60.1658 205.296 64.6694 208.552C69.173 211.807 74.4819 213.761 80.0176 214.2L77.9612 206.645C77.252 204.013 77.6111 201.207 78.9601 198.839C80.3092 196.471 82.5386 194.734 85.1613 194.008C87.7883 193.297 90.5892 193.657 92.9523 195.009C95.3154 196.361 97.0486 198.595 97.7734 201.222L99.8297 208.777C104.942 205.183 108.823 200.096 110.943 194.21C113.062 188.323 113.317 181.925 111.673 175.888Z" fill="#007AFF"/>
<path d="M84.0462 189.432L83.8162 189.495C82.908 189.743 82.3728 190.682 82.6207 191.592L85.1104 200.73C85.3583 201.64 86.2956 202.176 87.2038 201.928L87.4338 201.865C88.342 201.616 88.8773 200.677 88.6293 199.767L86.1397 190.63C85.8917 189.72 84.9545 189.183 84.0462 189.432Z" fill="white" stroke="white" stroke-width="0.59651" stroke-miterlimit="10"/>
<path d="M84.4026 191.129C90.6141 189.43 94.2747 183.007 92.579 176.784C90.8832 170.56 84.4731 166.892 78.2617 168.591C72.0502 170.29 68.3896 176.713 70.0853 182.937C71.7811 189.161 78.1911 192.829 84.4026 191.129Z" fill="white" stroke="white" stroke-width="0.59651" stroke-miterlimit="10"/>
<path d="M85.1673 194.008C82.5445 194.734 80.3152 196.471 78.9661 198.839C77.617 201.207 77.2579 204.013 77.9672 206.645L80.0176 214.2C87.0491 214.747 94.0519 212.83 99.8297 208.777L97.7734 201.223C97.0486 198.596 95.3163 196.363 92.9546 195.012C90.5929 193.66 87.7935 193.299 85.1673 194.008Z" fill="white" stroke="white" stroke-width="0.59651" stroke-miterlimit="10"/>
<path d="M69.8194 182.309C68.4436 180.808 67.4965 178.963 67.0777 176.969C66.6692 174.96 67.0607 172.871 68.1684 171.146C69.426 169.301 71.5121 168.196 73.6102 167.438C75.7082 166.679 77.9136 166.189 79.9103 165.192C81.5597 164.36 83.0277 163.207 84.229 161.802C85.4302 160.396 86.3407 158.765 86.9077 157.004C87.5684 158.595 88.0077 160.269 88.213 161.979C88.3071 162.832 88.2273 163.696 87.9783 164.517C87.7293 165.338 87.3164 166.1 86.7647 166.757C88.2547 165.497 88.5528 167.402 88.511 168.62C89.6375 169.414 91.7415 169.02 92.2065 170.316C92.7372 171.59 92.9559 172.972 92.8442 174.348C92.6594 175.709 93.8038 177.716 92.5045 178.17" fill="white"/>
<path d="M69.8194 182.309C68.4436 180.808 67.4965 178.963 67.0777 176.969C66.6692 174.96 67.0607 172.871 68.1684 171.146C69.426 169.301 71.5121 168.196 73.6102 167.438C75.7082 166.679 77.9136 166.189 79.9103 165.192C81.5597 164.36 83.0277 163.207 84.229 161.802C85.4302 160.396 86.3407 158.765 86.9077 157.004C87.5684 158.595 88.0077 160.269 88.213 161.979C88.3071 162.832 88.2273 163.696 87.9783 164.517C87.7293 165.338 87.3164 166.1 86.7647 166.757C88.2547 165.497 88.5528 167.402 88.511 168.62C89.6375 169.414 91.7415 169.02 92.2065 170.316C92.7372 171.59 92.9559 172.972 92.8442 174.348C92.6594 175.709 93.8038 177.716 92.5045 178.17" stroke="white" stroke-width="0.59651" stroke-miterlimit="10"/>
<path d="M87.313 166.369C87.313 166.369 95.3476 164.905 92.9396 178.104L87.313 166.369Z" fill="white"/>
<path opacity="0.1" d="M151.192 209.178L35.3889 240.856L61.9587 338.374L177.762 306.696L151.192 209.178Z" fill="black"/>
<path d="M119.952 240.281L63.2811 255.783L64.7943 261.337L121.465 245.835L119.952 240.281Z" fill="white"/>
<path d="M137.036 249.535L66.812 268.745L68.3253 274.299L138.549 255.089L137.036 249.535Z" fill="white"/>
<path d="M231.615 94.9443L147.844 117.86L159.112 159.215L242.883 136.3L231.615 94.9443Z" fill="#F5F5F5"/>
<path d="M242.548 135.059L158.777 157.974L170.045 199.33L253.816 176.414L242.548 135.059Z" fill="#E0E0E0"/>
<path d="M430.58 40.5208L346.809 63.4363L358.077 104.792L441.847 81.876L430.58 40.5208Z" fill="#F5F5F5"/>
<path d="M441.507 80.6353L357.736 103.551L369.004 144.906L452.774 121.991L441.507 80.6353Z" fill="#E0E0E0"/>
<path d="M330.789 67.8137L247.019 90.7292L258.287 132.084L342.057 109.169L330.789 67.8137Z" fill="#F5F5F5"/>
<path d="M341.718 107.936L257.948 130.851L269.216 172.206L352.986 149.291L341.718 107.936Z" fill="#E0E0E0"/>
<path d="M254.606 188.732L171.243 211.355L182.367 252.509L265.73 229.886L254.606 188.732Z" fill="#E0E0E0"/>
<path d="M268.105 228.877L184.335 251.793L195.602 293.148L279.373 270.232L268.105 228.877Z" fill="#BDBDBD"/>
<path d="M456.135 134.333L372.365 157.249L383.632 198.604L467.403 175.689L456.135 134.333Z" fill="#F5F5F5"/>
<path d="M467.07 174.454L383.299 197.369L394.567 238.724L478.337 215.809L467.07 174.454Z" fill="#BDBDBD"/>
<path d="M356.347 161.632L272.576 184.548L283.844 225.903L367.614 202.987L356.347 161.632Z" fill="#F5F5F5"/>
<path d="M367.28 201.747L283.509 224.662L294.777 266.017L378.547 243.102L367.28 201.747Z" fill="#BDBDBD"/>
<path d="M173.616 163.866C178.719 162.47 181.802 157.47 180.501 152.697C179.201 147.924 174.01 145.186 168.907 146.582C163.804 147.978 160.721 152.979 162.021 157.752C163.322 162.525 168.513 165.262 173.616 163.866Z" fill="url(#paint6_linear)"/>
<path d="M171.271 162.467C175.673 161.272 178.275 156.728 177.083 152.317C175.89 147.907 171.355 145.299 166.953 146.494C162.551 147.689 159.949 152.233 161.141 156.644C162.334 161.054 166.869 163.662 171.271 162.467Z" fill="#007AFF"/>
<path d="M271.559 137.073C276.662 135.677 279.745 130.676 278.444 125.903C277.144 121.131 271.953 118.393 266.849 119.789C261.746 121.185 258.664 126.186 259.964 130.959C261.264 135.732 266.456 138.469 271.559 137.073Z" fill="url(#paint7_linear)"/>
<path d="M271.223 135.842C275.647 134.632 278.254 130.057 277.046 125.625C275.838 121.193 271.273 118.58 266.85 119.79C262.426 121 259.819 125.575 261.027 130.007C262.234 134.439 266.799 137.052 271.223 135.842Z" fill="#007AFF"/>
<path d="M372.581 109.437C377.684 108.041 380.766 103.04 379.466 98.2672C378.166 93.4943 372.975 90.7568 367.871 92.1528C362.768 93.5488 359.685 98.5496 360.986 103.323C362.286 108.095 367.477 110.833 372.581 109.437Z" fill="url(#paint8_linear)"/>
<path d="M372.245 108.205C376.669 106.995 379.276 102.421 378.068 97.9887C376.86 93.5563 372.295 90.9441 367.872 92.1542C363.448 93.3643 360.841 97.9384 362.049 102.371C363.256 106.803 367.821 109.415 372.245 108.205Z" fill="#007AFF"/>
<path d="M199.347 258.298C204.45 256.902 207.532 251.901 206.232 247.129C204.932 242.356 199.74 239.618 194.637 241.014C189.534 242.41 186.451 247.411 187.752 252.184C189.052 256.957 194.243 259.694 199.347 258.298Z" fill="url(#paint9_linear)"/>
<path d="M199.011 257.068C203.435 255.858 206.042 251.284 204.834 246.852C203.626 242.419 199.061 239.807 194.638 241.017C190.214 242.227 187.607 246.801 188.815 251.234C190.022 255.666 194.587 258.278 199.011 257.068Z" fill="#2196F3"/>
<path d="M297.289 231.505C302.392 230.109 305.475 225.108 304.175 220.335C302.874 215.562 297.683 212.825 292.58 214.221C287.477 215.617 284.394 220.618 285.694 225.391C286.995 230.164 292.186 232.901 297.289 231.505Z" fill="url(#paint10_linear)"/>
<path d="M296.948 230.275C301.371 229.065 303.978 224.491 302.771 220.058C301.563 215.626 296.998 213.014 292.574 214.224C288.151 215.434 285.544 220.008 286.752 224.44C287.959 228.873 292.524 231.485 296.948 230.275Z" fill="#2196F3"/>
<path d="M398.305 203.87C403.409 202.474 406.491 197.473 405.191 192.701C403.891 187.928 398.699 185.19 393.596 186.586C388.493 187.982 385.41 192.983 386.711 197.756C388.011 202.529 393.202 205.266 398.305 203.87Z" fill="url(#paint11_linear)"/>
<path d="M397.97 202.639C402.393 201.429 405 196.855 403.793 192.422C402.585 187.99 398.02 185.377 393.596 186.588C389.173 187.798 386.566 192.372 387.773 196.804C388.981 201.237 393.546 203.849 397.97 202.639Z" fill="#2196F3"/>
<path d="M523.425 179.316H67.5187V404.762H523.425V179.316Z" fill="#F5F5F5"/>
<path d="M526 179.036H64.3478V410H526V179.036Z" fill="url(#paint12_linear)"/>
<path d="M523.425 202.071H67.5187V404.619H523.425V202.071Z" fill="white"/>
<path d="M78.3725 196.039C81.5458 196.039 84.1183 193.461 84.1183 190.281C84.1183 187.102 81.5458 184.524 78.3725 184.524C75.1992 184.524 72.6267 187.102 72.6267 190.281C72.6267 193.461 75.1992 196.039 78.3725 196.039Z" fill="#FF5252"/>
<path d="M95.6098 196.039C98.7831 196.039 101.356 193.461 101.356 190.281C101.356 187.102 98.7831 184.524 95.6098 184.524C92.4365 184.524 89.864 187.102 89.864 190.281C89.864 193.461 92.4365 196.039 95.6098 196.039Z" fill="#FFFF00"/>
<path d="M112.853 196.039C116.026 196.039 118.599 193.461 118.599 190.281C118.599 187.102 116.026 184.524 112.853 184.524C109.68 184.524 107.107 187.102 107.107 190.281C107.107 193.461 109.68 196.039 112.853 196.039Z" fill="#69F0AE"/>
<path d="M187.56 201.802H67.5187V404.619H187.56V201.802Z" fill="#007AFF"/>
<path d="M159.487 265.143C159.487 248.361 145.182 234.751 127.563 234.751C109.944 234.751 95.6337 248.355 95.6337 265.143C95.6337 278.318 104.437 289.528 116.751 293.744V285.915C116.751 280.253 121.615 275.625 127.563 275.625C133.524 275.625 138.375 280.253 138.375 285.915V293.744C150.683 289.528 159.487 278.312 159.487 265.143Z" fill="url(#paint13_linear)"/>
<path d="M127.772 270.913H127.343C126.401 270.913 125.638 271.677 125.638 272.621V282.093C125.638 283.036 126.401 283.801 127.343 283.801H127.772C128.713 283.801 129.476 283.036 129.476 282.093V272.621C129.476 271.677 128.713 270.913 127.772 270.913Z" fill="url(#paint14_linear)"/>
<path d="M127.581 272.644C134.359 272.644 139.853 267.414 139.853 260.963C139.853 254.511 134.359 249.281 127.581 249.281C120.803 249.281 115.309 254.511 115.309 260.963C115.309 267.414 120.803 272.644 127.581 272.644Z" fill="url(#paint15_linear)"/>
<path d="M127.563 275.625C121.603 275.625 116.751 280.253 116.751 285.915V293.744C123.761 296.128 131.36 296.128 138.369 293.744V285.915C138.369 280.253 133.506 275.625 127.563 275.625Z" fill="url(#paint16_linear)"/>
<path d="M115.184 260.312C114.202 258.516 113.748 256.479 113.872 254.435C113.949 253.411 114.228 252.412 114.695 251.497C115.162 250.582 115.806 249.77 116.59 249.108C118.378 247.657 120.804 247.143 123.147 246.964C125.489 246.785 127.861 246.892 130.168 246.462C133.962 245.755 137.327 243.582 139.538 240.412C139.767 242.12 139.749 243.852 139.484 245.554C139.338 246.418 139.014 247.241 138.532 247.973C138.051 248.704 137.423 249.326 136.688 249.801C138.554 248.983 138.351 250.906 137.946 252.058C138.87 253.121 141.117 253.294 141.23 254.668C141.416 256.04 141.254 257.437 140.759 258.729C140.193 259.995 140.801 262.229 139.359 262.313" fill="url(#paint17_linear)"/>
<path d="M157.866 260.664C157.865 255.1 156.34 249.642 153.456 244.886C150.572 240.131 146.441 236.259 141.512 233.695C136.584 231.13 131.047 229.971 125.506 230.343C119.965 230.715 114.632 232.604 110.089 235.804C105.546 239.005 101.966 243.393 99.7416 248.492C97.5168 253.591 96.7317 259.203 97.4718 264.718C98.212 270.233 100.449 275.439 103.939 279.767C107.429 284.096 112.038 287.381 117.264 289.265V281.448C117.272 278.721 118.356 276.108 120.28 274.18C122.205 272.252 124.812 271.165 127.533 271.158C130.26 271.158 132.875 272.241 134.806 274.17C136.736 276.099 137.825 278.716 137.833 281.448V289.277C143.704 287.153 148.779 283.265 152.364 278.144C155.949 273.023 157.87 266.919 157.866 260.664Z" fill="#007AFF"/>
<path d="M127.659 266.434H127.42C126.479 266.434 125.715 267.198 125.715 268.142V277.614C125.715 278.557 126.479 279.322 127.42 279.322H127.659C128.6 279.322 129.363 278.557 129.363 277.614V268.142C129.363 267.198 128.6 266.434 127.659 266.434Z" fill="white" stroke="white" stroke-width="0.59651" stroke-miterlimit="10"/>
<path d="M127.557 268.165C133.996 268.165 139.216 262.935 139.216 256.484C139.216 250.032 133.996 244.802 127.557 244.802C121.118 244.802 115.899 250.032 115.899 256.484C115.899 262.935 121.118 268.165 127.557 268.165Z" fill="white" stroke="white" stroke-width="0.59651" stroke-miterlimit="10"/>
<path d="M127.539 271.146C124.816 271.153 122.207 272.242 120.282 274.172C118.358 276.103 117.274 278.719 117.27 281.448V289.277C123.909 291.661 131.169 291.661 137.809 289.277V281.448C137.804 278.719 136.721 276.103 134.797 274.172C132.872 272.242 130.263 271.153 127.539 271.146Z" fill="white" stroke="white" stroke-width="0.59651" stroke-miterlimit="10"/>
<path d="M115.78 255.839C114.845 254.028 114.415 251.997 114.534 249.962C114.67 247.916 115.598 246.004 117.121 244.635C118.819 243.184 121.12 242.67 123.343 242.491C125.566 242.312 127.819 242.419 130.013 241.989C131.823 241.622 133.542 240.898 135.071 239.86C136.6 238.821 137.907 237.488 138.918 235.939C139.137 237.647 139.121 239.378 138.87 241.081C138.738 241.933 138.435 242.749 137.978 243.479C137.521 244.209 136.92 244.838 136.212 245.328C138 244.509 137.791 246.432 137.404 247.585C138.28 248.648 140.384 248.821 140.521 250.195C140.698 251.565 140.545 252.958 140.074 254.256C139.538 255.522 140.11 257.756 138.745 257.839" fill="white"/>
<path d="M115.78 255.839C114.845 254.028 114.415 251.997 114.534 249.962C114.67 247.916 115.598 246.004 117.121 244.635C118.819 243.184 121.12 242.67 123.343 242.491C125.566 242.312 127.819 242.419 130.013 241.989C131.823 241.622 133.542 240.898 135.071 239.86C136.6 238.821 137.907 237.488 138.918 235.939C139.137 237.647 139.121 239.378 138.87 241.081C138.738 241.933 138.435 242.749 137.978 243.479C137.521 244.209 136.92 244.838 136.212 245.328C138 244.509 137.791 246.432 137.404 247.585C138.28 248.648 140.384 248.821 140.521 250.195C140.698 251.565 140.545 252.958 140.074 254.256C139.538 255.522 140.11 257.756 138.745 257.839" stroke="white" stroke-width="0.59651" stroke-miterlimit="10"/>
<path d="M136.873 245.017C136.873 245.017 145.009 245.728 139.216 257.828L136.873 245.017Z" fill="white"/>
<path opacity="0.1" d="M187.238 303.21H67.1969V404.297H187.238V303.21Z" fill="black"/>
<path d="M148.931 324.961H90.1859V330.719H148.931V324.961Z" fill="white"/>
<path d="M291.318 236.029H232.572V241.786H291.318V236.029Z" fill="#BDBDBD"/>
<path d="M442.645 270.578H232.572V276.335H442.645V270.578Z" fill="#E0E0E0"/>
<path d="M442.645 305.128H232.572V310.885H442.645V305.128Z" fill="#E0E0E0"/>
<path d="M291.318 339.677H232.572V345.434H291.318V339.677Z" fill="#64FFDA"/>
<path d="M366.662 339.677H307.917V345.434H366.662V339.677Z" fill="#F5F5F5"/>
<path d="M442.651 339.677H383.906V345.434H442.651V339.677Z" fill="#64FFDA"/>
<path d="M162.98 338.399H90.1859V344.156H162.98V338.399Z" fill="white"/>
</g>
<defs>
<linearGradient id="paint0_linear" x1="283.383" y1="283.725" x2="222.449" y2="60.9769" gradientUnits="userSpaceOnUse">
<stop stop-color="#808080" stop-opacity="0.25"/>
<stop offset="0.54" stop-color="#808080" stop-opacity="0.12"/>
<stop offset="1" stop-color="#808080" stop-opacity="0.1"/>
</linearGradient>
<linearGradient id="paint1_linear" x1="91.1305" y1="215.801" x2="75.5684" y2="158.912" gradientUnits="userSpaceOnUse">
<stop stop-opacity="0.12"/>
<stop offset="0.55" stop-opacity="0.09"/>
<stop offset="1" stop-opacity="0.02"/>
</linearGradient>
<linearGradient id="paint2_linear" x1="-112.387" y1="3748.59" x2="-185.762" y2="3480.36" gradientUnits="userSpaceOnUse">
<stop stop-opacity="0.12"/>
<stop offset="0.55" stop-opacity="0.09"/>
<stop offset="1" stop-opacity="0.02"/>
</linearGradient>
<linearGradient id="paint3_linear" x1="-7585.81" y1="8063.69" x2="-7826.94" y2="7182.22" gradientUnits="userSpaceOnUse">
<stop stop-opacity="0.12"/>
<stop offset="0.55" stop-opacity="0.09"/>
<stop offset="1" stop-opacity="0.02"/>
</linearGradient>
<linearGradient id="paint4_linear" x1="-9275.5" y1="5863.73" x2="-9275.5" y2="5170.37" gradientUnits="userSpaceOnUse">
<stop stop-opacity="0.12"/>
<stop offset="0.55" stop-opacity="0.09"/>
<stop offset="1" stop-opacity="0.02"/>
</linearGradient>
<linearGradient id="paint5_linear" x1="-10968.1" y1="5715.8" x2="-10968.1" y2="4775.73" gradientUnits="userSpaceOnUse">
<stop stop-opacity="0.12"/>
<stop offset="0.55" stop-opacity="0.09"/>
<stop offset="1" stop-opacity="0.02"/>
</linearGradient>
<linearGradient id="paint6_linear" x1="162.021" y1="157.752" x2="180.507" y2="152.715" gradientUnits="userSpaceOnUse">
<stop stop-opacity="0.09"/>
<stop offset="0.55" stop-opacity="0.07"/>
<stop offset="1" stop-opacity="0.02"/>
</linearGradient>
<linearGradient id="paint7_linear" x1="-48.4628" y1="4121.59" x2="545.655" y2="3959.72" gradientUnits="userSpaceOnUse">
<stop stop-opacity="0.09"/>
<stop offset="0.55" stop-opacity="0.07"/>
<stop offset="1" stop-opacity="0.02"/>
</linearGradient>
<linearGradient id="paint8_linear" x1="3288.51" y1="3180.11" x2="3882.63" y2="3018.24" gradientUnits="userSpaceOnUse">
<stop stop-opacity="0.09"/>
<stop offset="0.55" stop-opacity="0.07"/>
<stop offset="1" stop-opacity="0.02"/>
</linearGradient>
<linearGradient id="paint9_linear" x1="-2462.1" y1="7951.71" x2="-1867.98" y2="7789.83" gradientUnits="userSpaceOnUse">
<stop stop-opacity="0.09"/>
<stop offset="0.55" stop-opacity="0.07"/>
<stop offset="1" stop-opacity="0.02"/>
</linearGradient>
<linearGradient id="paint10_linear" x1="773.073" y1="7038.95" x2="1367.19" y2="6877.08" gradientUnits="userSpaceOnUse">
<stop stop-opacity="0.09"/>
<stop offset="0.55" stop-opacity="0.07"/>
<stop offset="1" stop-opacity="0.02"/>
</linearGradient>
<linearGradient id="paint11_linear" x1="4110.05" y1="6097.47" x2="4704.17" y2="5935.6" gradientUnits="userSpaceOnUse">
<stop stop-opacity="0.09"/>
<stop offset="0.55" stop-opacity="0.07"/>
<stop offset="1" stop-opacity="0.02"/>
</linearGradient>
<linearGradient id="paint12_linear" x1="228688" y1="158738" x2="228688" y2="69417.5" gradientUnits="userSpaceOnUse">
<stop stop-color="#808080" stop-opacity="0.25"/>
<stop offset="0.54" stop-color="#808080" stop-opacity="0.12"/>
<stop offset="1" stop-color="#808080" stop-opacity="0.1"/>
</linearGradient>
<linearGradient id="paint13_linear" x1="23898.2" y1="35547.8" x2="23898.2" y2="29720.4" gradientUnits="userSpaceOnUse">
<stop stop-opacity="0.12"/>
<stop offset="0.55" stop-opacity="0.09"/>
<stop offset="1" stop-opacity="0.02"/>
</linearGradient>
<linearGradient id="paint14_linear" x1="947.146" y1="6395.22" x2="947.146" y2="6117.22" gradientUnits="userSpaceOnUse">
<stop stop-opacity="0.12"/>
<stop offset="0.55" stop-opacity="0.09"/>
<stop offset="1" stop-opacity="0.02"/>
</linearGradient>
<linearGradient id="paint15_linear" x1="5369.1" y1="10914.9" x2="5369.1" y2="10001.2" gradientUnits="userSpaceOnUse">
<stop stop-opacity="0.12"/>
<stop offset="0.55" stop-opacity="0.09"/>
<stop offset="1" stop-opacity="0.02"/>
</linearGradient>
<linearGradient id="paint16_linear" x1="8175.34" y1="12251.6" x2="8175.34" y2="11588.1" gradientUnits="userSpaceOnUse">
<stop stop-opacity="0.12"/>
<stop offset="0.55" stop-opacity="0.09"/>
<stop offset="1" stop-opacity="0.02"/>
</linearGradient>
<linearGradient id="paint17_linear" x1="10348.6" y1="12197.7" x2="10348.6" y2="11394" gradientUnits="userSpaceOnUse">
<stop stop-opacity="0.12"/>
<stop offset="0.55" stop-opacity="0.09"/>
<stop offset="1" stop-opacity="0.02"/>
</linearGradient>
<clipPath id="clip0">
<rect width="526" height="410" fill="white"/>
</clipPath>
</defs>
</svg>
