<svg width="510" height="403" viewBox="0 0 510 403" fill="none" xmlns="http://www.w3.org/2000/svg">
<g clip-path="url(#clip0)">
<path d="M510 0H21.7339V322.866H510V0Z" fill="url(#paint0_linear)"/>
<path d="M504.507 38.1458H26.0063V313.101H504.507V38.1458Z" fill="white"/>
<path d="M504.507 6.71362H26.0063V38.1458H504.507V6.71362Z" fill="#262265"/>
<path d="M499.014 57.9816H32.7199V297.842H499.014V57.9816Z" fill="url(#paint1_linear)"/>
<path opacity="0.5" d="M94.6687 62.2539H38.5181V107.113H94.6687V62.2539Z" fill="#262265"/>
<path d="M151.43 62.2539H95.279V107.113H151.43V62.2539Z" fill="white"/>
<path opacity="0.2" d="M208.191 62.2539H152.04V107.113H208.191V62.2539Z" fill="#262265"/>
<path d="M264.951 62.2539H208.801V107.113H264.951V62.2539Z" fill="white"/>
<path d="M321.712 62.2539H265.562V107.113H321.712V62.2539Z" fill="white"/>
<path opacity="0.5" d="M378.473 62.2539H322.323V107.113H378.473V62.2539Z" fill="#262265"/>
<path d="M435.234 62.2539H379.084V107.113H435.234V62.2539Z" fill="white"/>
<path opacity="0.2" d="M491.995 62.2539H435.845V107.113H491.995V62.2539Z" fill="#262265"/>
<path opacity="0.2" d="M94.6687 108.029H38.5181V152.888H94.6687V108.029Z" fill="#262265"/>
<path opacity="0.2" d="M151.43 108.029H95.279V152.888H151.43V108.029Z" fill="#262265"/>
<path d="M208.191 108.029H152.04V152.888H208.191V108.029Z" fill="white"/>
<path opacity="0.5" d="M264.951 108.029H208.801V152.888H264.951V108.029Z" fill="#262265"/>
<path d="M321.712 108.029H265.562V152.888H321.712V108.029Z" fill="white"/>
<path opacity="0.2" d="M378.473 108.029H322.323V152.888H378.473V108.029Z" fill="#262265"/>
<path opacity="0.5" d="M435.234 108.029H379.084V152.888H435.234V108.029Z" fill="#262265"/>
<path d="M491.995 108.029H435.845V152.888H491.995V108.029Z" fill="white"/>
<path d="M94.6687 153.193H38.5181V198.053H94.6687V153.193Z" fill="white"/>
<path d="M151.43 153.193H95.279V198.053H151.43V153.193Z" fill="white"/>
<path opacity="0.2" d="M208.191 153.193H152.04V198.053H208.191V153.193Z" fill="#262265"/>
<path d="M264.951 153.193H208.801V198.053H264.951V153.193Z" fill="white"/>
<path opacity="0.2" d="M321.712 153.193H265.562V198.053H321.712V153.193Z" fill="#262265"/>
<path d="M378.473 153.193H322.323V198.053H378.473V153.193Z" fill="white"/>
<path d="M435.234 153.193H379.084V198.053H435.234V153.193Z" fill="white"/>
<path opacity="0.2" d="M491.995 153.193H435.845V198.053H491.995V153.193Z" fill="#262265"/>
<path d="M94.6687 198.358H38.5181V243.218H94.6687V198.358Z" fill="white"/>
<path opacity="0.5" d="M151.43 198.358H95.279V243.218H151.43V198.358Z" fill="#262265"/>
<path opacity="0.5" d="M208.191 198.358H152.04V243.218H208.191V198.358Z" fill="#262265"/>
<path d="M264.951 198.358H208.801V243.218H264.951V198.358Z" fill="white"/>
<path d="M321.712 198.358H265.562V243.218H321.712V198.358Z" fill="white"/>
<path opacity="0.5" d="M378.473 198.358H322.323V243.218H378.473V198.358Z" fill="#262265"/>
<path d="M435.234 198.358H379.084V243.218H435.234V198.358Z" fill="white"/>
<path opacity="0.5" d="M491.995 198.358H435.845V243.218H491.995V198.358Z" fill="#262265"/>
<path opacity="0.5" d="M94.6687 244.133H38.5181V288.992H94.6687V244.133Z" fill="#262265"/>
<path opacity="0.2" d="M151.43 244.133H95.279V288.992H151.43V244.133Z" fill="#262265"/>
<path d="M208.191 244.133H152.04V288.992H208.191V244.133Z" fill="white"/>
<path opacity="0.5" d="M264.951 244.133H208.801V288.992H264.951V244.133Z" fill="#262265"/>
<path opacity="0.2" d="M321.712 244.133H265.562V288.992H321.712V244.133Z" fill="#262265"/>
<path d="M378.473 244.133H322.323V288.992H378.473V244.133Z" fill="white"/>
<path opacity="0.2" d="M435.234 244.133H379.084V288.992H435.234V244.133Z" fill="#262265"/>
<path d="M491.995 244.133H435.845V288.992H491.995V244.133Z" fill="white"/>
<path d="M60.1849 157.466H43.0956V174.555H60.1849V157.466Z" fill="#69F0AE"/>
<path d="M229.857 67.1366H212.768V84.2259H229.857V67.1366Z" fill="#69F0AE"/>
<path d="M228.026 157.466H210.937V174.555H228.026V157.466Z" fill="#69F0AE"/>
<path d="M286.008 200.799H268.919V217.889H286.008V200.799Z" fill="#69F0AE"/>
<path d="M398.919 157.466H381.83V174.555H398.919V157.466Z" fill="#69F0AE"/>
<path d="M104.703 402.85C162.528 402.85 209.405 355.973 209.405 298.147C209.405 240.322 162.528 193.445 104.703 193.445C46.8769 193.445 0 240.322 0 298.147C0 355.973 46.8769 402.85 104.703 402.85Z" fill="url(#paint2_linear)"/>
<path d="M104.703 400.024C160.967 400.024 206.579 354.412 206.579 298.147C206.579 241.883 160.967 196.271 104.703 196.271C48.4376 196.271 2.82584 241.883 2.82584 298.147C2.82584 354.412 48.4376 400.024 104.703 400.024Z" fill="#262265"/>
<path d="M104.703 380.921C150.417 380.921 187.476 343.862 187.476 298.147C187.476 252.433 150.417 215.374 104.703 215.374C58.9881 215.374 21.9292 252.433 21.9292 298.147C21.9292 343.862 58.9881 380.921 104.703 380.921Z" fill="white"/>
<path d="M104.703 303.097C107.436 303.097 109.652 300.881 109.652 298.148C109.652 295.414 107.436 293.198 104.703 293.198C101.969 293.198 99.7527 295.414 99.7527 298.148C99.7527 300.881 101.969 303.097 104.703 303.097Z" fill="url(#paint3_linear)"/>
<path d="M106.57 298.758L103.518 297.732L130.983 233.452L134.035 234.886L106.57 298.758Z" fill="url(#paint4_linear)"/>
<path d="M131.31 234.043L104.427 297.714L106.384 298.54L133.266 234.869L131.31 234.043Z" fill="#2196F3"/>
<path d="M121.828 332.326L104.129 299.368L106.57 298.147L124.88 330.495L121.828 332.326Z" fill="url(#paint5_linear)"/>
<path d="M106.334 298.368L104.467 299.382L122.153 331.928L124.02 330.914L106.334 298.368Z" fill="#2196F3"/>
<path d="M181.818 302.395C182.991 302.395 183.942 301.444 183.942 300.271C183.942 299.098 182.991 298.147 181.818 298.147C180.645 298.147 179.694 299.098 179.694 300.271C179.694 301.444 180.645 302.395 181.818 302.395Z" fill="#262265"/>
<path d="M40.6669 261.391C41.4287 260.072 40.9766 258.384 39.6571 257.623C38.3376 256.861 36.6504 257.313 35.8886 258.632C35.1268 259.952 35.5789 261.639 36.8984 262.401C38.2179 263.163 39.9051 262.711 40.6669 261.391Z" fill="url(#paint6_linear)"/>
<path d="M40.363 340.927C41.6825 340.165 42.1346 338.478 41.3728 337.158C40.611 335.839 38.9238 335.387 37.6044 336.149C36.2849 336.911 35.8328 338.598 36.5946 339.917C37.3564 341.237 39.0436 341.689 40.363 340.927Z" fill="url(#paint7_linear)"/>
<path d="M27.5931 303.03C29.1167 303.03 30.3519 301.795 30.3519 300.271C30.3519 298.748 29.1167 297.513 27.5931 297.513C26.0696 297.513 24.8344 298.748 24.8344 300.271C24.8344 301.795 26.0696 303.03 27.5931 303.03Z" fill="url(#paint8_linear)"/>
<path d="M67.8098 234.103C69.1293 233.341 69.5814 231.654 68.8196 230.335C68.0578 229.015 66.3706 228.563 65.0511 229.325C63.7316 230.087 63.2795 231.774 64.0413 233.093C64.8031 234.413 66.4903 234.865 67.8098 234.103Z" fill="url(#paint9_linear)"/>
<path d="M106.013 224.203C107.333 223.441 107.785 221.754 107.023 220.434C106.261 219.115 104.574 218.663 103.255 219.424C101.935 220.186 101.483 221.873 102.245 223.193C103.007 224.512 104.694 224.964 106.013 224.203Z" fill="url(#paint10_linear)"/>
<path d="M144.216 234.106C145.535 233.345 145.987 231.657 145.226 230.338C144.464 229.018 142.777 228.566 141.457 229.328C140.138 230.09 139.686 231.777 140.447 233.097C141.209 234.416 142.896 234.868 144.216 234.106Z" fill="url(#paint11_linear)"/>
<path d="M172.513 262.406C173.833 261.644 174.285 259.957 173.523 258.638C172.761 257.318 171.074 256.866 169.755 257.628C168.435 258.39 167.983 260.077 168.745 261.396C169.507 262.716 171.194 263.168 172.513 262.406Z" fill="url(#paint12_linear)"/>
<path d="M171.809 340.933C173.128 340.171 173.58 338.484 172.818 337.165C172.057 335.845 170.369 335.393 169.05 336.155C167.731 336.917 167.278 338.604 168.04 339.923C168.802 341.243 170.489 341.695 171.809 340.933Z" fill="url(#paint13_linear)"/>
<path d="M142.8 368.522C144.12 367.76 144.572 366.073 143.81 364.753C143.048 363.434 141.361 362.982 140.042 363.744C138.722 364.505 138.27 366.193 139.032 367.512C139.794 368.832 141.481 369.284 142.8 368.522Z" fill="url(#paint14_linear)"/>
<path d="M106.01 377.016C107.33 376.254 107.782 374.567 107.02 373.247C106.258 371.928 104.571 371.476 103.252 372.237C101.932 372.999 101.48 374.686 102.242 376.006C103.004 377.325 104.691 377.777 106.01 377.016Z" fill="url(#paint15_linear)"/>
<path d="M69.2253 368.525C70.5447 367.763 70.9968 366.076 70.235 364.756C69.4732 363.437 67.786 362.985 66.4666 363.747C65.1471 364.508 64.695 366.196 65.4568 367.515C66.2186 368.835 67.9058 369.287 69.2253 368.525Z" fill="url(#paint16_linear)"/>
<path d="M104.703 223.864C105.876 223.864 106.827 222.913 106.827 221.74C106.827 220.567 105.876 219.616 104.703 219.616C103.53 219.616 102.579 220.567 102.579 221.74C102.579 222.913 103.53 223.864 104.703 223.864Z" fill="#69F0AE"/>
<path d="M144.745 233.037C145.332 232.021 144.984 230.722 143.968 230.135C142.952 229.549 141.653 229.897 141.067 230.913C140.48 231.928 140.828 233.227 141.844 233.814C142.86 234.4 144.159 234.052 144.745 233.037Z" fill="#69F0AE"/>
<path d="M171.932 261.784C172.948 261.197 173.296 259.898 172.71 258.882C172.123 257.867 170.824 257.518 169.808 258.105C168.792 258.692 168.444 259.991 169.031 261.006C169.617 262.022 170.916 262.37 171.932 261.784Z" fill="#69F0AE"/>
<path d="M172.267 339.601C172.854 338.585 172.506 337.286 171.49 336.7C170.474 336.113 169.175 336.461 168.588 337.477C168.002 338.493 168.35 339.792 169.366 340.379C170.382 340.965 171.681 340.617 172.267 339.601Z" fill="#69F0AE"/>
<path d="M142.483 367.827C143.499 367.24 143.847 365.942 143.261 364.926C142.674 363.91 141.375 363.562 140.359 364.148C139.343 364.735 138.995 366.034 139.582 367.05C140.168 368.065 141.467 368.414 142.483 367.827Z" fill="#69F0AE"/>
<path d="M67.5597 233.82C68.5756 233.234 68.9236 231.935 68.3371 230.919C67.7506 229.903 66.4516 229.555 65.4357 230.142C64.4199 230.728 64.0718 232.027 64.6583 233.043C65.2449 234.059 66.5438 234.407 67.5597 233.82Z" fill="#69F0AE"/>
<path d="M40.3764 261.007C40.9629 259.992 40.6148 258.693 39.599 258.106C38.5831 257.52 37.2841 257.868 36.6976 258.884C36.1111 259.899 36.4591 261.198 37.475 261.785C38.4909 262.371 39.7899 262.023 40.3764 261.007Z" fill="#69F0AE"/>
<path d="M183.13 302.733C184.45 301.971 184.902 300.284 184.14 298.964C183.378 297.645 181.691 297.193 180.372 297.954C179.052 298.716 178.6 300.403 179.362 301.723C180.124 303.042 181.811 303.494 183.13 302.733Z" fill="#69F0AE"/>
<path d="M40.0457 340.377C41.0615 339.791 41.4096 338.492 40.8231 337.476C40.2366 336.46 38.9376 336.112 37.9217 336.698C36.9058 337.285 36.5578 338.584 37.1443 339.6C37.7308 340.616 39.0298 340.964 40.0457 340.377Z" fill="#69F0AE"/>
<path d="M69.823 367.052C70.4095 366.037 70.0615 364.738 69.0456 364.151C68.0298 363.564 66.7308 363.913 66.1442 364.928C65.5577 365.944 65.9058 367.243 66.9217 367.83C67.9375 368.416 69.2365 368.068 69.823 367.052Z" fill="#69F0AE"/>
<path d="M27.5931 302.395C28.7662 302.395 29.7171 301.444 29.7171 300.271C29.7171 299.098 28.7662 298.147 27.5931 298.147C26.4201 298.147 25.4692 299.098 25.4692 300.271C25.4692 301.444 26.4201 302.395 27.5931 302.395Z" fill="#69F0AE"/>
<path d="M104.703 376.673C105.876 376.673 106.827 375.722 106.827 374.549C106.827 373.376 105.876 372.425 104.703 372.425C103.53 372.425 102.579 373.376 102.579 374.549C102.579 375.722 103.53 376.673 104.703 376.673Z" fill="#69F0AE"/>
<path opacity="0.2" d="M26.1772 305.929C26.1826 287.689 32.2118 269.962 43.3279 255.501C54.4441 241.04 70.025 230.655 87.65 225.959C105.275 221.263 123.958 222.52 140.795 229.533C157.633 236.547 171.683 248.925 180.762 264.744C176.307 254.394 169.785 245.063 161.598 237.322C153.41 229.581 143.728 223.593 133.145 219.725C122.562 215.856 111.301 214.189 100.051 214.825C88.8014 215.461 77.7998 218.387 67.7202 223.423C57.6407 228.46 48.6953 235.501 41.4321 244.115C34.1689 252.73 28.7408 262.736 25.48 273.522C22.2193 284.307 21.1947 295.645 22.469 306.841C23.7433 318.036 27.2896 328.854 32.8908 338.631C28.4476 328.302 26.163 317.173 26.1772 305.929Z" fill="#262265"/>
<path d="M104.703 301.687C106.658 301.687 108.242 300.102 108.242 298.147C108.242 296.192 106.658 294.607 104.703 294.607C102.748 294.607 101.163 296.192 101.163 298.147C101.163 300.102 102.748 301.687 104.703 301.687Z" fill="#69F0AE"/>
</g>
<defs>
<linearGradient id="paint0_linear" x1="265.867" y1="322.866" x2="265.867" y2="0" gradientUnits="userSpaceOnUse">
<stop stop-color="#808080" stop-opacity="0.25"/>
<stop offset="0.54" stop-color="#808080" stop-opacity="0.12"/>
<stop offset="1" stop-color="#808080" stop-opacity="0.1"/>
</linearGradient>
<linearGradient id="paint1_linear" x1="203155" y1="117110" x2="203155" y2="22844.8" gradientUnits="userSpaceOnUse">
<stop stop-color="#808080" stop-opacity="0.25"/>
<stop offset="0.54" stop-color="#808080" stop-opacity="0.12"/>
<stop offset="1" stop-color="#808080" stop-opacity="0.1"/>
</linearGradient>
<linearGradient id="paint2_linear" x1="35923.4" y1="138411" x2="35923.4" y2="66564.4" gradientUnits="userSpaceOnUse">
<stop stop-color="#808080" stop-opacity="0.25"/>
<stop offset="0.54" stop-color="#808080" stop-opacity="0.12"/>
<stop offset="1" stop-color="#808080" stop-opacity="0.1"/>
</linearGradient>
<linearGradient id="paint3_linear" x1="1798.03" y1="5209.44" x2="1798.03" y2="5048.77" gradientUnits="userSpaceOnUse">
<stop stop-color="#808080" stop-opacity="0.25"/>
<stop offset="0.54" stop-color="#808080" stop-opacity="0.12"/>
<stop offset="1" stop-color="#808080" stop-opacity="0.1"/>
</linearGradient>
<linearGradient id="paint4_linear" x1="6042.36" y1="32200.5" x2="6042.36" y2="25212.8" gradientUnits="userSpaceOnUse">
<stop stop-color="#808080" stop-opacity="0.25"/>
<stop offset="0.54" stop-color="#808080" stop-opacity="0.12"/>
<stop offset="1" stop-color="#808080" stop-opacity="0.1"/>
</linearGradient>
<linearGradient id="paint5_linear" x1="3997.28" y1="18908.4" x2="3997.28" y2="16994.4" gradientUnits="userSpaceOnUse">
<stop stop-color="#808080" stop-opacity="0.25"/>
<stop offset="0.54" stop-color="#808080" stop-opacity="0.12"/>
<stop offset="1" stop-color="#808080" stop-opacity="0.1"/>
</linearGradient>
<linearGradient id="paint6_linear" x1="-2236.74" y1="4630.06" x2="-2193.59" y2="4605.15" gradientUnits="userSpaceOnUse">
<stop stop-color="#808080" stop-opacity="0.25"/>
<stop offset="0.54" stop-color="#808080" stop-opacity="0.12"/>
<stop offset="1" stop-color="#808080" stop-opacity="0.1"/>
</linearGradient>
<linearGradient id="paint7_linear" x1="1393.89" y1="4083.01" x2="1393.89" y2="4033.18" gradientUnits="userSpaceOnUse">
<stop stop-color="#808080" stop-opacity="0.25"/>
<stop offset="0.54" stop-color="#808080" stop-opacity="0.12"/>
<stop offset="1" stop-color="#808080" stop-opacity="0.1"/>
</linearGradient>
<linearGradient id="paint8_linear" x1="-431.782" y1="4722.27" x2="-406.844" y2="4679.08" gradientUnits="userSpaceOnUse">
<stop stop-color="#808080" stop-opacity="0.25"/>
<stop offset="0.54" stop-color="#808080" stop-opacity="0.12"/>
<stop offset="1" stop-color="#808080" stop-opacity="0.1"/>
</linearGradient>
<linearGradient id="paint9_linear" x1="-3769.05" y1="3564.93" x2="-3719.17" y2="3564.93" gradientUnits="userSpaceOnUse">
<stop stop-color="#808080" stop-opacity="0.25"/>
<stop offset="0.54" stop-color="#808080" stop-opacity="0.12"/>
<stop offset="1" stop-color="#808080" stop-opacity="0.1"/>
</linearGradient>
<linearGradient id="paint10_linear" x1="-3413.82" y1="3513.63" x2="-3363.94" y2="3513.63" gradientUnits="userSpaceOnUse">
<stop stop-color="#808080" stop-opacity="0.25"/>
<stop offset="0.54" stop-color="#808080" stop-opacity="0.12"/>
<stop offset="1" stop-color="#808080" stop-opacity="0.1"/>
</linearGradient>
<linearGradient id="paint11_linear" x1="-3078.33" y1="3641.35" x2="-3028.51" y2="3641.35" gradientUnits="userSpaceOnUse">
<stop stop-color="#808080" stop-opacity="0.25"/>
<stop offset="0.54" stop-color="#808080" stop-opacity="0.12"/>
<stop offset="1" stop-color="#808080" stop-opacity="0.1"/>
</linearGradient>
<linearGradient id="paint12_linear" x1="-2850.82" y1="3925.47" x2="-2800.95" y2="3925.47" gradientUnits="userSpaceOnUse">
<stop stop-color="#808080" stop-opacity="0.25"/>
<stop offset="0.54" stop-color="#808080" stop-opacity="0.12"/>
<stop offset="1" stop-color="#808080" stop-opacity="0.1"/>
</linearGradient>
<linearGradient id="paint13_linear" x1="-2935.77" y1="4634.64" x2="-2885.89" y2="4634.64" gradientUnits="userSpaceOnUse">
<stop stop-color="#808080" stop-opacity="0.25"/>
<stop offset="0.54" stop-color="#808080" stop-opacity="0.12"/>
<stop offset="1" stop-color="#808080" stop-opacity="0.1"/>
</linearGradient>
<linearGradient id="paint14_linear" x1="-3225.54" y1="4855.07" x2="-3175.72" y2="4855.07" gradientUnits="userSpaceOnUse">
<stop stop-color="#808080" stop-opacity="0.25"/>
<stop offset="0.54" stop-color="#808080" stop-opacity="0.12"/>
<stop offset="1" stop-color="#808080" stop-opacity="0.1"/>
</linearGradient>
<linearGradient id="paint15_linear" x1="-3566.63" y1="4895.04" x2="-3516.76" y2="4895.04" gradientUnits="userSpaceOnUse">
<stop stop-color="#808080" stop-opacity="0.25"/>
<stop offset="0.54" stop-color="#808080" stop-opacity="0.12"/>
<stop offset="1" stop-color="#808080" stop-opacity="0.1"/>
</linearGradient>
<linearGradient id="paint16_linear" x1="-3890.67" y1="4781.52" x2="-3840.84" y2="4781.52" gradientUnits="userSpaceOnUse">
<stop stop-color="#808080" stop-opacity="0.25"/>
<stop offset="0.54" stop-color="#808080" stop-opacity="0.12"/>
<stop offset="1" stop-color="#808080" stop-opacity="0.1"/>
</linearGradient>
<clipPath id="clip0">
<rect width="510" height="402.85" fill="white"/>
</clipPath>
</defs>
</svg>
