<svg width="555" height="453" viewBox="0 0 555 453" fill="none" xmlns="http://www.w3.org/2000/svg">
<g clip-path="url(#clip0)">
<path opacity="0.1" d="M471.282 389.515C475.406 385.393 470.633 373.938 460.622 363.93C450.61 353.923 439.151 349.151 435.027 353.274C430.903 357.396 435.676 368.851 445.688 378.858C455.699 388.866 467.158 393.637 471.282 389.515Z" fill="#007AFF"/>
<path d="M454.969 373.067C458.1 373.067 460.637 369.746 460.637 365.648C460.637 361.551 458.1 358.229 454.969 358.229C451.839 358.229 449.301 361.551 449.301 365.648C449.301 369.746 451.839 373.067 454.969 373.067Z" fill="#3F3D56"/>
<path d="M454.969 364C458.1 364 460.637 360.679 460.637 356.581C460.637 352.484 458.1 349.162 454.969 349.162C451.839 349.162 449.301 352.484 449.301 356.581C449.301 360.679 451.839 364 454.969 364Z" fill="#3F3D56"/>
<path d="M454.969 354.934C458.1 354.934 460.637 351.612 460.637 347.515C460.637 343.417 458.1 340.096 454.969 340.096C451.839 340.096 449.301 343.417 449.301 347.515C449.301 351.612 451.839 354.934 454.969 354.934Z" fill="#3F3D56"/>
<path d="M454.969 345.867C458.1 345.867 460.637 342.545 460.637 338.448C460.637 334.35 458.1 331.029 454.969 331.029C451.839 331.029 449.301 334.35 449.301 338.448C449.301 342.545 451.839 345.867 454.969 345.867Z" fill="#3F3D56"/>
<path d="M454.969 336.801C458.1 336.801 460.637 333.479 460.637 329.382C460.637 325.284 458.1 321.962 454.969 321.962C451.839 321.962 449.301 325.284 449.301 329.382C449.301 333.479 451.839 336.801 454.969 336.801Z" fill="#3F3D56"/>
<path d="M454.969 327.734C458.1 327.734 460.637 324.412 460.637 320.315C460.637 316.217 458.1 312.896 454.969 312.896C451.839 312.896 449.301 316.217 449.301 320.315C449.301 324.412 451.839 327.734 454.969 327.734Z" fill="#3F3D56"/>
<path d="M454.969 318.667C458.1 318.667 460.637 315.345 460.637 311.248C460.637 307.15 458.1 303.829 454.969 303.829C451.839 303.829 449.301 307.15 449.301 311.248C449.301 315.345 451.839 318.667 454.969 318.667Z" fill="#3F3D56"/>
<path d="M476.189 249.201C476.965 248.217 477.671 247.179 478.302 246.096L463.405 243.652L479.517 243.768C481.063 240.407 481.907 236.766 481.998 233.068C482.088 229.37 481.424 225.693 480.045 222.26L458.435 233.471L478.355 218.822C476.489 215.594 473.978 212.784 470.977 210.568C467.977 208.352 464.553 206.778 460.917 205.943C457.281 205.109 453.513 205.032 449.846 205.718C446.179 206.403 442.693 207.837 439.605 209.929C436.517 212.02 433.893 214.726 431.897 217.876C429.901 221.026 428.576 224.553 428.003 228.238C427.431 231.923 427.625 235.686 428.571 239.292C429.518 242.899 431.198 246.272 433.506 249.201C432.299 250.734 431.261 252.393 430.411 254.149L449.745 264.182L429.143 257.265C427.696 261.543 427.339 266.113 428.104 270.564C428.868 275.014 430.731 279.204 433.522 282.754C430.372 286.758 428.412 291.566 427.867 296.631C427.322 301.695 428.214 306.811 430.44 311.393C432.666 315.974 436.137 319.837 440.456 322.54C444.775 325.243 449.768 326.676 454.864 326.676C459.959 326.676 464.952 325.243 469.271 322.54C473.59 319.837 477.061 315.974 479.287 311.393C481.514 306.811 482.405 301.695 481.86 296.631C481.315 291.566 479.355 286.758 476.205 282.754C479.969 277.969 482.015 272.059 482.015 265.972C482.015 259.886 479.969 253.975 476.205 249.191L476.189 249.201Z" fill="#007AFF"/>
<path opacity="0.1" d="M427.696 265.983C427.685 272.072 429.733 277.985 433.506 282.765C430.356 286.768 428.396 291.577 427.851 296.641C427.306 301.706 428.198 306.821 430.424 311.403C432.65 315.985 436.121 319.848 440.44 322.551C444.76 325.253 449.752 326.687 454.848 326.687C459.943 326.687 464.936 325.253 469.255 322.551C473.574 319.848 477.045 315.985 479.271 311.403C481.498 306.821 482.389 301.706 481.844 296.641C481.299 291.577 479.339 286.768 476.189 282.765C479.829 278.149 427.696 262.936 427.696 265.983Z" fill="black"/>
<path d="M441.414 -7V373.199L312.521 355.245L155.835 387.198L154.573 387.457L29.9053 353.133V22.5711L159.327 -7L300.899 22.5711L306.282 21.4357L441.414 -7Z" fill="#444053"/>
<path d="M419.756 13.7632V353.941L304.433 337.878L164.24 366.467L163.11 366.694L51.5637 335.987V40.2187L167.367 13.7632L294.032 40.2187L298.849 39.2049L419.756 13.7632Z" fill="white"/>
<path opacity="0.1" d="M312.521 355.245L155.836 387.198L159.327 -7L300.899 22.5711L306.282 21.4357L312.521 355.245Z" fill="black"/>
<g opacity="0.3">
<path opacity="0.3" d="M296.874 65.8716L296.937 176.499H342.895V131.086H421.605L430.849 119.237" stroke="#444053" stroke-width="3" stroke-miterlimit="10"/>
<path opacity="0.3" d="M40.9986 100.987H211.888L222.453 96.2349H226.68V202.902H300.635L303.804 212.407V260.46H360.856V319.866" stroke="#444053" stroke-width="3" stroke-miterlimit="10"/>
<path opacity="0.3" d="M249.252 319.866V202.902" stroke="#444053" stroke-width="3" stroke-miterlimit="10"/>
<path opacity="0.3" d="M430.849 288.531H249.252" stroke="#444053" stroke-width="3" stroke-miterlimit="10"/>
<path opacity="0.3" d="M385.367 65.8716V319.866" stroke="#444053" stroke-width="3" stroke-miterlimit="10"/>
<path opacity="0.3" d="M40.4704 266.078H430.849" stroke="#444053" stroke-width="3" stroke-miterlimit="10"/>
<path opacity="0.3" d="M87.9814 319.866V65.8716" stroke="#444053" stroke-width="3" stroke-miterlimit="10"/>
<path opacity="0.3" d="M178.725 65.8716V319.866" stroke="#444053" stroke-width="3" stroke-miterlimit="10"/>
<path opacity="0.3" d="M40.9986 130.03L342.895 131.086" stroke="#444053" stroke-width="3" stroke-miterlimit="10"/>
<path opacity="0.3" d="M128.863 66.3311V319.866" stroke="#444053" stroke-width="3" stroke-miterlimit="10"/>
<path opacity="0.3" d="M40.4704 188.813H178.725L249.252 266.078" stroke="#444053" stroke-width="3" stroke-miterlimit="10"/>
<path opacity="0.3" d="M264.529 65.8716V202.902" stroke="#444053" stroke-width="3" stroke-miterlimit="10"/>
<path opacity="0.3" d="M249.252 227.446H430.849" stroke="#444053" stroke-width="3" stroke-miterlimit="10"/>
</g>
<path d="M303.54 226.4H250.187V203.166L300.635 202.902L303.804 211.879L303.54 226.4Z" fill="#007AFF"/>
<path d="M277.128 106.004C269.383 106.004 261.955 109.079 256.479 114.554C251.002 120.028 247.926 127.453 247.926 135.195C247.926 151.316 277.128 203.694 277.128 203.694C277.128 203.694 306.329 151.337 306.329 135.195C306.329 127.453 303.253 120.028 297.776 114.554C292.3 109.079 284.872 106.004 277.128 106.004ZM277.128 147.646C274.587 147.646 272.103 146.893 269.99 145.482C267.877 144.071 266.231 142.065 265.258 139.719C264.286 137.372 264.032 134.79 264.527 132.299C265.023 129.807 266.247 127.519 268.043 125.723C269.84 123.927 272.129 122.704 274.621 122.208C277.113 121.713 279.696 121.967 282.044 122.939C284.391 123.911 286.398 125.557 287.81 127.669C289.221 129.781 289.975 132.264 289.975 134.804C289.973 138.209 288.619 141.474 286.21 143.881C283.801 146.289 280.534 147.641 277.128 147.641V147.646Z" fill="#007AFF"/>
<path opacity="0.1" d="M277.128 106.004C269.383 106.004 261.955 109.079 256.479 114.554C251.002 120.028 247.926 127.453 247.926 135.195C247.926 151.316 277.128 203.694 277.128 203.694C277.128 203.694 306.329 151.337 306.329 135.195C306.329 127.453 303.253 120.028 297.776 114.554C292.3 109.079 284.872 106.004 277.128 106.004ZM277.128 147.646C274.587 147.646 272.103 146.893 269.99 145.482C267.877 144.071 266.231 142.065 265.258 139.719C264.286 137.372 264.032 134.79 264.527 132.299C265.023 129.807 266.247 127.519 268.043 125.723C269.84 123.927 272.129 122.704 274.621 122.208C277.113 121.713 279.696 121.967 282.044 122.939C284.391 123.911 286.398 125.557 287.81 127.669C289.221 129.781 289.975 132.264 289.975 134.804C289.973 138.209 288.619 141.474 286.21 143.881C283.801 146.289 280.534 147.641 277.128 147.641V147.646Z" fill="black"/>
<path d="M277.128 110.228C269.383 110.228 261.955 113.303 256.479 118.778C251.002 124.252 247.926 131.677 247.926 139.419C247.926 155.54 277.128 207.918 277.128 207.918C277.128 207.918 306.329 155.562 306.329 139.419C306.329 131.677 303.253 124.252 297.776 118.778C292.3 113.303 284.872 110.228 277.128 110.228ZM277.128 151.87C274.587 151.87 272.103 151.117 269.99 149.706C267.877 148.295 266.231 146.289 265.258 143.943C264.286 141.596 264.032 139.014 264.527 136.523C265.023 134.032 266.247 131.743 268.043 129.947C269.84 128.151 272.129 126.928 274.621 126.433C277.113 125.937 279.696 126.191 282.044 127.163C284.391 128.135 286.398 129.781 287.81 131.893C289.221 134.005 289.975 136.488 289.975 139.028C289.973 142.433 288.619 145.698 286.21 148.106C283.801 150.513 280.534 151.865 277.128 151.865V151.87Z" fill="#007AFF"/>
<path opacity="0.1" d="M267.23 386.968C276.193 383.11 282.17 376.99 280.58 373.299C278.989 369.608 270.434 369.744 261.471 373.602C252.508 377.461 246.531 383.581 248.122 387.272C249.712 390.963 258.267 390.827 267.23 386.968Z" fill="#007AFF"/>
<path d="M264.143 382.52C266.302 382.52 268.052 380.231 268.052 377.408C268.052 374.585 266.302 372.296 264.143 372.296C261.984 372.296 260.234 374.585 260.234 377.408C260.234 380.231 261.984 382.52 264.143 382.52Z" fill="#3F3D56"/>
<path d="M264.143 376.267C266.302 376.267 268.052 373.979 268.052 371.156C268.052 368.332 266.302 366.044 264.143 366.044C261.984 366.044 260.234 368.332 260.234 371.156C260.234 373.979 261.984 376.267 264.143 376.267Z" fill="#3F3D56"/>
<path d="M264.143 370.02C266.302 370.02 268.052 367.732 268.052 364.909C268.052 362.086 266.302 359.797 264.143 359.797C261.984 359.797 260.234 362.086 260.234 364.909C260.234 367.732 261.984 370.02 264.143 370.02Z" fill="#3F3D56"/>
<path d="M264.143 363.773C266.302 363.773 268.052 361.485 268.052 358.662C268.052 355.839 266.302 353.55 264.143 353.55C261.984 353.55 260.234 355.839 260.234 358.662C260.234 361.485 261.984 363.773 264.143 363.773Z" fill="#3F3D56"/>
<path d="M264.143 357.522C266.302 357.522 268.052 355.233 268.052 352.41C268.052 349.587 266.302 347.298 264.143 347.298C261.984 347.298 260.234 349.587 260.234 352.41C260.234 355.233 261.984 357.522 264.143 357.522Z" fill="#3F3D56"/>
<path d="M264.143 351.274C266.302 351.274 268.052 348.986 268.052 346.163C268.052 343.34 266.302 341.051 264.143 341.051C261.984 341.051 260.234 343.34 260.234 346.163C260.234 348.986 261.984 351.274 264.143 351.274Z" fill="#3F3D56"/>
<path d="M264.143 345.027C266.302 345.027 268.052 342.739 268.052 339.916C268.052 337.093 266.302 334.804 264.143 334.804C261.984 334.804 260.234 337.093 260.234 339.916C260.234 342.739 261.984 345.027 264.143 345.027Z" fill="#3F3D56"/>
<path d="M249.516 297.149C248.983 296.478 248.496 295.772 248.058 295.036L258.327 293.347L247.234 293.431C246.17 291.114 245.59 288.605 245.528 286.057C245.466 283.509 245.924 280.974 246.875 278.609L261.771 286.308L248.037 276.211C249.323 273.987 251.054 272.051 253.122 270.525C255.189 268.998 257.549 267.914 260.055 267.339C262.56 266.764 265.157 266.712 267.683 267.185C270.21 267.657 272.612 268.645 274.74 270.086C276.868 271.528 278.676 273.392 280.051 275.563C281.427 277.733 282.34 280.164 282.735 282.703C283.129 285.242 282.996 287.835 282.344 290.32C281.692 292.805 280.535 295.13 278.945 297.149C279.769 298.207 280.477 299.351 281.058 300.56L267.741 307.483L281.951 302.73C282.948 305.678 283.195 308.829 282.669 311.896C282.142 314.964 280.858 317.852 278.934 320.299C281.106 323.058 282.457 326.373 282.833 329.864C283.21 333.355 282.595 336.881 281.061 340.04C279.526 343.198 277.134 345.861 274.157 347.725C271.179 349.588 267.738 350.576 264.225 350.576C260.713 350.576 257.271 349.588 254.294 347.725C251.316 345.861 248.924 343.198 247.389 340.04C245.855 336.881 245.241 333.355 245.617 329.864C245.993 326.373 247.344 323.058 249.516 320.299C246.922 317.001 245.512 312.927 245.512 308.732C245.512 304.536 246.922 300.463 249.516 297.165V297.149Z" fill="#007AFF"/>
<path opacity="0.1" d="M282.938 308.697C282.946 312.895 281.535 316.971 278.934 320.267C281.106 323.026 282.457 326.341 282.833 329.832C283.21 333.323 282.595 336.85 281.061 340.008C279.526 343.167 277.134 345.83 274.157 347.693C271.179 349.556 267.738 350.544 264.225 350.544C260.713 350.544 257.271 349.556 254.294 347.693C251.316 345.83 248.924 343.167 247.389 340.008C245.855 336.85 245.241 333.323 245.617 329.832C245.993 326.341 247.344 323.026 249.516 320.267C247.007 317.099 282.938 306.617 282.938 308.697Z" fill="black"/>
<path opacity="0.1" d="M37.5861 377.897C41.7099 373.775 36.937 362.32 26.9255 352.312C16.9139 342.304 5.45496 337.533 1.33111 341.656C-2.79274 345.778 1.98016 357.233 11.9917 367.24C22.0032 377.248 33.4622 382.019 37.5861 377.897Z" fill="#007AFF"/>
<path d="M21.2737 361.45C24.4041 361.45 26.9418 358.128 26.9418 354.031C26.9418 349.933 24.4041 346.612 21.2737 346.612C18.1432 346.612 15.6055 349.933 15.6055 354.031C15.6055 358.128 18.1432 361.45 21.2737 361.45Z" fill="#3F3D56"/>
<path d="M21.2737 352.383C24.4041 352.383 26.9418 349.062 26.9418 344.964C26.9418 340.867 24.4041 337.545 21.2737 337.545C18.1432 337.545 15.6055 340.867 15.6055 344.964C15.6055 349.062 18.1432 352.383 21.2737 352.383Z" fill="#3F3D56"/>
<path d="M21.2737 343.317C24.4041 343.317 26.9418 339.995 26.9418 335.898C26.9418 331.8 24.4041 328.479 21.2737 328.479C18.1432 328.479 15.6055 331.8 15.6055 335.898C15.6055 339.995 18.1432 343.317 21.2737 343.317Z" fill="#3F3D56"/>
<path d="M21.2737 334.25C24.4041 334.25 26.9418 330.928 26.9418 326.831C26.9418 322.733 24.4041 319.412 21.2737 319.412C18.1432 319.412 15.6055 322.733 15.6055 326.831C15.6055 330.928 18.1432 334.25 21.2737 334.25Z" fill="#3F3D56"/>
<path d="M21.2737 325.184C24.4041 325.184 26.9418 321.862 26.9418 317.764C26.9418 313.667 24.4041 310.345 21.2737 310.345C18.1432 310.345 15.6055 313.667 15.6055 317.764C15.6055 321.862 18.1432 325.184 21.2737 325.184Z" fill="#3F3D56"/>
<path d="M21.2737 316.117C24.4041 316.117 26.9418 312.795 26.9418 308.697C26.9418 304.6 24.4041 301.278 21.2737 301.278C18.1432 301.278 15.6055 304.6 15.6055 308.697C15.6055 312.795 18.1432 316.117 21.2737 316.117Z" fill="#3F3D56"/>
<path d="M21.2737 307.05C24.4041 307.05 26.9418 303.728 26.9418 299.631C26.9418 295.533 24.4041 292.211 21.2737 292.211C18.1432 292.211 15.6055 295.533 15.6055 299.631C15.6055 303.728 18.1432 307.05 21.2737 307.05Z" fill="#3F3D56"/>
<path d="M42.4936 237.584C43.2692 236.6 43.9752 235.562 44.6066 234.479L29.7099 232.034L45.8216 232.151C47.3672 228.79 48.2111 225.149 48.302 221.451C48.3928 217.753 47.7285 214.076 46.3498 210.643L24.739 221.853L44.6594 207.205C42.7935 203.976 40.2821 201.167 37.2819 198.951C34.2816 196.735 30.8569 195.161 27.2213 194.326C23.5856 193.492 19.817 193.415 16.1503 194.101C12.4837 194.786 8.99761 196.22 5.90955 198.311C2.82148 200.403 0.197618 203.108 -1.79845 206.258C-3.79451 209.409 -5.11998 212.936 -5.69219 216.621C-6.2644 220.305 -6.07109 224.068 -5.12431 227.675C-4.17754 231.282 -2.4976 234.655 -0.189241 237.584C-1.3968 239.117 -2.43471 240.776 -3.2848 242.532L16.0492 252.565L-4.55262 245.648C-5.9992 249.925 -6.35633 254.496 -5.59172 258.946C-4.82711 263.397 -2.96487 267.587 -0.173395 271.137C-3.32364 275.14 -5.28333 279.949 -5.82839 285.014C-6.37345 290.078 -5.4819 295.194 -3.25566 299.775C-1.02941 304.357 2.44166 308.22 6.76071 310.923C11.0798 313.626 16.0725 315.059 21.168 315.059C26.2636 315.059 31.2563 313.626 35.5753 310.923C39.8944 308.22 43.3655 304.357 45.5917 299.775C47.8179 295.194 48.7095 290.078 48.1644 285.014C47.6194 279.949 45.6597 275.14 42.5094 271.137C46.2735 266.352 48.3199 260.442 48.3199 254.355C48.3199 248.268 46.2735 242.358 42.5094 237.574L42.4936 237.584Z" fill="#007AFF"/>
<path opacity="0.1" d="M-6.00002 254.366C-6.01023 260.454 -3.96262 266.368 -0.189241 271.147C-3.33949 275.151 -5.29918 279.96 -5.84424 285.024C-6.3893 290.089 -5.49775 295.204 -3.2715 299.786C-1.04526 304.368 2.42582 308.231 6.74487 310.933C11.0639 313.636 16.0566 315.07 21.1522 315.07C26.2477 315.07 31.2404 313.636 35.5595 310.933C39.8785 308.231 43.3496 304.368 45.5758 299.786C47.8021 295.204 48.6936 290.089 48.1486 285.024C47.6035 279.96 45.6438 275.151 42.4936 271.147C46.1332 266.532 -6.00002 251.319 -6.00002 254.366Z" fill="black"/>
</g>
<defs>
<clipPath id="clip0">
<rect x="0.880066" y="0.959473" width="553.833" height="451.692" fill="white"/>
</clipPath>
</defs>
</svg>
