<svg width="482" height="291" viewBox="0 0 482 291" fill="none" xmlns="http://www.w3.org/2000/svg">
<g clip-path="url(#clip0)">
<path d="M482 226.462C482.01 228.406 481.248 230.274 479.881 231.656C478.513 233.037 476.653 233.819 474.71 233.829H153.956C152.994 233.824 152.042 233.63 151.155 233.257C150.267 232.884 149.462 232.34 148.785 231.656C148.108 230.972 147.573 230.161 147.209 229.27C146.845 228.379 146.661 227.425 146.666 226.462V7.36673C146.656 5.42312 147.418 3.55507 148.785 2.17354C150.152 0.792014 152.012 0.0101642 153.956 0H474.71C475.672 0.00500598 476.624 0.19952 477.511 0.572432C478.398 0.945344 479.204 1.48935 479.88 2.1734C480.557 2.85744 481.093 3.66813 481.457 4.55917C481.82 5.45021 482.005 6.40415 482 7.36654V7.36674V226.462Z" fill="#E6E6E6"/>
<path d="M478.216 222.875C478.216 224.764 477.466 226.576 476.13 227.911C474.794 229.247 472.982 229.998 471.093 229.998H157.792C155.903 229.998 154.091 229.247 152.756 227.911C151.42 226.576 150.669 224.764 150.669 222.875V11.055C150.669 9.1658 151.42 7.35402 152.756 6.01818C154.091 4.68235 155.903 3.93188 157.792 3.93188H471.107C472.994 3.93568 474.802 4.68782 476.135 6.02324C477.468 7.35867 478.216 9.16828 478.216 11.055V222.875Z" fill="white"/>
<path d="M167.414 13.1282H461.806C462.927 13.1282 464.003 13.5736 464.796 14.3665C465.588 15.1594 466.034 16.2348 466.034 17.3562V215.751C466.034 216.873 465.588 217.948 464.796 218.741C464.003 219.534 462.927 219.979 461.806 219.979H167.414C166.293 219.979 165.217 219.534 164.424 218.741C163.631 217.948 163.186 216.873 163.186 215.751V17.3562C163.186 16.2348 163.631 15.1594 164.424 14.3665C165.217 13.5736 166.293 13.1282 167.414 13.1282Z" fill="#E6E6E6"/>
<path d="M171.14 17.8865H457.759C458.881 17.8865 459.956 18.3319 460.749 19.1248C461.542 19.9177 461.987 20.9931 461.987 22.1145V209.923C461.987 211.044 461.542 212.12 460.749 212.913C459.956 213.706 458.881 214.151 457.759 214.151H171.14C170.019 214.151 168.944 213.706 168.151 212.913C167.358 212.12 166.912 211.044 166.912 209.923V22.1145C166.912 20.9931 167.358 19.9177 168.151 19.1248C168.944 18.3319 170.019 17.8865 171.14 17.8865Z" fill="white"/>
<path d="M373.513 148.354C372.385 148.353 371.27 148.115 370.239 147.656C369.999 147.549 369.771 147.42 369.557 147.268L348.726 132.605C347.67 131.862 346.808 130.875 346.212 129.729C345.617 128.582 345.306 127.309 345.306 126.017V106.02C345.306 104.729 345.617 103.456 346.212 102.309C346.808 101.163 347.67 100.176 348.726 99.4322L369.557 84.7696C369.771 84.6181 369.999 84.4882 370.239 84.3818C371.466 83.8363 372.81 83.606 374.149 83.7119C375.487 83.8178 376.778 84.2564 377.904 84.9881C379.03 85.7197 379.955 86.7211 380.596 87.9013C381.237 89.0815 381.572 90.403 381.572 91.7458V140.292C381.572 142.429 380.723 144.479 379.212 145.991C377.7 147.502 375.65 148.351 373.513 148.351L373.513 148.354Z" fill="#3F3D56"/>
<path d="M326.895 152.285H268.798C256.945 152.275 247.34 144.613 247.328 135.159V96.8783C247.34 87.4241 256.945 79.7624 268.798 79.7527H327.046C338.815 79.7638 348.351 87.3706 348.365 96.7574V135.159C348.353 144.613 338.748 152.275 326.895 152.285Z" fill="#3F3D56"/>
<path d="M430.385 202.074C439.927 202.074 447.663 194.338 447.663 184.796C447.663 175.253 439.927 167.517 430.385 167.517C420.842 167.517 413.106 175.253 413.106 184.796C413.106 194.338 420.842 202.074 430.385 202.074Z" fill="#E6E6E6"/>
<path d="M439.359 184.486L425.586 176.534C425.532 176.503 425.47 176.486 425.407 176.486C425.345 176.486 425.283 176.503 425.229 176.534C425.174 176.566 425.129 176.611 425.098 176.665C425.066 176.72 425.05 176.781 425.05 176.844V192.747C425.05 192.81 425.066 192.872 425.098 192.926C425.129 192.981 425.174 193.026 425.229 193.057C425.283 193.089 425.345 193.105 425.407 193.105C425.47 193.105 425.532 193.089 425.586 193.057L439.359 185.105C439.413 185.074 439.459 185.029 439.49 184.975C439.521 184.92 439.538 184.858 439.538 184.796C439.538 184.733 439.521 184.671 439.49 184.617C439.459 184.563 439.413 184.517 439.359 184.486L425.586 176.534C425.532 176.503 425.47 176.486 425.407 176.486C425.345 176.486 425.283 176.503 425.229 176.534C425.174 176.566 425.129 176.611 425.098 176.665C425.066 176.72 425.05 176.781 425.05 176.844V192.747C425.05 192.81 425.066 192.872 425.098 192.926C425.129 192.981 425.174 193.026 425.229 193.057C425.283 193.089 425.345 193.105 425.407 193.105C425.47 193.105 425.532 193.089 425.586 193.057L439.359 185.105C439.413 185.074 439.459 185.029 439.49 184.975C439.521 184.92 439.538 184.858 439.538 184.796C439.538 184.733 439.521 184.671 439.49 184.617C439.459 184.563 439.413 184.517 439.359 184.486Z" fill="white"/>
<path d="M407.95 252.738C407.961 254.682 407.198 256.55 405.831 257.931C404.464 259.313 402.604 260.094 400.66 260.105H79.9066C78.9442 260.1 77.9923 259.905 77.1051 259.532C76.2179 259.159 75.4128 258.615 74.7358 257.931C74.0589 257.247 73.5233 256.437 73.1596 255.545C72.7959 254.654 72.6113 253.7 72.6163 252.738V33.6424C72.6062 31.6988 73.3685 29.8307 74.7357 28.4492C76.1028 27.0676 77.9628 26.2858 79.9064 26.2756H400.66C401.623 26.2806 402.574 26.4752 403.462 26.8481C404.349 27.221 405.154 27.765 405.831 28.449C406.508 29.1331 407.044 29.9438 407.407 30.8348C407.771 31.7258 407.955 32.6798 407.95 33.6422V33.6424V252.738Z" fill="#E6E6E6"/>
<path d="M404.167 249.15C404.167 251.039 403.416 252.851 402.08 254.187C400.745 255.523 398.933 256.273 397.044 256.273H83.7429C81.8537 256.273 80.0419 255.523 78.7061 254.187C77.3703 252.851 76.6198 251.039 76.6198 249.15V37.3306C76.6198 35.4414 77.3703 33.6297 78.7061 32.2938C80.0419 30.958 81.8537 30.2075 83.7429 30.2075H397.058C398.945 30.2113 400.753 30.9635 402.086 32.2989C403.418 33.6343 404.167 35.4439 404.167 37.3306V249.15Z" fill="white"/>
<path d="M93.3645 39.4038H387.756C388.878 39.4038 389.953 39.8493 390.746 40.6422C391.539 41.4351 391.984 42.5105 391.984 43.6318V242.027C391.984 243.148 391.539 244.224 390.746 245.017C389.953 245.81 388.878 246.255 387.756 246.255H93.3645C92.2432 246.255 91.1678 245.81 90.3749 245.017C89.582 244.224 89.1365 243.148 89.1365 242.027V43.6318C89.1365 42.5105 89.582 41.4351 90.3749 40.6422C91.1678 39.8493 92.2432 39.4038 93.3645 39.4038Z" fill="#E6E6E6"/>
<path d="M97.0909 44.1621H383.71C384.831 44.1621 385.907 44.6076 386.7 45.4005C387.493 46.1934 387.938 47.2688 387.938 48.3901V236.199C387.938 237.32 387.493 238.395 386.7 239.188C385.907 239.981 384.831 240.427 383.71 240.427H97.0909C95.9695 240.427 94.8941 239.981 94.1012 239.188C93.3083 238.395 92.8629 237.32 92.8629 236.199V48.3901C92.8629 47.2688 93.3083 46.1934 94.1012 45.4005C94.8941 44.6076 95.9695 44.1621 97.0909 44.1621Z" fill="white"/>
<path d="M299.464 174.629C298.335 174.628 297.22 174.391 296.19 173.932C295.95 173.825 295.721 173.695 295.507 173.544L274.677 158.881C273.62 158.137 272.758 157.151 272.163 156.004C271.568 154.858 271.257 153.585 271.257 152.293V132.296C271.257 131.004 271.568 129.731 272.163 128.585C272.758 127.438 273.62 126.451 274.677 125.708L295.507 111.045C295.721 110.894 295.95 110.764 296.19 110.657C297.417 110.112 298.76 109.882 300.099 109.987C301.438 110.093 302.729 110.532 303.855 111.264C304.981 111.995 305.906 112.997 306.547 114.177C307.187 115.357 307.523 116.679 307.523 118.021V166.568C307.523 168.705 306.674 170.755 305.162 172.266C303.651 173.778 301.601 174.627 299.464 174.627L299.464 174.629Z" fill="#3F3D56"/>
<path d="M252.845 178.56H194.749C182.896 178.551 173.29 170.889 173.278 161.435V123.154C173.29 113.7 182.896 106.038 194.749 106.028H252.997C264.765 106.039 274.302 113.646 274.316 123.033V161.435C274.304 170.889 264.698 178.551 252.845 178.56Z" fill="#3F3D56"/>
<path d="M356.335 228.35C365.878 228.35 373.614 220.614 373.614 211.071C373.614 201.529 365.878 193.793 356.335 193.793C346.793 193.793 339.057 201.529 339.057 211.071C339.057 220.614 346.793 228.35 356.335 228.35Z" fill="#E6E6E6"/>
<path d="M365.31 210.762L351.537 202.81C351.482 202.779 351.421 202.762 351.358 202.762C351.295 202.762 351.234 202.779 351.179 202.81C351.125 202.841 351.08 202.886 351.048 202.941C351.017 202.995 351 203.057 351 203.12V219.023C351 219.086 351.017 219.148 351.048 219.202C351.08 219.256 351.125 219.301 351.179 219.333C351.234 219.364 351.295 219.381 351.358 219.381C351.421 219.381 351.482 219.364 351.537 219.333L365.31 211.381C365.364 211.35 365.409 211.305 365.441 211.25C365.472 211.196 365.488 211.134 365.488 211.071C365.488 211.009 365.472 210.947 365.441 210.893C365.409 210.838 365.364 210.793 365.31 210.762L351.537 202.81C351.482 202.779 351.421 202.762 351.358 202.762C351.295 202.762 351.234 202.779 351.179 202.81C351.125 202.841 351.08 202.886 351.048 202.941C351.017 202.995 351 203.057 351 203.12V219.023C351 219.086 351.017 219.148 351.048 219.202C351.08 219.256 351.125 219.301 351.179 219.333C351.234 219.364 351.295 219.381 351.358 219.381C351.421 219.381 351.482 219.364 351.537 219.333L365.31 211.381C365.364 211.35 365.409 211.305 365.441 211.25C365.472 211.196 365.488 211.134 365.488 211.071C365.488 211.009 365.472 210.947 365.441 210.893C365.409 210.838 365.364 210.793 365.31 210.762Z" fill="white"/>
<path d="M335.334 282.835C335.344 284.779 334.582 286.647 333.215 288.029C331.848 289.41 329.988 290.192 328.044 290.202H7.29042C6.32804 290.197 5.37607 290.003 4.48886 289.63C3.60165 289.257 2.79658 288.713 2.11961 288.029C1.44264 287.345 0.907039 286.534 0.543378 285.643C0.179717 284.752 -0.00487735 283.798 0.00013084 282.836V63.7398C-0.0100321 61.7962 0.752316 59.9281 2.11947 58.5466C3.48663 57.1651 5.3466 56.3832 7.29021 56.373H328.044C329.006 56.3781 329.958 56.5726 330.845 56.9455C331.733 57.3184 332.538 57.8624 333.215 58.5464C333.892 59.2305 334.427 60.0412 334.791 60.9322C335.155 61.8233 335.339 62.7772 335.334 63.7396V63.7398V282.835Z" fill="#E6E6E6"/>
<path d="M331.551 279.248C331.551 281.137 330.8 282.949 329.464 284.284C328.128 285.62 326.317 286.371 324.427 286.371H11.1267C9.23749 286.371 7.42571 285.62 6.08987 284.284C4.75404 282.949 4.00357 281.137 4.00357 279.248V67.428C4.00357 65.5389 4.75404 63.7271 6.08987 62.3912C7.42571 61.0554 9.23749 60.3049 11.1267 60.3049H324.442C326.328 60.3087 328.137 61.0609 329.469 62.3963C330.802 63.7317 331.551 65.5413 331.551 67.428V279.248Z" fill="white"/>
<path d="M20.7483 69.5015H315.14C316.262 69.5015 317.337 69.9469 318.13 70.7398C318.923 71.5327 319.368 72.6081 319.368 73.7295V272.125C319.368 273.246 318.923 274.321 318.13 275.114C317.337 275.907 316.262 276.353 315.14 276.353H20.7483C19.6269 276.353 18.5515 275.907 17.7586 275.114C16.9657 274.321 16.5203 273.246 16.5203 272.125V73.7295C16.5203 72.6081 16.9657 71.5327 17.7586 70.7398C18.5515 69.9469 19.6269 69.5015 20.7483 69.5015Z" fill="#E6E6E6"/>
<path d="M24.4746 74.2598H311.094C311.649 74.2598 312.199 74.3691 312.712 74.5816C313.225 74.7941 313.691 75.1055 314.083 75.4981C314.476 75.8907 314.787 76.3568 315 76.8698C315.212 77.3827 315.322 77.9325 315.322 78.4877V266.296C315.322 266.851 315.212 267.401 315 267.914C314.787 268.427 314.476 268.893 314.083 269.286C313.691 269.679 313.225 269.99 312.712 270.202C312.199 270.415 311.649 270.524 311.094 270.524H24.4746C23.3533 270.524 22.2779 270.079 21.485 269.286C20.6921 268.493 20.2466 267.418 20.2466 266.296V78.4877C20.2466 77.3664 20.6921 76.291 21.485 75.4981C22.2779 74.7052 23.3533 74.2598 24.4746 74.2598Z" fill="white"/>
<path d="M226.847 204.727C225.719 204.726 224.604 204.488 223.573 204.029C223.334 203.922 223.105 203.793 222.891 203.641L202.061 188.979C201.004 188.235 200.142 187.248 199.547 186.102C198.952 184.955 198.641 183.682 198.64 182.39V162.394C198.641 161.102 198.952 159.829 199.547 158.682C200.142 157.536 201.004 156.549 202.061 155.805L222.891 141.143C223.105 140.991 223.334 140.861 223.573 140.755C224.8 140.209 226.144 139.979 227.483 140.085C228.821 140.191 230.112 140.629 231.238 141.361C232.364 142.093 233.29 143.094 233.93 144.274C234.571 145.455 234.906 146.776 234.906 148.119V196.665C234.906 198.802 234.057 200.852 232.546 202.364C231.035 203.875 228.985 204.724 226.847 204.724L226.847 204.727Z" fill="#B89B58"/>
<path d="M180.229 208.658H122.133C110.28 208.648 100.674 200.987 100.662 191.532V153.252C100.674 143.797 110.28 136.136 122.133 136.126H180.381C192.149 136.137 201.686 143.744 201.7 153.131V191.532C201.688 200.987 192.082 208.648 180.229 208.658Z" fill="#B89B58"/>
<path d="M283.719 258.447C293.262 258.447 300.997 250.712 300.997 241.169C300.997 231.626 293.262 223.89 283.719 223.89C274.176 223.89 266.44 231.626 266.44 241.169C266.44 250.712 274.176 258.447 283.719 258.447Z" fill="#3F3D56"/>
<path d="M292.693 240.859L278.921 232.908C278.866 232.876 278.805 232.86 278.742 232.86C278.679 232.86 278.617 232.876 278.563 232.908C278.509 232.939 278.463 232.984 278.432 233.038C278.401 233.093 278.384 233.154 278.384 233.217V249.121C278.384 249.184 278.401 249.245 278.432 249.3C278.463 249.354 278.509 249.399 278.563 249.43C278.617 249.462 278.679 249.478 278.742 249.478C278.805 249.478 278.866 249.462 278.921 249.43L292.693 241.479C292.748 241.447 292.793 241.402 292.824 241.348C292.856 241.293 292.872 241.232 292.872 241.169C292.872 241.106 292.856 241.045 292.824 240.99C292.793 240.936 292.748 240.891 292.693 240.859L278.921 232.908C278.866 232.876 278.805 232.86 278.742 232.86C278.679 232.86 278.617 232.876 278.563 232.908C278.509 232.939 278.463 232.984 278.432 233.038C278.401 233.093 278.384 233.155 278.384 233.217V249.121C278.384 249.184 278.401 249.245 278.432 249.3C278.463 249.354 278.509 249.399 278.563 249.431C278.617 249.462 278.679 249.478 278.742 249.478C278.805 249.478 278.866 249.462 278.921 249.43L292.693 241.479C292.748 241.447 292.793 241.402 292.824 241.348C292.856 241.293 292.872 241.232 292.872 241.169C292.872 241.106 292.856 241.045 292.824 240.99C292.793 240.936 292.748 240.891 292.693 240.859Z" fill="white"/>
</g>
<defs>
<clipPath id="clip0">
<rect width="482" height="290.202" fill="white"/>
</clipPath>
</defs>
</svg>
