<svg width="679" height="657" viewBox="0 0 679 657" fill="none" xmlns="http://www.w3.org/2000/svg">
<path fill-rule="evenodd" clip-rule="evenodd" d="M342.971 53.2719C405.592 59.2701 468.605 20.4059 526.851 44.1698C592.615 71.0007 659.097 120.073 675.866 189.089C692.465 257.407 639.149 320.115 609.373 383.804C583.723 438.668 557.075 490.355 514.76 533.685C464.332 585.324 414.841 663.259 342.971 656.6C270.103 649.848 242.486 557.632 192.854 503.858C155.245 463.109 116.497 427.608 87.8182 380.149C50.2356 317.954 -7.61759 258.259 0.831426 186.085C9.66289 110.644 60.7706 33.7962 131.582 6.30848C200.558 -20.4673 269.316 46.2168 342.971 53.2719Z" fill="#C9C8D6"/>
</svg>
