<svg width="662" height="416" viewBox="0 0 662 416" fill="none" xmlns="http://www.w3.org/2000/svg">
<path opacity="0.1" d="M662 267.182C662 226.008 644.602 189.642 618.026 167.775C618.392 163.615 618.577 159.395 618.582 155.118C618.582 88.2658 572.73 34.0716 516.169 34.0716C498.127 34.0716 481.179 39.593 466.457 49.2732C426.417 18.5789 374.147 0 316.962 0C223.916 0 143.882 49.1877 108.375 119.723C106.401 119.589 104.415 119.514 102.413 119.514C45.8519 119.514 0 173.708 0 240.56C0 265.138 6.20377 288 16.8528 307.093V307.093C16.8528 367.241 65.571 416 125.668 416H561.45C584.109 416 605.841 406.991 621.864 390.955C637.886 374.918 646.888 353.169 646.888 330.49V330.49C656.47 312.07 662 290.391 662 267.182Z" fill="#DE7376"/>
</svg>
