<svg width="651" height="530" viewBox="0 0 651 530" fill="none" xmlns="http://www.w3.org/2000/svg">
<path fill-rule="evenodd" clip-rule="evenodd" d="M299.681 52.5486C361.439 45.8613 424.882 -24.6544 477.013 9.10181C529.222 42.9081 480.947 133.891 510.108 188.804C542.431 249.672 646.491 266.381 650.177 335.189C653.66 400.182 582.061 447.874 525.742 480.57C477.582 508.53 418.533 493.765 363.401 501.68C317.793 508.227 275.748 522.545 229.675 523.073C166.566 523.797 92.7587 546.588 45.0211 505.333C-2.03985 464.664 -4.23959 389.136 3.2722 327.418C9.94945 272.556 58.9929 235.708 83.8465 186.337C107.432 139.484 100.839 72.6514 145.44 45.0052C190.087 17.3301 247.447 58.2045 299.681 52.5486Z" fill="#CCE4FF"/>
</svg>
