<svg width="671" height="573" viewBox="0 0 671 573" fill="none" xmlns="http://www.w3.org/2000/svg">
<path opacity="0.1" d="M649 246C661.15 246 671 233.016 671 217C671 200.984 661.15 188 649 188C636.85 188 627 200.984 627 217C627 233.016 636.85 246 649 246Z" fill="#B89B58"/>
<path opacity="0.1" d="M278 39C285.18 39 291 31.3888 291 22C291 12.6112 285.18 5 278 5C270.82 5 265 12.6112 265 22C265 31.3888 270.82 39 278 39Z" fill="#B89B58"/>
<path opacity="0.1" d="M429 59C436.18 59 442 51.165 442 41.5C442 31.835 436.18 24 429 24C421.82 24 416 31.835 416 41.5C416 51.165 421.82 59 429 59Z" fill="#B89B58"/>
<path opacity="0.1" d="M22 286C34.1503 286 44 273.24 44 257.5C44 241.76 34.1503 229 22 229C9.84974 229 0 241.76 0 257.5C0 273.24 9.84974 286 22 286Z" fill="#B89B58"/>
<path opacity="0.1" d="M371.912 94.4782C332.42 92.5753 294.808 74.8569 258.892 55.4645C222.975 36.0722 187.395 14.6032 148.879 4.33067C124.087 -2.27819 95.7373 -3.2178 75.7595 15.2586C56.5078 33.0718 50.296 63.7315 46.9766 92.2042C44.4625 113.634 42.9859 136.184 49.8689 156.24C54.6467 170.168 63.1346 181.87 69.0046 195.206C89.4279 241.618 74.9907 298.856 52.8588 344.17C42.4855 365.426 30.4402 385.703 22.4284 408.332C14.4165 430.962 10.6943 456.892 17.6871 479.98C24.6312 502.878 41.1858 520.044 59.1195 532.093C95.5421 556.641 138.445 563.676 180.311 567.624C272.95 576.436 366.091 572.622 458.981 568.801C493.353 567.387 527.884 565.95 561.701 558.536C580.483 554.43 599.869 547.916 613.501 532.195C630.812 512.242 635.102 478.448 623.502 453.426C604.049 411.451 550.278 401.021 536.665 355.975C529.184 331.182 536.866 303.562 547.746 280.569C571.074 231.235 610.188 187.958 612.244 131.565C613.66 92.8753 594.859 54.0591 565.79 35.7327C535.316 16.5219 493.066 18.9381 470.599 50.7349C447.46 83.6055 406.779 96.1679 371.912 94.4782Z" fill="#B89B58"/>
</svg>
