<svg id="Layer_1" data-name="Layer 1" xmlns="http://www.w3.org/2000/svg" viewBox="0 0 1000 346.61"><defs><style>.cls-1{fill:#FFF;}</style></defs><title>WoCode_ShapeDivider_Paint</title><path class="cls-1" d="M1107.17,529.5c-6.35,0-7.15-4.62-7.15-10.2,0-13.54,4.21-30-1.16-42.45-1.31-3-3.32-6-6.38-7.26-4.71-1.92-10.3,1.13-12.84,5.54s-2.75,9.74-2.65,14.83a164.69,164.69,0,0,0,2,22.39,18.41,18.41,0,0,1,.25,6.93,7.89,7.89,0,0,1-5.93,6,6.47,6.47,0,0,1-7.18-3.93,11.47,11.47,0,0,1,0-5.73c2.31-13.25,4.73-26.62,4.17-40.07-.21-4.79-.85-9.75-3.4-13.82s-7.44-7-12.12-5.91a7,7,0,0,0-3.89,2.28,9.74,9.74,0,0,0-1.52,3.06,33.48,33.48,0,0,0-1.57,14.63c.48,4.2,1.76,8.29,2.06,12.51s.14,12.36-4.71,12.36a2.52,2.52,0,0,1-1.34-.36c-2.67-1.65-3.16-5.25-3.38-8.38l-.82-11.8c-.19-2.77-.87-6.18-3.54-6.93-2.4-.68-4.72,1.4-5.84,3.62a21,21,0,0,0-1.85,9.25,47.73,47.73,0,0,0,1.28,11.48,45.33,45.33,0,0,1,1.64,8c.14,2.74.08,6.64-2.6,7.21-5.55,1.18-11-3.4-12.89-8.73s-1.25-11.19-.78-16.84.65-11.64-2-16.61a17,17,0,0,0-15.23-8.5,19.07,19.07,0,0,0-15.17,9c-2,3.14-3.93,7.39-7.62,7.21-3.26-.17-5.05-3.86-5.74-7.05s-1.27-6.92-4.08-8.59c-3.55-2.11-8.33.86-9.77,4.74s-.61,8.17-.07,12.26.64,8.65-1.88,11.93-8.59,3.77-10.32,0a8.54,8.54,0,0,1-.11-5.34c1.37-6.36,4-12.74,2.84-19.14s-8.49-12.2-14-8.79c-6,3.68-5.1,18.32-11.86,16.38-5.67-1.63-8.44-9.86-14.33-9.55-3,.15-5.43,2.77-6.34,5.63s-.62,6-.33,9l2.37,24.46c.47,4.86-.25,11.41-5.06,12.23-2.88.5-5.67-1.75-6.74-4.46s-.84-5.75-.47-8.64a110,110,0,0,1,4.41-19.72c2.33-7.24,5.45-14.91,3.28-22.21a16.21,16.21,0,0,0-28-5.74c-3.94,4.75-4.86,11.29-5,17.46-.27,17.69,4.93,35.5,1.8,52.92-.29,1.61-.74,3.35-2,4.37-2.78,2.2-6.85-.61-8.48-3.76-7.84-15.14,8-33.63,3.14-50-2-6.9-8.32-12.65-15.5-13s-14.45,5.48-14.64,12.68c-.11,4.07,1.77,8.48-.24,12-2.37,4.17-10.51,4.3-11.43-.42-1-5.31,1.94-10.48,3.15-15.76s-.82-12.48-6.23-12.8c-5.87-.35-10,7.9-15.73,6.77-2.37-.47-4.3-2.52-6.72-2.56-6.78-.13-2.15,14.58-12.39,14.58-9,0-8-14.14-14.79-18.15-5.91-3.48-14-.3-18,5.3s-4.68,12.84-4.62,19.69.76,13.82-.82,20.49c-.57,2.42-1.64,5-3.88,6.07-4.1,1.95-11.07,2.29-10.76-5.75C726.22,492.07,735.88,466,717,466a21.53,21.53,0,0,0-17,7.77c-3.8,4.4-5.79,11.09-6.52,16.85-1.38,10.94,3.13,21.45,1.75,32.38-.38,3-3,8.5-6,8.75-3.62.3-7.3-3-7.3-9.8q0-17,0-34.1c0-6.62-.06-13.52-3-19.45s-9.6-9.95-16.1-8.71c-14.83,2.81-13.26,23.5-12.21,28.56,1.88,9,5.58,14.68,6.78,22.92.86,5.88,1.7,12-.31,17.62s-7.88,10.26-13.64,8.81c-5.34-1.36-8.29-7.16-9.26-12.59-1.51-8.43.07-17.1-.4-25.66s-3.83-17.92-11.61-21.5c-8.46-3.89-19.83,2.13-21.37,11.31-.91,5.42,2.57,15.09-4.46,15.09-4.1-.25-5.49-9.15-6.08-14.4-.37-3.36-.13-6.84-1.21-10.06s-4-6.17-7.4-5.74A9.75,9.75,0,0,0,576,477c-5.34,6.55-4.88,12.92-2.45,24.55,1.72,8.27,9.33,29.57.33,29.83-10.13,0-13.62-25.54-13.91-35.29-.18-6.07.36-12.18-.54-18.18s-3.51-12.09-8.56-15.45-12.84-2.9-16.29,2.09-1.46,11.77-.31,17.76,2.48,10.23,2.48,17.57c0,4.29-2.87,13.5-10.87,13.5-15.63,0-4-25.55-4.5-32.76a25.88,25.88,0,0,0-7.13-15.87c-4.08-4.21-15.86-5-20.32-1.16-3.26,2.8-3.55,7.62-5,11.65s-6.25,7.88-9.7,5.32a8.53,8.53,0,0,1-2.43-3.77l-3.2-7.72c-1.37-3.31-3.33-7.09-6.87-7.59-4.56-.65-7.74,4.86-7.5,9.46s2.46,8.95,2.52,13.56-3.68,9.9-8.13,8.71-5.07-7.11-4.8-11.68l.72-12.44c.23-4.06.42-8.35-1.42-12s-6.47-6.18-10.09-4.31-4.21,6.45-5.1,10.32-2.88,10.2-6.8,9.5c-3.46-.61-5.79-6.73-9-8.2-3.74-1.73-8.26,1.29-9.74,5.14s-.85,8.12-.36,12.21a146.27,146.27,0,0,1,.76,26.38c-.18,2.84-.67,6.09-3.08,7.61-2.24,1.41-5.38.6-7.27-1.27s-2.18-4.57-2.35-7.22c-.55-8.77,3.46-17.07,6.23-25.41s4.43-15.48.43-24.48c-.71-1.6-2.87-5.88-10.5-5.88-12.87,0-20.54,13-22.5,26.25-1.48,10,2.1,24.71,3.87,34.63,3.13,17.5-3.87,19.5-7.7,19.92a9.73,9.73,0,0,1-9.33-4.32c-1.95-3.13-2.36-7-2.43-10.64a69.72,69.72,0,0,1,2.8-21c1.65-5.6,4-11.15,3.92-17-.14-7-4.52-14-11.19-16.09s-15,2.27-16.06,9.16c-.53,3.36.53,6.76.47,10.16s-1.92,7.31-5.31,7.63c-4.6.43-6.81-5.87-5.68-10.36s4-8.78,3.2-13.33c-.91-5.36-6.7-8.83-12.13-8.83-22.43,0-20.8,22.14-28.47,22.14-4.66,0-6.09-4.5-8.09-9.76-1.65-4.35-4.24-9.5-10.5-9.5-19.24,0-23.88,20.64-22,31.32.71,4.05,2.29,8,2.52,12.06s-1.35,8.76-5.13,10.39-10.25-.77-9.26-8c1.84-13.48,4.6-22,4.26-33.76-.21-7.15-3.13-15.49-10-17.65-7.82-2.47-15.16,6.33-15.6,14.53s3.25,16,4.45,24.13c.5,3.39.53,7-.92,10.1s-4.69,5.58-8.11,5.25c-3.57-.34-6.29-3.57-7.33-7s-.81-7.1-.85-10.69a65.63,65.63,0,0,0-3.67-20.76,9.6,9.6,0,0,0-2.37-4.16c-2.13-1.91-5.54-1.71-8-.31s-2.77,5.07-6,6c-3.27.25-4.81-4-7.51-5.8-4-2.76-10,.83-11.21,5.56s.75,9.66,3.06,14,5.05,8.62,5.43,13.49-2.69,10.45-7.56,10.78c-6.29.66-10-17.89-8.33-28.26s5.8-24.47-1.75-30.61c-5.48-3-12.89,0-16.19,5.29s-3.2,12.16-1.55,18.2,4.71,11.59,7.11,17.38c4.8,11.61,6.94,24.45,5.2,36.89-.64,4.58-3.91,10.35-8.26,8.78-2.87-1-3.68-4.64-4.06-7.67l-3.84-30.68c-.66-5.21.2-22.85-11.5-20.16-10.87,2.5,5.51,50.25-10,50.25v35.85h1000Z" transform="translate(-107.17 -218.74)"/></svg>