<svg viewBox="0 0 1440 414" fill="none" xmlns="http://www.w3.org/2000/svg">
<g filter="url(#filter0_d)">
<path fill-rule="evenodd" clip-rule="evenodd" d="M0 225.98L60 240.98C120 254.98 240 283.98 360 268.98C480 254.98 600 196.98 720 146.98C840 96.9796 960 52.9796 1080 67.9796C1200 81.9796 1320 153.98 1380 189.98L1440 225.98V398.98H1380C1320 398.98 1200 398.98 1080 398.98C960 398.98 840 398.98 720 398.98C600 398.98 480 398.98 360 398.98C240 398.98 120 398.98 60 398.98H0V225.98Z" fill="white"/>
<path fill-rule="evenodd" clip-rule="evenodd" d="M0 225.98L60 240.98C120 254.98 240 283.98 360 268.98C480 254.98 600 196.98 720 146.98C840 96.9796 960 52.9796 1080 67.9796C1200 81.9796 1320 153.98 1380 189.98L1440 225.98V398.98H1380C1320 398.98 1200 398.98 1080 398.98C960 398.98 840 398.98 720 398.98C600 398.98 480 398.98 360 398.98C240 398.98 120 398.98 60 398.98H0V225.98Z"/>
</g>
<defs>
<filter id="filter0_d" x="-40" y="0" width="1520" height="413.98" filterUnits="userSpaceOnUse" color-interpolation-filters="sRGB">
<feFlood flood-opacity="0" result="BackgroundImageFix"/>
<feColorMatrix in="SourceAlpha" type="matrix" values="0 0 0 0 0 0 0 0 0 0 0 0 0 0 0 0 0 0 127 0"/>
<feOffset dy="-25"/>
<feGaussianBlur stdDeviation="20"/>
<feColorMatrix type="matrix" values="0 0 0 0 0.247059 0 0 0 0 0.239216 0 0 0 0 0.337255 0 0 0 0.3 0"/>
<feBlend mode="normal" in2="BackgroundImageFix" result="effect1_dropShadow"/>
<feBlend mode="normal" in="SourceGraphic" in2="effect1_dropShadow" result="shape"/>
</filter>
</defs>
</svg>
