<svg width="1440" height="1052" viewBox="0 0 1440 1052" fill="none" xmlns="http://www.w3.org/2000/svg">
<path fill-rule="evenodd" clip-rule="evenodd" d="M0 1052V216L60 180C120 144 240 72 360 36C480 0 600 0 720 0C840 0 960 0 1080 15C1192.89 28.1707 1305.78 54.6168 1368.72 69.3602L1368.72 69.3606L1368.72 69.3615C1372.68 70.2894 1376.45 71.171 1380 72L1440 87V923L1380 908C1376.45 907.171 1372.68 906.289 1368.72 905.361C1305.79 890.618 1192.89 864.171 1080 851C960 836 840 836 720 836C600 836 480 836 360 872C240 908 120 980 60 1016L0 1052Z" fill="#61ADD8"/>
</svg>
