<svg viewBox="0 0 1440 469" fill="none" xmlns="http://www.w3.org/2000/svg">
<g filter="url(#filter0_d)">
<path fill-rule="evenodd" clip-rule="evenodd" d="M0 404L60 353C120 303 240 202 360 166C480 130 600 159 720 166C840 173 960 159 1080 173C1200 188 1320 231 1380 253L1440 274V15H1380C1320 15 1200 15 1080 15C960 15 840 15 720 15C600 15 480 15 360 15C240 15 120 15 60 15H0V404Z" fill="white"/>
<path fill-rule="evenodd" clip-rule="evenodd" d="M0 404L60 353C120 303 240 202 360 166C480 130 600 159 720 166C840 173 960 159 1080 173C1200 188 1320 231 1380 253L1440 274V15H1380C1320 15 1200 15 1080 15C960 15 840 15 720 15C600 15 480 15 360 15C240 15 120 15 60 15H0V404Z"/>
</g>
<defs>
<filter id="filter0_d" x="-40" y="0" width="1520" height="469" filterUnits="userSpaceOnUse" color-interpolation-filters="sRGB">
<feFlood flood-opacity="0" result="BackgroundImageFix"/>
<feColorMatrix in="SourceAlpha" type="matrix" values="0 0 0 0 0 0 0 0 0 0 0 0 0 0 0 0 0 0 127 0"/>
<feOffset dy="25"/>
<feGaussianBlur stdDeviation="20"/>
<feColorMatrix type="matrix" values="0 0 0 0 0 0 0 0 0 0 0 0 0 0 0 0 0 0 0.05 0"/>
<feBlend mode="normal" in2="BackgroundImageFix" result="effect1_dropShadow"/>
<feBlend mode="normal" in="SourceGraphic" in2="effect1_dropShadow" result="shape"/>
</filter>
</defs>
</svg>
