<svg id="Layer_1" data-name="Layer 1" xmlns="http://www.w3.org/2000/svg" viewBox="0 0 1000 346.61"><defs><style>.cls-1{fill:#fbb040;opacity:0.5;}.cls-2{fill:#2bb673;}</style></defs><title>WoCode_ShapeDivider_Teeth</title><path class="cls-1" d="M110,538" transform="translate(-110 -218.74)"/><polygon class="cls-2" points="975 271.61 950 296.61 925 271.61 900 296.61 875 271.61 850 296.61 825 271.61 800 296.61 775 271.61 750 296.61 725 271.61 700 296.61 675 271.61 650 296.61 625 271.61 600 296.61 575 271.61 550 296.61 525 271.61 500 296.61 475 271.61 450 296.61 425 271.61 400 296.61 375 271.61 350 296.61 325 271.61 300 296.61 275 271.61 250 296.61 225 271.61 200 296.61 175 271.61 150 296.61 125 271.61 100 296.61 75 271.61 50 296.61 25 271.61 0 296.61 0 346.61 1000 346.61 1000 296.61 975 271.61"/><polygon class="cls-2" points="25 75 50 50 75 75 100 50 125 75 150 50 175 75 200 50 225 75 250 50 275 75 300 50 325 75 350 50 375 75 400 50 425 75 450 50 475 75 500 50 525 75 550 50 575 75 600 50 625 75 650 50 675 75 700 50 725 75 750 50 775 75 800 50 825 75 850 50 875 75 900 50 925 75 950 50 975 75 1000 50 1000 0 0 0 0 50 25 75"/></svg>