<svg id="Layer_1" data-name="Layer 1" xmlns="http://www.w3.org/2000/svg" viewBox="0 0 1000 346.61"><defs><style>.cls-1,.cls-2{fill:#fbb040;}.cls-1{opacity:0.5;}.cls-2{opacity:0.4;}</style></defs><title>WoCode_ShapeDivider_TangerineWave</title><path class="cls-1" d="M110,518v47.35H1110V453c-291,0-263,66-445,66-149.31,0-150.21-24.82-229.2-24.82h-8.61C277.67,494.18,262.25,568,110,518Z" transform="translate(-110 -218.74)"/><path class="cls-1" d="M110,538" transform="translate(-110 -218.74)"/><path class="cls-1" d="M110,518v47.35H1110V433c-291,0-263,86-445,86-149.31,0-150.21-24.82-229.2-24.82h-8.61C340,494.18,258.75,568.75,110,518Z" transform="translate(-110 -218.74)"/><path class="cls-2" d="M110,518c177.5,57.75,260-23.82,325.78-23.82,79,0,79.89,24.82,229.2,24.82,182,0,154-106,445-106V565.35H110Z" transform="translate(-110 -218.74)"/><path class="cls-1" d="M1110,266.09V218.74H110V331.09c291,0,263-66,445-66,149.31,0,150.21,24.83,229.2,24.83h8.61C942.33,289.92,957.75,216.09,1110,266.09Z" transform="translate(-110 -218.74)"/><path class="cls-1" d="M1110,266.09V218.74H110V351.09c291,0,263-86,445-86,149.31,0,150.21,24.83,229.2,24.83h8.61C880,289.92,961.25,215.34,1110,266.09Z" transform="translate(-110 -218.74)"/><path class="cls-2" d="M1110,266.09c-177.5-57.75-260,23.83-325.78,23.83-79,0-79.89-24.83-229.2-24.83-182,0-154,106-445,106V218.74H1110Z" transform="translate(-110 -218.74)"/></svg>