<svg id="Layer_1" data-name="Layer 1" xmlns="http://www.w3.org/2000/svg" viewBox="0 0 1000 346.61"><defs><style>.cls-1{fill:#00a79d;}</style></defs><title>WoCode_ShapeDivider_Paint</title><path class="cls-1" d="M1107.17,529.5c-6.35,0-7.15-4.62-7.15-10.2,0-13.54,4.21-30-1.16-42.45-1.31-3-3.32-6-6.38-7.26-4.71-1.92-10.3,1.13-12.84,5.54s-2.75,9.74-2.65,14.83a164.69,164.69,0,0,0,2,22.39,18.41,18.41,0,0,1,.25,6.93,7.89,7.89,0,0,1-5.93,6,6.47,6.47,0,0,1-7.18-3.93,11.47,11.47,0,0,1,0-5.73c2.31-13.25,4.73-26.62,4.17-40.07-.21-4.79-.85-9.75-3.4-13.82s-7.44-7-12.12-5.91a7,7,0,0,0-3.89,2.28,9.74,9.74,0,0,0-1.52,3.06,33.48,33.48,0,0,0-1.57,14.63c.48,4.2,1.76,8.29,2.06,12.51s.14,12.36-4.71,12.36a2.52,2.52,0,0,1-1.34-.36c-2.67-1.65-3.16-5.25-3.38-8.38l-.82-11.8c-.19-2.77-.87-6.18-3.54-6.93-2.4-.68-4.72,1.4-5.84,3.62a21,21,0,0,0-1.85,9.25,47.73,47.73,0,0,0,1.28,11.48,45.33,45.33,0,0,1,1.64,8c.14,2.74.08,6.64-2.6,7.21-5.55,1.18-11-3.4-12.89-8.73s-1.25-11.19-.78-16.84.65-11.64-2-16.61a17,17,0,0,0-15.23-8.5,19.07,19.07,0,0,0-15.17,9c-2,3.14-3.93,7.39-7.62,7.21-3.26-.17-5.05-3.86-5.74-7.05s-1.27-6.92-4.08-8.59c-3.55-2.11-8.33.86-9.77,4.74s-.61,8.17-.07,12.26.64,8.65-1.88,11.93-8.59,3.77-10.32,0a8.54,8.54,0,0,1-.11-5.34c1.37-6.36,4-12.74,2.84-19.14s-8.49-12.2-14-8.79c-6,3.68-5.1,18.32-11.86,16.38-5.67-1.63-8.44-9.86-14.33-9.55-3,.15-5.43,2.77-6.34,5.63s-.62,6-.33,9l2.37,24.46c.47,4.86-.25,11.41-5.06,12.23-2.88.5-5.67-1.75-6.74-4.46s-.84-5.75-.47-8.64a110,110,0,0,1,4.41-19.72c2.33-7.24,5.45-14.91,3.28-22.21a16.21,16.21,0,0,0-28-5.74c-3.94,4.75-4.86,11.29-5,17.46-.27,17.69,4.93,35.5,1.8,52.92-.29,1.61-.74,3.35-2,4.37-2.78,2.2-6.85-.61-8.48-3.76-7.84-15.14,8-33.63,3.14-50-2-6.9-8.32-12.65-15.5-13s-14.45,5.48-14.64,12.68c-.11,4.07,1.77,8.48-.24,12-2.37,4.17-10.51,4.3-11.43-.42-1-5.31,1.94-10.48,3.15-15.76s-.82-12.48-6.23-12.8c-5.87-.35-10,7.9-15.73,6.77-2.37-.47-4.3-2.52-6.72-2.56-6.78-.13-2.15,14.58-12.39,14.58-9,0-8-14.14-14.79-18.15-5.91-3.48-14-.3-18,5.3s-4.68,12.84-4.62,19.69.76,13.82-.82,20.49c-.57,2.42-1.64,5-3.88,6.07-4.1,1.95-11.07,2.29-10.76-5.75C726.22,492.07,735.88,466,717,466a21.53,21.53,0,0,0-17,7.77c-3.8,4.4-5.79,11.09-6.52,16.85-1.38,10.94,3.13,21.45,1.75,32.38-.38,3-3,8.5-6,8.75-3.62.3-7.3-3-7.3-9.8q0-17,0-34.1c0-6.62-.06-13.52-3-19.45s-9.6-9.95-16.1-8.71c-14.83,2.81-13.26,23.5-12.21,28.56,1.88,9,5.58,14.68,6.78,22.92.86,5.88,1.7,12-.31,17.62s-7.88,10.26-13.64,8.81c-5.34-1.36-8.29-7.16-9.26-12.59-1.51-8.43.07-17.1-.4-25.66s-3.83-17.92-11.61-21.5c-8.46-3.89-19.83,2.13-21.37,11.31-.91,5.42,2.57,15.09-4.46,15.09-4.1-.25-5.49-9.15-6.08-14.4-.37-3.36-.13-6.84-1.21-10.06s-4-6.17-7.4-5.74A9.75,9.75,0,0,0,576,477c-5.34,6.55-4.88,12.92-2.45,24.55,1.72,8.27,9.33,29.57.33,29.83-10.13,0-13.62-25.54-13.91-35.29-.18-6.07.36-12.18-.54-18.18s-3.51-12.09-8.56-15.45-12.84-2.9-16.29,2.09-1.46,11.77-.31,17.76,2.48,10.23,2.48,17.57c0,4.29-2.87,13.5-10.87,13.5-15.63,0-4-25.55-4.5-32.76a25.88,25.88,0,0,0-7.13-15.87c-4.08-4.21-15.86-5-20.32-1.16-3.26,2.8-3.55,7.62-5,11.65s-6.25,7.88-9.7,5.32a8.53,8.53,0,0,1-2.43-3.77l-3.2-7.72c-1.37-3.31-3.33-7.09-6.87-7.59-4.56-.65-7.74,4.86-7.5,9.46s2.46,8.95,2.52,13.56-3.68,9.9-8.13,8.71-5.07-7.11-4.8-11.68l.72-12.44c.23-4.06.42-8.35-1.42-12s-6.47-6.18-10.09-4.31-4.21,6.45-5.1,10.32-2.88,10.2-6.8,9.5c-3.46-.61-5.79-6.73-9-8.2-3.74-1.73-8.26,1.29-9.74,5.14s-.85,8.12-.36,12.21a146.27,146.27,0,0,1,.76,26.38c-.18,2.84-.67,6.09-3.08,7.61-2.24,1.41-5.38.6-7.27-1.27s-2.18-4.57-2.35-7.22c-.55-8.77,3.46-17.07,6.23-25.41s4.43-15.48.43-24.48c-.71-1.6-2.87-5.88-10.5-5.88-12.87,0-20.54,13-22.5,26.25-1.48,10,2.1,24.71,3.87,34.63,3.13,17.5-3.87,19.5-7.7,19.92a9.73,9.73,0,0,1-9.33-4.32c-1.95-3.13-2.36-7-2.43-10.64a69.72,69.72,0,0,1,2.8-21c1.65-5.6,4-11.15,3.92-17-.14-7-4.52-14-11.19-16.09s-15,2.27-16.06,9.16c-.53,3.36.53,6.76.47,10.16s-1.92,7.31-5.31,7.63c-4.6.43-6.81-5.87-5.68-10.36s4-8.78,3.2-13.33c-.91-5.36-6.7-8.83-12.13-8.83-22.43,0-20.8,22.14-28.47,22.14-4.66,0-6.09-4.5-8.09-9.76-1.65-4.35-4.24-9.5-10.5-9.5-19.24,0-23.88,20.64-22,31.32.71,4.05,2.29,8,2.52,12.06s-1.35,8.76-5.13,10.39-10.25-.77-9.26-8c1.84-13.48,4.6-22,4.26-33.76-.21-7.15-3.13-15.49-10-17.65-7.82-2.47-15.16,6.33-15.6,14.53s3.25,16,4.45,24.13c.5,3.39.53,7-.92,10.1s-4.69,5.58-8.11,5.25c-3.57-.34-6.29-3.57-7.33-7s-.81-7.1-.85-10.69a65.63,65.63,0,0,0-3.67-20.76,9.6,9.6,0,0,0-2.37-4.16c-2.13-1.91-5.54-1.71-8-.31s-2.77,5.07-6,6c-3.27.25-4.81-4-7.51-5.8-4-2.76-10,.83-11.21,5.56s.75,9.66,3.06,14,5.05,8.62,5.43,13.49-2.69,10.45-7.56,10.78c-6.29.66-10-17.89-8.33-28.26s5.8-24.47-1.75-30.61c-5.48-3-12.89,0-16.19,5.29s-3.2,12.16-1.55,18.2,4.71,11.59,7.11,17.38c4.8,11.61,6.94,24.45,5.2,36.89-.64,4.58-3.91,10.35-8.26,8.78-2.87-1-3.68-4.64-4.06-7.67l-3.84-30.68c-.66-5.21.2-22.85-11.5-20.16-10.87,2.5,5.51,50.25-10,50.25v35.85h1000Z" transform="translate(-107.17 -218.74)"/><path class="cls-1" d="M107.17,254.59c6.36,0,7.16,4.62,7.16,10.21,0,13.53-4.22,30,1.15,42.44,1.32,3,3.32,6,6.39,7.27,4.71,1.92,10.29-1.14,12.83-5.54s2.75-9.75,2.65-14.84a166.14,166.14,0,0,0-2-22.38,18.41,18.41,0,0,1-.25-6.93,7.86,7.86,0,0,1,5.92-6,6.46,6.46,0,0,1,7.18,3.92,11.47,11.47,0,0,1,0,5.73c-2.31,13.26-4.74,26.63-4.17,40.08.2,4.79.84,9.75,3.39,13.81s7.44,7,12.12,5.92a7,7,0,0,0,3.89-2.29A9.72,9.72,0,0,0,165,323a33.83,33.83,0,0,0,1.57-14.64c-.49-4.2-1.76-8.29-2.06-12.51s-.15-12.36,4.7-12.36a2.51,2.51,0,0,1,1.34.37c2.68,1.64,3.17,5.25,3.39,8.38l.82,11.8c.19,2.77.87,6.17,3.54,6.92,2.39.68,4.72-1.4,5.84-3.62a20.82,20.82,0,0,0,1.84-9.24,47.16,47.16,0,0,0-1.27-11.48,44.76,44.76,0,0,1-1.65-8.05c-.13-2.73-.07-6.64,2.61-7.21,5.54-1.17,11,3.4,12.88,8.73s1.26,11.19.79,16.84-.66,11.64,2,16.62A16.94,16.94,0,0,0,216.57,322a19.08,19.08,0,0,0,15.17-9c1.95-3.14,3.93-7.4,7.62-7.21,3.27.16,5.06,3.85,5.74,7s1.27,6.91,4.08,8.58c3.55,2.12,8.34-.86,9.77-4.74s.61-8.16.08-12.26-.65-8.65,1.87-11.92,8.6-3.78,10.33,0a8.58,8.58,0,0,1,.1,5.33c-1.36,6.36-4,12.75-2.84,19.15s8.49,12.19,14,8.79c6-3.68,5.11-18.33,11.86-16.38,5.67,1.63,8.44,9.86,14.33,9.55,3-.16,5.43-2.77,6.34-5.64s.63-6,.34-8.95L313,279.86c-.47-4.86.25-11.4,5.07-12.23,2.87-.49,5.66,1.75,6.74,4.46s.83,5.75.46,8.64a110.86,110.86,0,0,1-4.4,19.72c-2.34,7.25-5.46,14.92-3.28,22.21a16.21,16.21,0,0,0,28,5.74c4-4.74,4.86-11.28,5-17.45.26-17.7-4.93-35.5-1.8-52.92.29-1.62.73-3.35,2-4.37,2.77-2.2,6.85.61,8.48,3.76,7.84,15.14-8,33.63-3.14,50,2,6.9,8.31,12.66,15.5,13s14.44-5.48,14.63-12.67c.11-4.08-1.76-8.49.25-12,2.37-4.18,10.5-4.3,11.42.41,1,5.32-1.93,10.49-3.15,15.77s.83,12.48,6.24,12.8c5.86.35,10-7.91,15.72-6.77,2.37.46,4.31,2.51,6.73,2.56,6.78.12,2.14-14.59,12.39-14.59,9,0,8,14.15,14.79,18.16,5.91,3.47,14,.29,17.94-5.31s4.68-12.83,4.62-19.69-.76-13.82.82-20.49c.57-2.42,1.64-5,3.88-6.06,4.11-2,11.08-2.29,10.77,5.74-.54,13.78-10.19,39.84,8.68,39.84a21.48,21.48,0,0,0,17-7.77c3.81-4.39,5.79-11.08,6.52-16.85,1.39-10.93-3.13-21.44-1.75-32.38.38-3,3-8.5,6-8.75,3.63-.3,7.3,3,7.3,9.8q0,17.06,0,34.1c0,6.62.07,13.52,3,19.45s9.59,9.95,16.1,8.72c14.82-2.82,13.25-23.51,12.2-28.57-1.88-9-5.57-14.68-6.78-22.92-.86-5.87-1.69-12,.32-17.61s7.88-10.27,13.63-8.81c5.34,1.35,8.29,7.16,9.26,12.58,1.52,8.44-.07,17.11.41,25.66s3.82,17.93,11.61,21.5c8.46,3.89,19.82-2.12,21.36-11.31.91-5.41-2.56-15.09,4.46-15.09,4.1.25,5.5,9.15,6.08,14.4.38,3.37.14,6.85,1.21,10.06s4,6.18,7.4,5.74a9.66,9.66,0,0,0,5.66-3c5.34-6.55,4.88-12.91,2.46-24.54-1.72-8.28-9.33-29.58-.33-29.83,10.12,0,13.62,25.54,13.9,35.29.18,6.06-.36,12.17.54,18.17s3.51,12.1,8.57,15.46,12.84,2.9,16.28-2.09,1.47-11.77.31-17.76-2.48-10.23-2.48-17.57c0-4.29,2.88-13.5,10.88-13.5,15.62,0,4,25.55,4.5,32.75a25.84,25.84,0,0,0,7.12,15.87c4.09,4.21,15.87,5,20.32,1.16,3.26-2.79,3.55-7.61,5-11.65s6.25-7.87,9.69-5.31a8.44,8.44,0,0,1,2.43,3.77l3.2,7.72c1.38,3.3,3.33,7.08,6.87,7.59,4.57.64,7.75-4.86,7.5-9.46s-2.46-9-2.51-13.56,3.68-9.91,8.13-8.71,5.06,7.11,4.8,11.68L764.82,315c-.24,4.06-.43,8.35,1.41,12s6.48,6.19,10.1,4.32,4.2-6.46,5.1-10.33,2.87-10.19,6.79-9.5c3.46.61,5.8,6.74,9,8.21,3.74,1.72,8.26-1.3,9.75-5.14s.84-8.13.35-12.22a146.26,146.26,0,0,1-.75-26.38c.17-2.84.67-6.08,3.07-7.6s5.39-.61,7.27,1.26,2.19,4.57,2.35,7.22c.55,8.77-3.46,17.07-6.22,25.41s-4.44,15.49-.44,24.49c.71,1.59,2.88,5.87,10.5,5.87,12.88,0,20.54-13,22.5-26.25,1.49-10-2.1-24.7-3.87-34.62-3.13-17.5,3.87-19.5,7.7-19.92a9.73,9.73,0,0,1,9.34,4.32c1.94,3.13,2.36,6.95,2.43,10.63a69.75,69.75,0,0,1-2.81,21c-1.64,5.6-4,11.15-3.91,17,.13,7,4.51,14.05,11.19,16.08s15-2.26,16.05-9.16c.54-3.35-.52-6.76-.47-10.15s1.93-7.31,5.31-7.63c4.6-.44,6.81,5.87,5.68,10.35s-4,8.78-3.19,13.34c.9,5.35,6.7,8.82,12.13,8.82,22.42,0,20.8-22.14,28.46-22.14,4.66,0,6.09,4.51,8.09,9.76,1.66,4.36,4.25,9.5,10.5,9.5,19.25,0,23.88-20.64,22-31.31-.71-4.06-2.3-8-2.53-12.07s1.36-8.75,5.14-10.39,10.24.77,9.25,8c-1.84,13.48-4.6,22-4.26,33.75.21,7.15,3.14,15.49,10,17.65,7.83,2.47,15.17-6.33,15.6-14.52s-3.25-16-4.44-24.13c-.5-3.4-.53-7,.92-10.11s4.68-5.58,8.1-5.25,6.29,3.58,7.34,7,.8,7.09.85,10.68a65.26,65.26,0,0,0,3.67,20.76,9.68,9.68,0,0,0,2.36,4.16c2.13,1.91,5.55,1.72,8,.32s2.78-5.08,6-6c3.26-.25,4.81,3.94,7.51,5.79,4,2.76,10-.83,11.2-5.55s-.75-9.67-3.06-14-5.05-8.62-5.42-13.49,2.68-10.44,7.56-10.77c6.28-.67,10,17.89,8.32,28.26s-5.79,24.46,1.75,30.6c5.49,3,12.89,0,16.19-5.29s3.21-12.15,1.55-18.2-4.71-11.59-7.1-17.38c-4.8-11.61-7-24.44-5.21-36.89.65-4.58,3.91-10.35,8.26-8.77,2.87,1,3.68,4.63,4.06,7.66l3.85,30.69c.65,5.2-.21,22.84,11.49,20.15,10.87-2.5-5.5-50.25,10-50.25V218.74h-1000Z" transform="translate(-107.17 -218.74)"/></svg>