<svg xmlns="http://www.w3.org/2000/svg" xmlns:xlink="http://www.w3.org/1999/xlink" viewBox="0 0 1000 646.58"><defs><style>.cls-1{isolation:isolate;}.cls-2{fill:#a7a9ac;}.cls-3{fill:#fbb040;opacity:0.5;}.cls-4{fill:url(#linear-gradient);}.cls-5,.cls-9{mix-blend-mode:multiply;}.cls-5{fill:url(#linear-gradient-2);}.cls-6{fill:url(#linear-gradient-3);}.cls-7{fill:#d1d3d4;}.cls-8{fill:url(#linear-gradient-4);}.cls-9{fill:url(#linear-gradient-5);}.cls-10{fill:url(#linear-gradient-6);}.cls-11{fill:none;}</style><linearGradient id="linear-gradient" x1="605.39" y1="426.21" x2="614.04" y2="591.35" gradientUnits="userSpaceOnUse"><stop offset="0" stop-color="#dcddde"/><stop offset="1" stop-color="#231f20"/></linearGradient><linearGradient id="linear-gradient-2" x1="602.47" y1="428.43" x2="618.22" y2="608.38" gradientUnits="userSpaceOnUse"><stop offset="0" stop-color="#e3e3e3"/><stop offset="1"/></linearGradient><linearGradient id="linear-gradient-3" x1="604.48" y1="435.52" x2="615.98" y2="599.9" gradientUnits="userSpaceOnUse"><stop offset="0.23" stop-color="#e6e7e8"/><stop offset="0.66" stop-color="#c7c8ca"/></linearGradient><linearGradient id="linear-gradient-4" x1="605.39" y1="80.35" x2="614.04" y2="245.49" gradientTransform="translate(1220 438.24) rotate(180)" xlink:href="#linear-gradient"/><linearGradient id="linear-gradient-5" x1="602.47" y1="82.58" x2="618.22" y2="262.52" gradientTransform="translate(1220 438.24) rotate(180)" xlink:href="#linear-gradient-2"/><linearGradient id="linear-gradient-6" x1="604.48" y1="89.66" x2="615.98" y2="254.04" gradientTransform="translate(1220 438.24) rotate(180)" xlink:href="#linear-gradient-3"/></defs><title>WoCode_ShapeDivider_Torn</title><g class="cls-1"><g id="Layer_1" data-name="Layer 1"><path class="cls-2" d="M110,481s1.38-9.21,2.8-11.38l6.66-1.05c.14-3.47,4.54-6.38,8.7-5.76,3.82.58,6.76,3.56,10.64,3.7a17.36,17.36,0,0,0,4.41-.65,54.28,54.28,0,0,1,22.91,0c2-2,5.52-2.75,8.7-2.47a37.87,37.87,0,0,1,9.1,2.43,3,3,0,0,0,4-1.06c3.92-4,12.72-3.54,16,.85l2.46-2.37c3,2.13,8.32,1.76,11.92,3.12a27.41,27.41,0,0,0,19.2-.11l3.52,2.24c.24-2.43,2.46-2.65,5.31-3.31-.4,1.28-.36.66.09,1.93A50.68,50.68,0,0,0,264,467a35.57,35.57,0,0,1,7-1c2.36,0,4.87.84,6,2.54a31.45,31.45,0,0,0,4.65-4,9.62,9.62,0,0,1,2.23,5,16.34,16.34,0,0,1,6.23-3.73c2.47-.65,5.64,0,6.72,1.91.9-2.24,1.79-2.49,2.69-4.73,2.38,1.37,4.56,1,6.45,2.79,3-4.27,9.6-5.81,15.58-5.95a16.83,16.83,0,0,1,4,.28c3.76.84,6.24,3.7,8.4,6.37,1.17-1.47,3.9-1.16,5.81-.39s3.91,1.9,6,1.5,3.24-2,5.14-2.49c2.72-.73,6.76,1.54,6.16,3.84l23,3.32a30.91,30.91,0,0,0,9.54.38c1.47-.25,2.86-.71,4.28-1.08a38.45,38.45,0,0,1,15-.85,7.77,7.77,0,0,0,3.46,0,5.32,5.32,0,0,0,2.22-1.67c2-2.21,3.75-2.55,5.29-5a11.4,11.4,0,0,0,11,5.37c1.86-.15,3.56-.95,5.42-1.12,3.42-.3,7.07,1.59,10.15.32,1.44-.59,2.4-1.76,3.79-2.43s3.65-.35,3.89,1a40.36,40.36,0,0,0,19.08-.45c2.63-.72,5.53-1.71,8.06-.78a12.22,12.22,0,0,0,2.4.91c1.8.26,3.29-1,4.75-1.95,4.91-3.07,12.15-2.24,17.31-5a16.26,16.26,0,0,1,3.3-1.68c1.22-.35,2.83-.13,3.43.81l17.09-6a12.16,12.16,0,0,1,3.1-.78c3.89-.26,8.41,2.93,11.14.65,1-.85,1.2-2.12,1.75-3.22,2.43-4.88,10.82-5,15.91-8.17l2.22,2.8,7.94-5.21a48,48,0,0,0,10.71-2c2.33-.71,5-2.14,4.64-4.17,1.46,1.39,4.23,1.07,6.17.17s3.61-2.28,5.75-2.79c2.74-.64,6,.19,8.32-1.17,1.19-.7,1.94-1.89,3.29-2.35a7.17,7.17,0,0,1,2.62-.22q7.7.29,15.38.1c2.13-.05,4.82-.51,5.23-2.23,4,2.16,6.18,6.72,10.9,7.34a16.78,16.78,0,0,0,4.63-.3c6.85-1,14.09-.37,20.9.81,4.71-.36,10.11-1.05,12.57-4.37a5.7,5.7,0,0,1,1.24-1.49c1.22-.87,3.07-.54,4.63-.21a75.06,75.06,0,0,0,16.75,1.62,29.44,29.44,0,0,0,10.29-1.62l2.51,2.78c8.08,1.24,17.58,2.16,23.48-2.55a2.8,2.8,0,0,1,1.55-.8c.63,0,1.25.62.82,1l8.42-5.25c1.26.81,3.12.41,4.5-.25s2.66-1.58,4.24-1.75,3.48.94,3,2.19c.32-2,4-2.21,6.13-1.18s4.12,2.72,6.61,2.61c2.73,3.4,8.53,4,13.42,3.4s9.77-2,14.66-1.46c2.18.26,4.25.91,6.4,1.27a25,25,0,0,0,8.93-.11l2.39,2.56c1.24-1.15,3.56-1,5.13-.21a13.69,13.69,0,0,1,3.72,3.42,36.53,36.53,0,0,0,11.53,8.58c.62-2.05,4.32-1.85,6.55-.81s4.71,3.27,6.92,2.2l1.41,1.23a58.54,58.54,0,0,0,26.87,4.33,15.72,15.72,0,0,1,5.69.17c1.51.46,2.73,1.42,4.26,1.83,2.19.6,4.56,0,6.86-.18s5.12.5,5.7,2.33c3.63-2.26,8-4.66,12.39-3.72,3,.64,5.21,2.69,7.89,4a16.65,16.65,0,0,0,9.2,1.47,33.21,33.21,0,0,1,5.51-.69c1.86.07,4.3,1.21,4.54,2.73,4.9,1.76,11.35,3.29,15,.05a3.22,3.22,0,0,1,.88-.66c1.31-.54,2.5.82,3.67,1.56,2.79,1.78,6.7-.07,9.69-1.61s7.8-2.43,9.34.19c0-1.89,3.12-2.65,5.3-2.07s4.12,1.88,6.41,1.92a13.06,13.06,0,0,0,3.4-.55,47.85,47.85,0,0,1,13.78-1.19c.89.05,1.78.13,2.66.25,1.3.18,2.59.46,3.89.64,5.24.71,10.56-.28,15.73-1.26l14.92-2.84c1.07-.21,2.14-.41,3.18-.72.85-.26,1.68-.58,2.56-.77,4.06-.85,8,1.4,11.94,2.56a23.39,23.39,0,0,0,16.1-1.17,8.74,8.74,0,0,1,3.53-1.18,7.42,7.42,0,0,1,2.85.73c4.72,1.9,13.63,12.33,18.35,14.24v101.8H110Z" transform="translate(-110 81.23)"/><path class="cls-3" d="M110,538" transform="translate(-110 81.23)"/><path class="cls-4" d="M110,473.74a8.82,8.82,0,0,0,6.45-4.13l6.66-1.05c.14-3.47,4.54-6.38,8.69-5.76,3.82.58,6.76,3.56,10.64,3.7a17.43,17.43,0,0,0,4.42-.65,54.28,54.28,0,0,1,22.91,0c2-2,5.52-2.75,8.7-2.47a37.87,37.87,0,0,1,9.1,2.43,3,3,0,0,0,4-1.06c3.91-4,12.71-3.54,16,.85l2.46-2.37c3,2.13,8.31,1.76,11.92,3.12a27.41,27.41,0,0,0,19.2-.11l3.52,2.24c.24-2.43,2.45-4.65,5.31-5.31a6.15,6.15,0,0,0,.09,3.93,50.62,50.62,0,0,0,17.62-.06,35.68,35.68,0,0,1,7-1c2.36,0,4.88.84,6,2.54a31.53,31.53,0,0,0,4.66-4,9.7,9.7,0,0,1,2.23,5,16.3,16.3,0,0,1,6.22-3.73c2.47-.65,5.64,0,6.73,1.91l2.69-6.73a33.45,33.45,0,0,1,6.45,4.79c3-4.27,9.59-5.81,15.58-5.95a16.83,16.83,0,0,1,4,.28c3.76.84,6.24,3.7,8.4,6.37,1.17-1.47,3.9-1.16,5.81-.39s3.9,1.9,6,1.5,3.24-2,5.14-2.49c2.72-.73,6.76,1.54,6.16,3.84l23,3.32a31,31,0,0,0,9.55.38c1.46-.25,2.86-.71,4.28-1.08a38.44,38.44,0,0,1,15-.85,7.77,7.77,0,0,0,3.46,0,5.29,5.29,0,0,0,2.21-1.67,51.64,51.64,0,0,0,5.3-7c2.42,3.62,6,7.78,11,7.37,1.86-.15,3.56-.95,5.41-1.12,3.43-.3,7.08,1.59,10.16.32,1.44-.59,2.4-1.76,3.79-2.43s3.65-.35,3.88,1a40.35,40.35,0,0,0,19.08-.45c2.64-.72,5.53-1.71,8.07-.78a12,12,0,0,0,2.4.91c1.8.26,3.29-1,4.75-1.95,4.91-3.07,12.15-2.24,17.3-5a16.8,16.8,0,0,1,3.3-1.68c1.23-.35,2.84-.13,3.43.81l17.1-6a12.16,12.16,0,0,1,3.1-.78c3.88-.26,8.4,2.93,11.14.65,1-.85,1.2-2.12,1.74-3.22,2.44-4.88,10.82-5,15.92-8.17l2.21,2.8,8-5.21a48,48,0,0,0,10.71-2c2.32-.71,5-2.14,4.64-4.17,1.46,1.39,4.23,1.07,6.17.17s3.6-2.28,5.75-2.79c2.74-.64,6,.19,8.32-1.17,1.19-.7,1.94-1.89,3.29-2.35a7.14,7.14,0,0,1,2.62-.22q7.68.29,15.38.1c2.13-.05,4.82-.51,5.23-2.23,4,2.16,6.18,6.72,10.9,7.34a16.73,16.73,0,0,0,4.62-.3c6.86-1,14.1-.37,20.91.81,4.71-.36,10.11-1.05,12.56-4.37a5.94,5.94,0,0,1,1.25-1.49c1.22-.87,3.06-.54,4.62-.21a75.12,75.12,0,0,0,16.75,1.62,29.49,29.49,0,0,0,10.3-1.62l2.5,2.78c8.09,1.24,17.59,2.16,23.49-2.55a2.8,2.8,0,0,1,1.55-.8c.63,0,1.25.62.81,1l8.43-5.25c1.26.81,3.12.41,4.49-.25s2.67-1.58,4.25-1.75,3.48.94,3,2.19c.33-2,4-2.21,6.14-1.18s4.12,2.72,6.61,2.61c2.73,3.4,8.52,4,13.42,3.4s9.76-2,14.66-1.46c2.17.26,4.25.91,6.4,1.27a25,25,0,0,0,8.93-.11l2.38,2.56c1.24-1.15,3.57-1,5.14-.21a13.5,13.5,0,0,1,3.71,3.42,36.69,36.69,0,0,0,11.54,8.58c.61-2.05,4.32-1.85,6.55-.81s4.7,3.27,6.92,2.2l1.4,1.23a58.56,58.56,0,0,0,26.87,4.33,15.77,15.77,0,0,1,5.7.17c1.51.46,2.73,1.42,4.25,1.83,2.2.6,4.57,0,6.87-.18s5.11.5,5.7,2.33c3.63-2.26,8-4.66,12.39-3.72,3,.64,5.21,2.69,7.88,4a16.7,16.7,0,0,0,9.21,1.47,33.21,33.21,0,0,1,5.51-.69c1.86.07,4.3,1.21,4.53,2.73,4.9,1.76,11.36,3.29,15,.05a3.33,3.33,0,0,1,.87-.66c1.32-.54,2.51.82,3.67,1.56,2.8,1.78,6.71-.07,9.7-1.61s7.79-2.43,9.34.19c0-1.89,3.12-2.65,5.3-2.07s4.12,1.88,6.41,1.92a13.13,13.13,0,0,0,3.4-.55,47.78,47.78,0,0,1,13.77-1.19c.89.05,1.78.13,2.66.25,1.31.18,2.59.46,3.9.64,5.23.71,10.56-.28,15.73-1.26l14.92-2.84c1.07-.21,2.14-.41,3.17-.72.86-.26,1.68-.58,2.56-.77,4.07-.85,8,1.4,12,2.56a23.4,23.4,0,0,0,16.1-1.17,8.69,8.69,0,0,1,3.53-1.18,7.42,7.42,0,0,1,2.85.73c4.72,1.9,14.7,2.28,14.7,14.24v101.8H110Z" transform="translate(-110 81.23)"/><path class="cls-5" d="M1110,463.55c-15.35.47-31.17.94-46.41-.59-2.51,1.32-5.56.76-8.53,1-9,.68-17-1.35-25.38-4a13.72,13.72,0,0,0-4.34-.9c-2.42.06-4.61,1.49-7,1.37a16.74,16.74,0,0,1-3.93-1c-5.17-1.55-11.46,0-14.77,3.59a53.9,53.9,0,0,0-11.61-3.8,5.78,5.78,0,0,0-3-.05,5.38,5.38,0,0,0-2.27,2c-3.49,4.2-11,6.4-17.2,6.58s-12.24-1.41-17.86-3.54c-4-1.52-7.94-3.33-12.25-4.15s-9.24-.5-12.59,1.88c-2.06-4-9.8-2.76-13,.7-4.2-4.77-12.42-5.29-19.57-5.68a245.3,245.3,0,0,1-34.07-4.24c-4.22-.83-8.41-1.78-12.69-2.3-8.24-1-14.84.68-23.13.13-10.78-.7-21.6-3-32.41-2.87-5.63.06-12.55-.75-18,.57-8.1,2-15.19,6.42-23.51,7.64-8,1.16-16.26-.79-24.3.15-10.06,1.16-19.41,6.78-29.46,5.54-3.6-.44-7-1.77-10.67-1.85s-7.83,1.76-8,4.76c-18.06-6.05-39-.5-57.9-4.45-4.78-1-11.28-2-13.42,1.65-2.91-1.59-5.51-.21-9,.22-6.53.82-13.18,1.68-19,4.17-4.44,1.89-10.31,4.68-14,1.87-10.21,2.35-22.85,4.7-33.07,7a17.89,17.89,0,0,0-3.38,1c-1.24.56-2.29,1.38-3.53,1.94-2.22,1-4.9,1.08-7.16,2s-4,2.64-5.87,4.05c-6.75,5-16.38,6.23-25.45,6.78s-16.1.74-24.1,4.28c-3.69,1.63-7.83,4-11.64,2.59a21.17,21.17,0,0,1-3.16-1.77c-4.11-2.38-9.49-2.48-14.52-2.62-11.85-.32-24-1.43-34.58-5.8-4.77-2-10.25-4.74-14.64-2.24-9.56,5.43-20.73,1.69-31.36,5.54a23,23,0,0,1-4.8,1.55,16.06,16.06,0,0,1-5.3-.45A194.83,194.83,0,0,1,316,485.89a24.54,24.54,0,0,0-7.85-1.71c-4.54,0-9.28,2.61-13.31.88a13.93,13.93,0,0,1-3.56-2.63c-5-4.35-15.29-7-22.17-5a51.46,51.46,0,0,1-5.46,1.69c-2.63.45-5.34-.09-8-.52a73.11,73.11,0,0,0-24.25-.19c-2.86.42-5.78,1-8.62.53-4.56-.74-8.21-4-12.84-4.27-6.25-.4-12.62,4.65-18.12,2.19-1.5-.67-2.86-1.87-4.54-1.7-1.31.14-2.23,1.07-3.32,1.68-4.93,2.75-13.76.54-19.71.74-3.24.11-7.57,1.14-8.93-1.29-.5-.9-.28-2-.74-2.89-.79-1.58-3.24-2.09-5.31-1.95s-4.13.7-6.18.42c-3.31-.45-6.2-3.07-9.45-2.37a8.72,8.72,0,0,0-2.87,1.4c-6.37,4.15-14.4,8.31-20.78,12.46v82H1110Z" transform="translate(-110 81.23)"/><path class="cls-6" d="M1110,463.55a359.31,359.31,0,0,1-46.41-1.59,22.15,22.15,0,0,1-8.53,2,71.42,71.42,0,0,1-26.59-3,13.78,13.78,0,0,0-4.34-.9c-2.43.06-4.62,1.49-7,1.37a16.87,16.87,0,0,1-3.93-1c-5.16-1.55-11.45,0-14.77,3.59a53.72,53.72,0,0,0-11.61-3.8,5.78,5.78,0,0,0-3-.05,5.5,5.5,0,0,0-2.27,2c-3.48,4.2-9.8,6.4-16,6.58s-12.24-1.41-17.86-3.54c-4-1.52-7.94-3.33-12.25-4.15s-9.24-.5-12.59,1.88c-2.06-4-9.8-4.76-13-1.3-4.2-4.77-12.42-5.29-19.57-5.68a245.3,245.3,0,0,1-34.07-4.24c-4.22-.83-8.41-1.78-12.69-2.3-8.24-1-14.84.68-23.13.13q-16.17-1-32.41-.87c-5.63.06-11.34.25-16.74,1.57-8.1,2-15.2,6.42-23.51,7.64-8,1.16-16.27-.79-24.31.15-10.06,1.16-19.4,6.78-29.45,5.54-3.61-.44-7-1.77-10.67-1.85s-7.83,1.76-8,4.76c-18.06-6.05-39-.5-57.91-4.45-4.78-1-11.28-2-13.41,1.65-2.91-1.59-6.73-1.21-10.18-.78-6.53.82-13.18,1.68-19,4.17-4.44,1.89-10.31,4.68-14,1.87l-30.63,7a18.21,18.21,0,0,0-3.39,1c-1.24.56-2.29,1.38-3.53,1.94-2.22,1-4.89,1.08-7.16,2s-4,2.64-5.87,4.05c-6.75,5-16.38,6.23-25.45,6.78s-18.53.74-26.53,4.28c-3.69,1.63-7.83,4-11.64,2.59a21.17,21.17,0,0,1-3.16-1.77c-4.11-2.38-9.49-2.48-14.52-2.62-11.85-.32-24-1.43-34.58-5.8-4.77-2-10.25-4.74-14.64-2.24-9.56,5.43-23.17,1.69-33.79,5.54a22.89,22.89,0,0,1-4.81,1.55,16,16,0,0,1-5.29-.45,194.83,194.83,0,0,1-22.26-5.94,24.59,24.59,0,0,0-7.85-1.71c-4.54,0-9.28,2.61-13.31.88a13.93,13.93,0,0,1-3.56-2.63c-5-4.35-12.86-7-19.74-5a51.46,51.46,0,0,1-5.46,1.69c-2.63.45-5.34-.09-8-.52A88.39,88.39,0,0,0,229,479.4c-2.86.42-5.78,1-8.63.53-4.55-.74-8.2-4-12.83-4.27-6.25-.4-12.62,4.65-18.13,2.19-1.49-.67-2.85-1.87-4.53-1.7-1.31.14-2.24,1.07-3.33,1.68-4.92,2.75-11.32-1.46-17.27-1.26-3.24.11-7.57,1.14-8.93-1.29-.5-.9-.28-2-.74-2.89-.79-1.58-3.24-2.09-5.31-1.95s-4.13.7-6.18.42c-3.31-.45-6.2-3.07-9.45-2.37a8.72,8.72,0,0,0-2.87,1.4c-6.37,4.15-14.4,8.31-20.78,12.46v83H1110Z" transform="translate(-110 81.23)"/><path class="cls-7" d="M110,482.35c6.38-4.15,14.41-8.31,20.78-12.46a8.72,8.72,0,0,1,2.87-1.4c3.25-.7,6.14,4.66,9.45,5.11,2.05.29,4.11-.28,6.18-.42s4.52.37,5.31,1.95c.46.92.24-.75.74.15,1.36,2.43,5.69,1.4,8.93,1.29,6-.2,12.35,6.75,17.27,4,1.09-.61,2-4.28,3.33-4.42,1.68-.17,3,3.77,4.53,4.44,5.51,2.46,11.88-5.33,18.13-4.93,4.63.3,8.28,6.27,12.83,7,2.85.45,5.77-.11,8.63-.53,8.8-1.29,17.9-4,26.68-2.55,2.63.43,5.34,1,8,.52a51.46,51.46,0,0,0,5.46-1.69c6.88-2,14.74,3.4,19.74,7.75a13.93,13.93,0,0,0,3.56,2.63c4,1.73,8.77-3.58,13.31-3.62a24.59,24.59,0,0,1,7.85,1.71,194.83,194.83,0,0,0,22.26,5.94,16,16,0,0,0,5.29.45,22.89,22.89,0,0,0,4.81-1.55c10.62-3.85,24.23,2.63,33.79-2.8a16.8,16.8,0,0,1,14.64-.5c10.6,4.37,22.73,5.48,34.58,5.8,5,.14,10.41.24,14.52,2.62a21.17,21.17,0,0,0,3.16,1.77c3.81,1.41,7.95,1.78,11.64.15,8-3.54,12.45-4.32,21.52-4.88s18.92-1.16,25.68-6.17c1.9-1.41,5.78-3.08,8-5.29,1.63-1.59,4.76.35,7-.64,1.24-.56,3-.79,4.22-1.35,1.05-.48,4.28.09,5.44-.17,10.21-2.36,15.26-4.09,25.47-6.44,3.64,2.82,14.75-2.16,19.19-4.05,5.87-2.49,12.52-3.34,19-4.17,3.45-.43,7.27-.8,10.18.78,2.13-3.66,8.49-1.91,13.41-1.65,7.49.4,10.26,4.22,13.57,3.15,13.68-4.42,15.85,3.51,23.41.25,6.38-2.75,16.58-1.31,24.25,1.25.14-3,4.32-4.83,8-4.75s3.74,1.2,7.35,1.64c10,1.24,19.39-4.38,29.45-5.54,8-.94,16.31,1,24.31-.15,8.31-1.22,15.41-5.66,23.51-7.64,5.4-1.32,11.11-1.51,16.74-1.57q16.21-.18,32.41.88c8.29.54,14.89-1.15,23.13-.14,4.28.53,8.47,1.47,12.69,2.3a246.84,246.84,0,0,0,34.07,4.25c7.15.38,15.37-1.84,19.57,2.93,3.17-3.46,10.91-2.68,13,1.3,3.35-2.38,8.28-2.7,12.59-1.88s8.23,2.63,12.25,4.15c5.62,2.13,11.69,6.47,17.86,6.28s12.5-2.38,16-6.58c.64-.77,1.24-4.38,2.27-4.74a5.78,5.78,0,0,1,3,.05c4.06.84,8,4.86,11.61,6.54,3.32-3.61,9.61-5.14,14.77-3.59a16.87,16.87,0,0,0,3.93,1c2.42.12,4.61-1.31,7-1.37,1.5,0,5-.42,6.44,0,8.43,2.65,15.5,1.82,24.49,1.14,3-.23,8.25.85,10.77-.48,15.24,1.54,28.82.55,44.17.08a359.31,359.31,0,0,1-46.41-1.59,22.15,22.15,0,0,1-8.53,2,71.42,71.42,0,0,1-26.59-3,13.78,13.78,0,0,0-4.34-.9c-2.43.06-4.62,1.49-7,1.37a16.87,16.87,0,0,1-3.93-1c-5.16-1.55-11.45,0-14.77,3.59a53.72,53.72,0,0,0-11.61-3.8,5.78,5.78,0,0,0-3-.05,5.5,5.5,0,0,0-2.27,2c-3.48,4.2-9.8,6.4-16,6.58s-12.24-1.41-17.86-3.54c-4-1.52-7.94-3.33-12.25-4.15s-9.24-.5-12.59,1.88c-2.06-4-9.8-4.76-13-1.3-4.2-4.77-12.42-5.29-19.57-5.68a245.3,245.3,0,0,1-34.07-4.24c-4.22-.83-8.41-1.78-12.69-2.3-8.24-1-14.84.68-23.13.13q-16.17-1-32.41-.87c-5.63.06-11.34.25-16.74,1.57-8.1,2-15.2,6.42-23.51,7.64-8,1.16-16.27-.79-24.31.15-10.06,1.16-19.4,6.78-29.45,5.54-3.61-.44-7-1.77-10.67-1.85s-7.83,1.76-8,4.76c-18.06-6.05-39-.5-57.91-4.45-4.78-1-11.28-2-13.41,1.65-2.91-1.59-6.73-1.21-10.18-.78-6.53.82-13.18,1.68-19,4.17-4.44,1.89-10.31,4.68-14,1.87l-30.63,7a18.21,18.21,0,0,0-3.39,1c-1.24.56-2.29,1.38-3.53,1.94-2.22,1-4.89,1.08-7.16,2s-4,2.64-5.87,4.05c-6.75,5-16.38,6.23-25.45,6.78s-18.53.74-26.53,4.28c-3.69,1.63-7.83,4-11.64,2.59a21.17,21.17,0,0,1-3.16-1.77c-4.11-2.38-9.49-2.48-14.52-2.62-11.85-.32-24-1.43-34.58-5.8-4.77-2-10.25-4.74-14.64-2.24-9.56,5.43-23.17,1.69-33.79,5.54a22.89,22.89,0,0,1-4.81,1.55,16,16,0,0,1-5.29-.45,194.83,194.83,0,0,1-22.26-5.94,24.59,24.59,0,0,0-7.85-1.71c-4.54,0-9.28,2.61-13.31.88a13.93,13.93,0,0,1-3.56-2.63c-5-4.35-12.86-7-19.74-5a51.46,51.46,0,0,1-5.46,1.69c-2.63.45-5.34-.09-8-.52A88.39,88.39,0,0,0,229,479.4c-2.86.42-5.78,1-8.63.53-4.55-.74-8.2-4-12.83-4.27-6.25-.4-12.62,4.65-18.13,2.19-1.49-.67-2.85-1.87-4.53-1.7-1.31.14-2.24,1.07-3.33,1.68-4.92,2.75-11.32-1.46-17.27-1.26-3.24.11-7.57,1.14-8.93-1.29-.5-.9-.28-2-.74-2.89-.79-1.58-3.24-2.09-5.31-1.95s-4.13.7-6.18.42c-3.31-.45-6.2-3.07-9.45-2.37a8.72,8.72,0,0,0-2.87,1.4C124.41,474,116.38,478.2,110,482.35Z" transform="translate(-110 81.23)"/><path class="cls-2" d="M1110,303.1s-1.38,9.21-2.8,11.38l-6.66,1c-.14,3.47-4.54,6.39-8.7,5.76-3.82-.57-6.76-3.55-10.64-3.7a17.81,17.81,0,0,0-4.41.65,54.12,54.12,0,0,1-22.91,0c-2,2.05-5.52,2.75-8.7,2.47a37.85,37.85,0,0,1-9.1-2.42,2.94,2.94,0,0,0-4,1.06c-3.92,4-12.72,3.53-16-.85l-2.46,2.37c-3-2.13-8.32-1.76-11.92-3.13a27.41,27.41,0,0,0-19.2.12L979,315.65c-.24,2.43-2.46,2.65-5.31,3.31.4-1.28.36-.65-.09-1.92a50.68,50.68,0,0,0-17.63.06,36.34,36.34,0,0,1-7,1c-2.36,0-4.87-.84-6-2.54a30.86,30.86,0,0,0-4.65,4,9.69,9.69,0,0,1-2.23-5,16.6,16.6,0,0,1-6.23,3.73c-2.47.64-5.64,0-6.72-1.92-.9,2.25-1.79,2.49-2.69,4.73-2.38-1.36-4.56-1-6.45-2.79-3,4.28-9.6,5.81-15.58,5.95a16.33,16.33,0,0,1-4-.27c-3.76-.84-6.24-3.7-8.4-6.37-1.17,1.46-3.9,1.16-5.81.38s-3.91-1.89-6-1.5-3.24,2-5.14,2.5c-2.72.73-6.76-1.55-6.16-3.85l-23-3.32a31.23,31.23,0,0,0-9.54-.38c-1.47.25-2.86.71-4.28,1.08a38.45,38.45,0,0,1-15,.86,7.63,7.63,0,0,0-3.46,0,5.32,5.32,0,0,0-2.22,1.67c-2,2.22-3.75,2.56-5.29,5a11.38,11.38,0,0,0-11-5.38c-1.86.16-3.56,1-5.42,1.12-3.42.3-7.07-1.58-10.15-.32-1.44.59-2.4,1.77-3.79,2.43s-3.65.35-3.89-1a40.49,40.49,0,0,0-19.08.45c-2.63.72-5.53,1.71-8.06.78a12.18,12.18,0,0,0-2.4-.9c-1.8-.26-3.29,1-4.75,1.95-4.91,3.07-12.15,2.24-17.31,5a16.23,16.23,0,0,1-3.3,1.67c-1.22.35-2.83.14-3.43-.81l-17.09,6a11.76,11.76,0,0,1-3.1.78c-3.89.27-8.41-2.93-11.14-.64-1,.84-1.2,2.12-1.75,3.21-2.43,4.88-10.82,5-15.91,8.18l-2.22-2.81-7.94,5.21a48,48,0,0,0-10.71,2c-2.33.71-5,2.15-4.64,4.17-1.46-1.39-4.23-1.07-6.17-.16s-3.61,2.28-5.75,2.78c-2.74.65-6-.18-8.32,1.17-1.19.7-1.94,1.9-3.29,2.36a7.17,7.17,0,0,1-2.62.21q-7.7-.29-15.38-.1c-2.13.06-4.82.51-5.23,2.23-4-2.16-6.18-6.71-10.9-7.34a17.17,17.17,0,0,0-4.63.3c-6.85,1-14.09.37-20.9-.81-4.71.36-10.11,1.05-12.57,4.38a5.86,5.86,0,0,1-1.24,1.49c-1.22.86-3.07.53-4.63.2a75.66,75.66,0,0,0-16.75-1.62,29.67,29.67,0,0,0-10.29,1.62L501.9,355c-8.08-1.25-17.58-2.17-23.48,2.54a2.8,2.8,0,0,1-1.55.8c-.63,0-1.25-.61-.82-1l-8.42,5.25c-1.26-.81-3.12-.41-4.5.25s-2.66,1.58-4.24,1.75-3.48-.93-3-2.19c-.32,2-4,2.21-6.13,1.19s-4.12-2.73-6.61-2.62c-2.73-3.39-8.53-4-13.42-3.4s-9.77,2-14.66,1.46c-2.18-.26-4.25-.9-6.4-1.27a25,25,0,0,0-8.93.11l-2.39-2.55c-1.24,1.14-3.56,1-5.13.2a13.81,13.81,0,0,1-3.72-3.41,36.71,36.71,0,0,0-11.53-8.59c-.62,2.06-4.32,1.86-6.55.81s-4.71-3.27-6.92-2.2l-1.41-1.22a58.54,58.54,0,0,0-26.87-4.33,15.71,15.71,0,0,1-5.69-.18c-1.51-.46-2.73-1.41-4.26-1.83-2.19-.6-4.56,0-6.86.18s-5.12-.49-5.7-2.33c-3.63,2.27-8,4.67-12.39,3.73-3-.64-5.21-2.7-7.89-4a16.74,16.74,0,0,0-9.2-1.47,33.22,33.22,0,0,1-5.51.7c-1.86-.07-4.3-1.21-4.54-2.73-4.9-1.76-11.35-3.3-15-.06a3,3,0,0,1-.88.66c-1.31.55-2.5-.82-3.67-1.56-2.79-1.77-6.7.07-9.69,1.62s-7.8,2.42-9.34-.19c0,1.88-3.12,2.64-5.3,2.07s-4.12-1.88-6.41-1.93a14,14,0,0,0-3.4.55,47.85,47.85,0,0,1-13.78,1.2c-.89-.06-1.78-.13-2.66-.26-1.3-.18-2.59-.46-3.89-.64-5.24-.7-10.56.28-15.73,1.27l-14.92,2.84a31.13,31.13,0,0,0-3.18.72c-.85.25-1.68.58-2.56.76-4.06.85-8-1.4-11.94-2.56a23.45,23.45,0,0,0-16.1,1.18,8.73,8.73,0,0,1-3.53,1.17,7.4,7.4,0,0,1-2.85-.72c-4.72-1.91-13.63-12.33-18.35-14.24V218.74H1110Z" transform="translate(-110 81.23)"/><path class="cls-8" d="M1110,310.35a8.82,8.82,0,0,0-6.45,4.13l-6.66,1c-.14,3.47-4.54,6.39-8.69,5.76-3.82-.57-6.76-3.55-10.64-3.7a17.89,17.89,0,0,0-4.42.65,54.12,54.12,0,0,1-22.91,0c-2,2.05-5.52,2.75-8.7,2.47a37.85,37.85,0,0,1-9.1-2.42,3.93,3.93,0,0,0-2.13-.32,4,4,0,0,0-1.88,1.38c-3.91,4-12.71,3.53-16-.85l-2.46,2.37c-3-2.13-8.31-1.76-11.92-3.13a27.41,27.41,0,0,0-19.2.12l-3.52-2.25c-.24,2.43-2.45,4.65-5.31,5.31A6.12,6.12,0,0,0,970,317a50.62,50.62,0,0,0-17.62.06,36.45,36.45,0,0,1-7,1c-2.36,0-4.88-.84-6-2.54a30.94,30.94,0,0,0-4.66,4,9.77,9.77,0,0,1-2.23-5,16.56,16.56,0,0,1-6.22,3.73c-2.47.64-5.64,0-6.73-1.92L916.83,323a33,33,0,0,1-6.45-4.79c-3,4.28-9.59,5.81-15.58,5.95a16.33,16.33,0,0,1-4-.27c-3.76-.84-6.24-3.7-8.4-6.37-1.17,1.46-3.9,1.16-5.81.38s-3.9-1.89-6-1.5-3.24,2-5.14,2.5c-2.72.73-6.76-1.55-6.16-3.85l-23-3.32a31.3,31.3,0,0,0-9.55-.38c-1.46.25-2.86.71-4.28,1.08a38.44,38.44,0,0,1-15,.86,7.63,7.63,0,0,0-3.46,0,5.29,5.29,0,0,0-2.21,1.67,52.36,52.36,0,0,0-5.3,7c-2.42-3.63-6-7.79-11-7.38-1.86.16-3.56,1-5.41,1.12-3.43.3-7.08-1.58-10.16-.32-1.44.59-2.4,1.77-3.79,2.43s-3.65.35-3.88-1a40.48,40.48,0,0,0-19.08.45c-2.64.72-5.53,1.71-8.07.78a12,12,0,0,0-2.4-.9c-1.8-.26-3.29,1-4.75,1.95-4.91,3.07-12.15,2.24-17.3,5a16.76,16.76,0,0,1-3.3,1.67c-1.23.35-2.84.14-3.43-.81l-17.1,6a11.76,11.76,0,0,1-3.1.78c-3.88.27-8.4-2.93-11.14-.64-1,.84-1.2,2.12-1.74,3.21-2.44,4.88-10.82,5-15.92,8.18l-2.21-2.81-8,5.21a48,48,0,0,0-10.71,2c-2.32.71-5,2.15-4.64,4.17-1.46-1.39-4.23-1.07-6.17-.16s-3.6,2.28-5.75,2.78c-2.74.65-6-.18-8.32,1.17-1.19.7-1.94,1.9-3.29,2.36a7.14,7.14,0,0,1-2.62.21q-7.68-.29-15.38-.1c-2.13.06-4.82.51-5.23,2.23-4-2.16-6.18-6.71-10.9-7.34a17.13,17.13,0,0,0-4.62.3c-6.86,1-14.1.37-20.91-.81-4.71.36-10.11,1.05-12.56,4.38a6.12,6.12,0,0,1-1.25,1.49c-1.22.86-3.06.53-4.62.2a75.71,75.71,0,0,0-16.75-1.62,29.73,29.73,0,0,0-10.3,1.62l-2.5-2.77c-8.09-1.25-17.59-2.17-23.49,2.54a2.8,2.8,0,0,1-1.55.8c-.63,0-1.25-.61-.81-1L464,362.61c-1.26-.81-3.12-.41-4.49.25s-2.67,1.58-4.25,1.75-3.48-.93-3-2.19c-.33,2-4,2.21-6.14,1.19s-4.12-2.73-6.61-2.62c-2.73-3.39-8.52-4-13.42-3.4s-9.76,2-14.66,1.46c-2.17-.26-4.25-.9-6.4-1.27a25,25,0,0,0-8.93.11l-2.38-2.55c-1.24,1.14-3.57,1-5.14.2a13.62,13.62,0,0,1-3.71-3.41,36.87,36.87,0,0,0-11.54-8.59c-.61,2.06-4.32,1.86-6.55.81s-4.7-3.27-6.92-2.2l-1.4-1.22a58.56,58.56,0,0,0-26.87-4.33,15.77,15.77,0,0,1-5.7-.18c-1.51-.46-2.73-1.41-4.25-1.83-2.2-.6-4.57,0-6.87.18s-5.11-.49-5.7-2.33c-3.63,2.27-8,4.67-12.39,3.73-3-.64-5.21-2.7-7.88-4a16.79,16.79,0,0,0-9.21-1.47,33.22,33.22,0,0,1-5.51.7c-1.86-.07-4.3-1.21-4.53-2.73-4.9-1.76-11.36-3.3-15-.06a3.13,3.13,0,0,1-.87.66c-1.32.55-2.51-.82-3.67-1.56-2.8-1.77-6.71.07-9.7,1.62s-7.79,2.42-9.34-.19c0,1.88-3.12,2.64-5.3,2.07s-4.12-1.88-6.41-1.93a14,14,0,0,0-3.4.55,47.79,47.79,0,0,1-13.77,1.2c-.89-.06-1.78-.13-2.66-.26-1.31-.18-2.59-.46-3.9-.64-5.23-.7-10.56.28-15.73,1.27l-14.92,2.84a30.35,30.35,0,0,0-3.17.72c-.86.25-1.68.58-2.56.76-4.07.85-8-1.4-11.95-2.56a23.46,23.46,0,0,0-16.1,1.18,8.68,8.68,0,0,1-3.53,1.17,7.4,7.4,0,0,1-2.85-.72c-4.72-1.91-14.7-2.28-14.7-14.24V218.74H1110Z" transform="translate(-110 81.23)"/><path class="cls-9" d="M110,320.55c15.35-.47,31.17-.94,46.41.59,2.51-1.33,5.56-.77,8.53-1,9-.68,16.95,1.35,25.38,4a13.19,13.19,0,0,0,4.34.9c2.42-.06,4.61-1.48,7-1.36a16.72,16.72,0,0,1,3.93,1c5.17,1.55,11.46,0,14.77-3.59A53.92,53.92,0,0,0,232,324.92a5.88,5.88,0,0,0,3,.05,5.52,5.52,0,0,0,2.27-2c3.49-4.2,11-6.4,17.2-6.59s12.24,1.42,17.86,3.54c4,1.52,7.94,3.33,12.25,4.15s9.24.5,12.59-1.88c2.06,4,9.8,2.77,13-.69,4.2,4.77,12.42,5.28,19.57,5.67a245.32,245.32,0,0,1,34.07,4.25c4.22.83,8.41,1.77,12.69,2.29,8.24,1,14.84-.67,23.13-.13,10.78.71,21.6,3,32.41,2.88,5.63-.07,12.55.74,18-.58,8.1-2,15.19-6.42,23.51-7.63,8-1.17,16.26.78,24.3-.15,10.06-1.17,19.41-6.79,29.46-5.55,3.6.45,7,1.77,10.67,1.85s7.83-1.76,8-4.75c18.06,6,39,.49,57.9,4.44,4.78,1,11.28,2,13.42-1.64,2.91,1.58,5.51.21,9-.23,6.53-.82,13.18-1.68,19-4.17,4.44-1.88,10.31-4.68,14-1.86,10.21-2.36,22.85-4.71,33.07-7.06a18.63,18.63,0,0,0,3.38-1c1.24-.56,2.29-1.38,3.53-1.94,2.22-1,4.9-1.08,7.16-2s4-2.64,5.87-4.06c6.75-5,16.38-6.22,25.45-6.78s16.1-.74,24.1-4.28c3.69-1.62,7.83-4,11.64-2.59a20.37,20.37,0,0,1,3.16,1.78c4.11,2.38,9.49,2.47,14.52,2.61,11.85.32,24,1.44,34.58,5.81,4.77,2,10.25,4.73,14.64,2.24,9.56-5.43,20.73-1.69,31.36-5.55a23.6,23.6,0,0,1,4.8-1.55,15.8,15.8,0,0,1,5.3.46A194.79,194.79,0,0,1,904,298.2a24.55,24.55,0,0,0,7.85,1.72c4.54,0,9.28-2.61,13.31-.89a14,14,0,0,1,3.56,2.64c5,4.35,15.29,7,22.17,5a51.51,51.51,0,0,1,5.46-1.7c2.63-.45,5.34.1,8,.52a72.84,72.84,0,0,0,24.25.19c2.86-.42,5.78-1,8.62-.52,4.56.73,8.21,4,12.84,4.26,6.25.4,12.62-4.64,18.12-2.18,1.5.66,2.86,1.87,4.54,1.69,1.31-.14,2.23-1.07,3.32-1.68,4.93-2.74,13.76-.53,19.71-.73,3.24-.11,7.57-1.14,8.93,1.28.5.9.28,2,.74,2.89.79,1.58,3.24,2.1,5.31,2s4.13-.71,6.18-.43c3.31.46,6.2,3.08,9.45,2.37a8.69,8.69,0,0,0,2.87-1.39c6.37-4.16,14.4-8.31,20.78-12.47v-82H110Z" transform="translate(-110 81.23)"/><path class="cls-10" d="M110,320.55a359.31,359.31,0,0,1,46.41,1.59,22,22,0,0,1,8.53-2,71.42,71.42,0,0,1,26.59,3,13.24,13.24,0,0,0,4.34.9c2.43-.06,4.62-1.48,7-1.36a16.85,16.85,0,0,1,3.93,1c5.16,1.55,11.45,0,14.77-3.59a53.74,53.74,0,0,0,11.61,3.81,5.88,5.88,0,0,0,3,.05,5.65,5.65,0,0,0,2.27-2c3.48-4.2,9.8-6.4,16-6.59s12.24,1.42,17.86,3.54c4,1.52,7.94,3.33,12.25,4.15s9.24.5,12.59-1.88c2.06,4,9.8,4.77,13,1.31,4.2,4.77,12.42,5.28,19.57,5.67a245.32,245.32,0,0,1,34.07,4.25c4.22.83,8.41,1.77,12.69,2.29,8.24,1,14.84-.67,23.13-.13q16.17,1.07,32.41.88c5.63-.07,11.34-.26,16.74-1.58,8.1-2,15.2-6.42,23.51-7.63,8-1.17,16.27.78,24.31-.15,10.06-1.17,19.4-6.79,29.45-5.55,3.61.45,7,1.77,10.67,1.85s7.83-1.76,8-4.75c18.06,6,39,.49,57.91,4.44,4.78,1,11.28,2,13.41-1.64,2.91,1.58,6.73,1.21,10.18.77,6.53-.82,13.18-1.68,19-4.17,4.44-1.88,10.31-4.68,14-1.86l30.63-7.06a19,19,0,0,0,3.39-1c1.24-.56,2.29-1.38,3.53-1.94,2.22-1,4.89-1.08,7.16-2s4-2.64,5.87-4.06c6.75-5,16.38-6.22,25.45-6.78s18.53-.74,26.53-4.28c3.69-1.62,7.83-4,11.64-2.59a20.37,20.37,0,0,1,3.16,1.78c4.11,2.38,9.49,2.47,14.52,2.61,11.85.32,24,1.44,34.58,5.81,4.77,2,10.25,4.73,14.64,2.24,9.56-5.43,23.17-1.69,33.79-5.55a23.49,23.49,0,0,1,4.81-1.55,15.77,15.77,0,0,1,5.29.46,194.79,194.79,0,0,1,22.26,5.93,24.61,24.61,0,0,0,7.85,1.72c4.54,0,9.28-2.61,13.31-.89a14,14,0,0,1,3.56,2.64c5,4.35,12.86,7,19.74,5a51.51,51.51,0,0,1,5.46-1.7c2.63-.45,5.34.1,8,.52a88.07,88.07,0,0,0,26.68.19c2.86-.42,5.78-1,8.63-.52,4.55.73,8.2,4,12.83,4.26,6.25.4,12.62-4.64,18.13-2.18,1.49.66,2.85,1.87,4.53,1.69,1.31-.14,2.24-1.07,3.33-1.68,4.92-2.74,11.32,1.47,17.27,1.27,3.24-.11,7.57-1.14,8.93,1.28.5.9.28,2,.74,2.89.79,1.58,3.24,2.1,5.31,2s4.13-.71,6.18-.43c3.31.46,6.2,3.08,9.45,2.37a8.69,8.69,0,0,0,2.87-1.39c6.37-4.16,14.4-8.31,20.78-12.47v-83H110Z" transform="translate(-110 81.23)"/><path class="cls-7" d="M1110,301.74c-6.38,4.16-14.41,8.31-20.78,12.47a8.69,8.69,0,0,1-2.87,1.39c-3.25.71-6.14-4.65-9.45-5.11-2.05-.28-4.11.29-6.18.43s-4.52-.38-5.31-2c-.46-.91-.24.75-.74-.15-1.36-2.42-5.69-1.39-8.93-1.28-6,.2-12.35-6.75-17.27-4-1.09.61-2,4.28-3.33,4.42-1.68.18-3-3.77-4.53-4.44-5.51-2.45-11.88,5.33-18.13,4.93-4.63-.29-8.28-6.27-12.83-7-2.85-.46-5.77.1-8.63.52-8.8,1.29-17.9,4-26.68,2.55-2.63-.42-5.34-1-8-.52a51.51,51.51,0,0,0-5.46,1.7c-6.88,2-14.74-3.4-19.74-7.75a14,14,0,0,0-3.56-2.64c-4-1.72-8.77,3.59-13.31,3.63a24.61,24.61,0,0,1-7.85-1.72,194.79,194.79,0,0,0-22.26-5.93,15.77,15.77,0,0,0-5.29-.46,23.49,23.49,0,0,0-4.81,1.55c-10.62,3.86-24.23-2.62-33.79,2.81a16.84,16.84,0,0,1-14.64.5c-10.6-4.37-22.73-5.49-34.58-5.81-5-.14-10.41-.23-14.52-2.61a20.37,20.37,0,0,0-3.16-1.78c-3.81-1.41-7.95-1.77-11.64-.15-8,3.54-12.45,4.33-21.52,4.88s-18.92,1.17-25.68,6.17c-1.9,1.41-5.78,3.08-8,5.29-1.63,1.6-4.76-.35-7,.65-1.24.56-3,.79-4.22,1.35-1.05.47-4.28-.1-5.44.17-10.21,2.35-15.26,4.08-25.47,6.43-3.64-2.81-14.75,2.17-19.19,4.05-5.87,2.49-12.52,3.35-19,4.17-3.45.43-7.27.81-10.18-.77-2.13,3.65-8.49,1.91-13.41,1.64-7.49-.4-10.26-4.22-13.57-3.15-13.68,4.42-15.85-3.5-23.41-.25-6.38,2.75-16.58,1.31-24.25-1.25-.14,3-4.32,4.83-8,4.75s-3.74-1.2-7.35-1.64c-10-1.24-19.39,4.38-29.45,5.55-8,.93-16.31-1-24.31.15-8.31,1.21-15.41,5.66-23.51,7.63-5.4,1.32-11.11,1.51-16.74,1.57q-16.21.19-32.41-.87c-8.29-.55-14.89,1.14-23.13.13-4.28-.52-8.47-1.46-12.69-2.29a245.32,245.32,0,0,0-34.07-4.25c-7.15-.39-15.37,1.84-19.57-2.93-3.17,3.46-10.91,2.68-13-1.31-3.35,2.38-8.28,2.71-12.59,1.88s-8.23-2.63-12.25-4.15c-5.62-2.12-11.69-6.46-17.86-6.28s-12.5,2.39-16,6.59c-.64.76-1.24,4.37-2.27,4.74a5.88,5.88,0,0,1-3-.05c-4.06-.84-8-4.87-11.61-6.55-3.32,3.61-9.61,5.14-14.77,3.59a16.85,16.85,0,0,0-3.93-1c-2.42-.12-4.61,1.3-7,1.36-1.5,0-5,.43-6.44,0-8.43-2.65-15.5-1.83-24.49-1.15-3,.23-8.25-.85-10.77.48-15.24-1.53-28.82-.54-44.17-.07a359.31,359.31,0,0,1,46.41,1.59,22,22,0,0,1,8.53-2,71.42,71.42,0,0,1,26.59,3,13.24,13.24,0,0,0,4.34.9c2.43-.06,4.62-1.48,7-1.36a16.85,16.85,0,0,1,3.93,1c5.16,1.55,11.45,0,14.77-3.59a53.74,53.74,0,0,0,11.61,3.81,5.88,5.88,0,0,0,3,.05,5.65,5.65,0,0,0,2.27-2c3.48-4.2,9.8-6.4,16-6.59s12.24,1.42,17.86,3.54c4,1.52,7.94,3.33,12.25,4.15s9.24.5,12.59-1.88c2.06,4,9.8,4.77,13,1.31,4.2,4.77,12.42,5.28,19.57,5.67a245.32,245.32,0,0,1,34.07,4.25c4.22.83,8.41,1.77,12.69,2.29,8.24,1,14.84-.67,23.13-.13q16.17,1.07,32.41.88c5.63-.07,11.34-.26,16.74-1.58,8.1-2,15.2-6.42,23.51-7.63,8-1.17,16.27.78,24.31-.15,10.06-1.17,19.4-6.79,29.45-5.55,3.61.45,7,1.77,10.67,1.85s7.83-1.76,8-4.75c18.06,6,39,.49,57.91,4.44,4.78,1,11.28,2,13.41-1.64,2.91,1.58,6.73,1.21,10.18.77,6.53-.82,13.18-1.68,19-4.17,4.44-1.88,10.31-4.68,14-1.86l30.63-7.06a19,19,0,0,0,3.39-1c1.24-.56,2.29-1.38,3.53-1.94,2.22-1,4.89-1.08,7.16-2s4-2.64,5.87-4.06c6.75-5,16.38-6.22,25.45-6.78s18.53-.74,26.53-4.28c3.69-1.62,7.83-4,11.64-2.59a20.37,20.37,0,0,1,3.16,1.78c4.11,2.38,9.49,2.47,14.52,2.61,11.85.32,24,1.44,34.58,5.81,4.77,2,10.25,4.73,14.64,2.24,9.56-5.43,23.17-1.69,33.79-5.55a23.49,23.49,0,0,1,4.81-1.55,15.77,15.77,0,0,1,5.29.46,194.79,194.79,0,0,1,22.26,5.93,24.61,24.61,0,0,0,7.85,1.72c4.54,0,9.28-2.61,13.31-.89a14,14,0,0,1,3.56,2.64c5,4.35,12.86,7,19.74,5a51.51,51.51,0,0,1,5.46-1.7c2.63-.45,5.34.1,8,.52a88.07,88.07,0,0,0,26.68.19c2.86-.42,5.78-1,8.63-.52,4.55.73,8.2,4,12.83,4.26,6.25.4,12.62-4.64,18.13-2.18,1.49.66,2.85,1.87,4.53,1.69,1.31-.14,2.24-1.07,3.33-1.68,4.92-2.74,11.32,1.47,17.27,1.27,3.24-.11,7.57-1.14,8.93,1.28.5.9.28,2,.74,2.89.79,1.58,3.24,2.1,5.31,2s4.13-.71,6.18-.43c3.31.46,6.2,3.08,9.45,2.37a8.69,8.69,0,0,0,2.87-1.39C1095.59,310.05,1103.62,305.9,1110,301.74Z" transform="translate(-110 81.23)"/><rect class="cls-11" width="1000" height="100"/></g></g></svg>