<svg id="Layer_1" data-name="Layer 1" xmlns="http://www.w3.org/2000/svg" viewBox="0 0 1000 346.61"><defs><style>.cls-1{fill:#fbb040;opacity:0.5;}.cls-2,.cls-3,.cls-4,.cls-5{fill:#9e1f63;}.cls-2{opacity:0.2;}.cls-3{opacity:0.4;}.cls-4{opacity:0.6;}</style></defs><title>WoCode_ShapeDivider_FanOpacity</title><path class="cls-1" d="M110,538" transform="translate(-110 -218.74)"/><polygon class="cls-2" points="1000 136.28 500 46.28 0 136.28 0 36.28 1000 36.28 1000 136.28"/><polygon class="cls-3" points="1000 104.43 500 44.43 0 104.43 0 36.28 1000 36.28 1000 104.43"/><polygon class="cls-4" points="1000 72.57 500 42.57 0 72.57 0 36.28 1000 36.28 1000 72.57"/><rect class="cls-5" width="1000" height="36.29"/><polygon class="cls-2" points="0 210.33 500 300.33 1000 210.33 1000 310.33 0 310.33 0 210.33"/><polygon class="cls-3" points="0 242.19 500 302.19 1000 242.19 1000 310.33 0 310.33 0 242.19"/><polygon class="cls-4" points="0 274.04 500 304.04 1000 274.04 1000 310.33 0 310.33 0 274.04"/><rect class="cls-5" x="110" y="529.07" width="1000" height="36.29" transform="translate(1110 875.68) rotate(180)"/></svg>