<svg id="Layer_1" data-name="Layer 1" xmlns="http://www.w3.org/2000/svg" viewBox="0 0 1000 346.61"><defs><style>.cls-1{fill:#fbb040;}.cls-1,.cls-2{opacity:0.5;}.cls-2{fill:#f15a29;}</style></defs><title>WoCode_ShapeDivider_Sunrise</title><path class="cls-1" d="M110,538" transform="translate(-110 -218.74)"/><path class="cls-2" d="M110,219.23V231S287,347,610,347s500-115,500-115V219.23Z" transform="translate(-110 -218.74)"/><path class="cls-2" d="M110,218.74V231s177,90,500,90,500-89,500-89V218.74Z" transform="translate(-110 -218.74)"/><path class="cls-2" d="M110,218.74V231s177,62.67,500,62.67S1110,232,1110,232V218.74Z" transform="translate(-110 -218.74)"/><path class="cls-2" d="M1110,564.87V553.09s-177-116-500-116-500,115-500,115v12.78Z" transform="translate(-110 -218.74)"/><path class="cls-2" d="M1110,565.35V553.09s-177-90-500-90-500,89-500,89v13.26Z" transform="translate(-110 -218.74)"/><path class="cls-2" d="M1110,565.35V553.09s-177-62.66-500-62.66-500,61.66-500,61.66v13.26Z" transform="translate(-110 -218.74)"/></svg>