<svg id="Layer_1" data-name="Layer 1" xmlns="http://www.w3.org/2000/svg" viewBox="0 0 1000 346.61"><defs><style>.cls-1{fill:#e6e7e8;}</style></defs><title>WoCode_ShapeDivider_CloudyDay</title><path class="cls-1" d="M110,324.38s32.75,1.33,50.75-24c0,0,18.67,8,27.67-8,0,0,1.33,4.33,9.66,1.33,0,0,2,21.64,20,8.34,0,0,10,35,43,8.66,0,0,5,4.34,10-1.33,0,0,22.67,23,39-8.33,0,0,11.34,10,21.67,1.33,0,0,11.33,22,46.33,22s39.34-15,39.34-15,8,37,44.66,15c0,0,5.34,4.66,11.34,3,0,0,11,16.33,30,16.33s38.33-11,38.33-37.33c0,0,17,8.67,27.33-9,0,0,9.34,11.3,32,1.33,0,0,1.67,9,11.34,8.34,0,0-5.34,28.66,24,25.33,0,0,23.66,18.33,26-15.67,0,0,4.66,0,9.33-5.66,0,0,2.33,16.66,26,16.66s29.33-24.66,22.33-35c0,0,14.67,7.39,18-4,0,0,13.67,19,33.67,10.31,16.54-7.17,9.33-27,9.33-27s22.34,18.33,44-16.67c0,0,9.67,28.67,46.67,28.67,27.67,0,37.67-18.67,37.67-18.67s27,29.67,42.33-11c0,0,3.67,9,13.33.67,0,0-2.66,12.33,6,10.66,0,0-8,14.34-8,29s26,33.34,52,17c0,0,33.17,41.34,94.92,13v-106H110Z" transform="translate(-110 -218.74)"/><path class="cls-1" d="M1110,459.72s-32.75-1.34-50.75,24c0,0-18.67-8-27.67,8,0,0-1.33-4.34-9.66-1.34,0,0-2-21.64-20-8.33,0,0-10-35-43-8.67,0,0-5-4.33-10,1.34,0,0-22.67-23-39,8.33,0,0-11.34-10-21.67-1.33,0,0-11.33-22-46.33-22s-39.34,15-39.34,15-8-37-44.66-15c0,0-5.34-4.65-11.34-3,0,0-11-16.34-30-16.34s-38.33,11-38.33,37.34c0,0-17-8.67-27.33,9,0,0-9.34-11.31-32-1.34,0,0-1.67-9-11.34-8.33,0,0,5.34-28.67-24-25.33,0,0-23.66-18.34-26,15.66,0,0-4.66,0-9.33,5.67,0,0-2.33-16.67-26-16.67s-29.33,24.67-22.33,35c0,0-14.67-7.39-18,4,0,0-13.67-19-33.67-10.3-16.54,7.17-9.33,27-9.33,27s-22.34-18.33-44,16.67c0,0-9.67-28.67-46.67-28.67-27.67,0-37.67,18.67-37.67,18.67s-27-29.67-42.33,11c0,0-3.67-9-13.33-.67,0,0,2.66-12.33-6-10.67,0,0,8-14.33,8-29s-26-33.33-52-17c0,0-33.17-41.33-94.92-13v106H1110Z" transform="translate(-110 -218.74)"/></svg>