<svg xmlns="http://www.w3.org/2000/svg" viewBox="0 0 1000 346.61"><defs><style>.cls-1{isolation:isolate;}.cls-2,.cls-3{fill:#81d3f1;}.cls-3{mix-blend-mode:multiply;}</style></defs><title>WoCode_ShapeDivider_SkyWater</title><g class="cls-1"><g id="Layer_1" data-name="Layer 1"><path class="cls-2" d="M1110,507.1c-82,0-88.74-20.25-142-20.25-46.68,0-33.13,20.1-85.13,20.1-57.5,0-75.88-35.1-143.88-35.1-56,0-99,37.5-149.5,37.5-76.5,0-77.33-30.31-131.5-44.5-56-14.66-72.83,45.42-142.83,45.42-41.38,0-74.36-28.83-103.69-28.83-44.15,0-101.48,32.41-101.48,32.41v51.5H1110Z" transform="translate(-110 -218.74)"/><path class="cls-3" d="M1110,487.52c-97.33,14-115.33-18.67-176.67-18.67-53.33,0-60.14,49.34-122.64,49.34-84,0-116.35-86.07-200-69.34-80,16-86,60-153.34,60-49.66,0-86.65-31.33-124-31.33-33.33,0-51.27,29.58-78,29.58-43.93,0-51.28-29.51-97.9-27.37C133,480.85,110,494.85,110,494.85v70.5H1110Z" transform="translate(-110 -218.74)"/><path class="cls-2" d="M110,277c82,0,88.74,20.25,142,20.25,46.68,0,33.13-20.1,85.13-20.1,57.5,0,75.88,35.1,143.88,35.1,56,0,99-37.5,149.5-37.5,76.5,0,77.33,30.31,131.5,44.5,56,14.67,72.83-45.41,142.83-45.41,41.38,0,74.36,28.82,103.69,28.82,44.15,0,101.48-32.41,101.48-32.41v-51.5H110Z" transform="translate(-110 -218.74)"/><path class="cls-3" d="M110,296.57c97.33-14,115.33,18.67,176.67,18.67,53.33,0,60.14-49.33,122.64-49.33,84,0,116.35,86.07,200,69.33,80-16,86-60,153.34-60,49.66,0,86.65,31.33,124,31.33,33.33,0,51.27-29.58,78-29.58,43.93,0,51.28,29.51,97.9,27.37,24.43-1.12,47.43-15.12,47.43-15.12v-70.5H110Z" transform="translate(-110 -218.74)"/></g></g></svg>