<svg id="Layer_1" data-name="Layer 1" xmlns="http://www.w3.org/2000/svg" viewBox="0 0 1000 346.61"><defs><style>.cls-1{fill:#8dc63f;}</style></defs><title>WoCode_ShapeDivider_Blob</title><path class="cls-1" d="M1107.17,565.35c-6.51-56.45-31.64-90.6-55.83-90.6-45,0-52.81,45.1-77,45.1-46,0-58.22-41.49-88.63-42.7-52-2.08-98.42,66.83-150,56.91-26.11-5-48.66-29.62-72.73-46.15-38.47-26.41-85.74-31-120.94,4.75-9.28,9.43-17.62,21.49-27.93,27.84-39.48,24.32-82.38-44.86-123.36-27.53-21.4,9-39.74,41.09-61.49,34.29-9.2-2.87-25.66-21.34-34.09-27.72C261.68,474.23,219,470.08,185.34,481s-62.57,28.68-78.17,84.38Z" transform="translate(-107.17 -218.74)"/><path class="cls-1" d="M107.17,218.74c6.51,56.45,31.64,90.6,55.83,90.6,45,0,52.81-45.1,77-45.1,46,0,58.22,41.49,88.64,42.71,52,2.07,98.42-66.83,150-56.92,26.12,5,48.66,29.62,72.73,46.15,38.47,26.42,85.75,31,120.94-4.75,9.28-9.43,17.62-21.49,27.93-27.84,39.48-24.31,82.38,44.86,123.36,27.53,21.4-9.05,39.75-41.09,61.49-34.29,9.2,2.88,25.66,21.34,34.1,27.72C952.67,309.86,995.33,314,1029,303.12s62.57-28.68,78.17-84.38Z" transform="translate(-107.17 -218.74)"/></svg>