<svg id="Layer_1" data-name="Layer 1" xmlns="http://www.w3.org/2000/svg" xmlns:xlink="http://www.w3.org/1999/xlink" viewBox="0 0 1000 346.61"><defs><style>.cls-1,.cls-2,.cls-4{opacity:0.5;}.cls-1{fill:url(#linear-gradient);}.cls-2{fill:#fbb040;}.cls-3{fill:url(#linear-gradient-2);}.cls-4{fill:url(#linear-gradient-3);}.cls-5{fill:url(#linear-gradient-4);}</style><linearGradient id="linear-gradient" x1="110" y1="294.3" x2="1110" y2="294.3" gradientTransform="matrix(-1, 0, 0, 1, 1110, -218.74)" gradientUnits="userSpaceOnUse"><stop offset="0" stop-color="#da1c5c"/><stop offset="0.08" stop-color="#cd1e62"/><stop offset="0.22" stop-color="#ac2371"/><stop offset="0.41" stop-color="#762b8a"/><stop offset="0.46" stop-color="#662d91"/><stop offset="0.68" stop-color="#522877"/><stop offset="0.87" stop-color="#442564"/></linearGradient><linearGradient id="linear-gradient-2" x1="0" y1="64.3" x2="1000" y2="64.3" gradientTransform="matrix(1, 0, 0, 1, 0, 0)" xlink:href="#linear-gradient"/><linearGradient id="linear-gradient-3" x1="110" y1="694.8" x2="1110" y2="694.8" gradientTransform="matrix(1, 0, 0, -1, -110, 965.86)" xlink:href="#linear-gradient"/><linearGradient id="linear-gradient-4" x1="110" y1="683.54" x2="1110" y2="683.54" gradientTransform="translate(1110 965.86) rotate(180)" xlink:href="#linear-gradient"/></defs><title>WoCode_ShapeDivider_GeoRange</title><polygon class="cls-1" points="0 70.26 79.17 85.66 148.84 67.69 201.44 91.64 300.76 59.1 347.67 67.8 428.61 151.12 606.58 75.2 772.95 131.24 874.63 82.89 916.9 123.14 1000 68.26 1000 0 0 0 0 70.26"/><path class="cls-2" d="M110,538" transform="translate(-110 -218.74)"/><polygon class="cls-3" points="1000 51.8 916.75 105.76 859 48.33 757 95.59 627 53.59 450 128.59 387.99 65.1 283 46.59 186 76.59 134 52.59 59 72.59 0 62.59 0 0 1000 0 1000 51.8"/><polygon class="cls-4" points="1000 276.35 920.83 260.96 851.16 278.93 798.56 254.97 699.24 287.51 652.33 278.81 571.39 195.5 393.42 271.41 227.05 215.37 125.37 263.73 83.1 223.47 0 278.35 0 346.61 1000 346.61 1000 276.35"/><polygon class="cls-5" points="0 294.82 83.25 240.86 141 298.28 243 251.02 373 293.02 550 218.02 612.01 281.51 717 300.02 814 270.02 866 294.02 941 274.02 1000 284.02 1000 346.61 0 346.61 0 294.82"/></svg>