<svg id="Layer_1" data-name="Layer 1" xmlns="http://www.w3.org/2000/svg" xmlns:xlink="http://www.w3.org/1999/xlink" viewBox="0 0 1000 1217.35"><defs><style>.cls-1{fill:url(#linear-gradient);}.cls-2{fill:url(#linear-gradient-2);}.cls-3{fill:url(#linear-gradient-3);}.cls-4{fill:url(#linear-gradient-4);}.cls-5{fill:url(#linear-gradient-5);}.cls-6{fill:url(#linear-gradient-6);}.cls-7{fill:url(#linear-gradient-7);}.cls-8{fill:url(#linear-gradient-8);}.cls-9{fill:url(#linear-gradient-9);}.cls-10{fill:url(#linear-gradient-10);}.cls-11{fill:url(#linear-gradient-11);}.cls-12{fill:url(#linear-gradient-12);}</style><linearGradient id="linear-gradient" y1="245.47" x2="724.21" y2="245.47" gradientUnits="userSpaceOnUse"><stop offset="0" stop-color="#ef4136" stop-opacity="0.5"/><stop offset="0.07" stop-color="#ef4136" stop-opacity="0.57"/><stop offset="0.26" stop-color="#ef4136" stop-opacity="0.72"/><stop offset="0.45" stop-color="#ef4136" stop-opacity="0.84"/><stop offset="0.64" stop-color="#ef4136" stop-opacity="0.93"/><stop offset="0.82" stop-color="#ef4136" stop-opacity="0.98"/><stop offset="1" stop-color="#ef4136"/></linearGradient><linearGradient id="linear-gradient-2" x1="1000" y1="286.44" x2="0" y2="286.44" gradientUnits="userSpaceOnUse"><stop offset="0" stop-color="#ef4136" stop-opacity="0.5"/><stop offset="0.08" stop-color="#ef4136" stop-opacity="0.59"/><stop offset="0.23" stop-color="#ef4136" stop-opacity="0.83"/><stop offset="0.34" stop-color="#ef4136"/><stop offset="0.42" stop-color="#ea3e35"/><stop offset="0.52" stop-color="#dc3433"/><stop offset="0.62" stop-color="#c5232e"/><stop offset="0.65" stop-color="#be1e2d"/><stop offset="0.95" stop-color="#860b17"/></linearGradient><linearGradient id="linear-gradient-3" x1="-165.79" y1="961.51" x2="291.53" y2="961.51" gradientTransform="matrix(-1, 0, 0, 1, 834.21, -218.74)" gradientUnits="userSpaceOnUse"><stop offset="0" stop-color="#ef4136" stop-opacity="0.5"/><stop offset="0.22" stop-color="#ef4136" stop-opacity="0.71"/><stop offset="0.42" stop-color="#ef4136" stop-opacity="0.87"/><stop offset="0.58" stop-color="#ef4136" stop-opacity="0.96"/><stop offset="0.68" stop-color="#ef4136"/></linearGradient><linearGradient id="linear-gradient-4" x1="1000" y1="84.78" x2="0" y2="84.78" gradientUnits="userSpaceOnUse"><stop offset="0.08" stop-color="#ef4136" stop-opacity="0.5"/><stop offset="0.21" stop-color="#ef4136" stop-opacity="0.71"/><stop offset="0.33" stop-color="#ef4136" stop-opacity="0.87"/><stop offset="0.42" stop-color="#ef4136" stop-opacity="0.96"/><stop offset="0.48" stop-color="#ef4136"/><stop offset="0.56" stop-color="#e23b32"/><stop offset="0.72" stop-color="#c12a29"/><stop offset="0.93" stop-color="#8b0e1a"/></linearGradient><linearGradient id="linear-gradient-5" x1="1000" y1="1091.26" x2="0" y2="1091.26" gradientUnits="userSpaceOnUse"><stop offset="0" stop-color="#ef4136" stop-opacity="0.8"/><stop offset="0.07" stop-color="#ef4136" stop-opacity="0.87"/><stop offset="0.18" stop-color="#ef4136" stop-opacity="0.96"/><stop offset="0.25" stop-color="#ef4136"/><stop offset="0.28" stop-color="#e83c35"/><stop offset="0.43" stop-color="#ca262f"/><stop offset="0.52" stop-color="#be1e2d"/><stop offset="0.92" stop-color="#860b17"/></linearGradient><linearGradient id="linear-gradient-6" x1="0" y1="926.4" x2="724.21" y2="926.4" xlink:href="#linear-gradient"/><linearGradient id="linear-gradient-7" x1="-165.79" y1="1399.49" x2="291.53" y2="1399.49" xlink:href="#linear-gradient-3"/><linearGradient id="linear-gradient-8" x1="1000" y1="1008.13" x2="0" y2="1008.13" xlink:href="#linear-gradient-2"/><linearGradient id="linear-gradient-9" x1="1000" y1="1165.65" x2="0" y2="1165.65" xlink:href="#linear-gradient-4"/><linearGradient id="linear-gradient-10" x1="1000" y1="323.66" x2="439.86" y2="323.66" gradientUnits="userSpaceOnUse"><stop offset="0" stop-color="#ef4136" stop-opacity="0.8"/><stop offset="0.07" stop-color="#ef4136" stop-opacity="0.87"/><stop offset="0.18" stop-color="#ef4136" stop-opacity="0.96"/><stop offset="0.25" stop-color="#ef4136"/><stop offset="0.33" stop-color="#e83c35"/><stop offset="0.76" stop-color="#ca262f"/><stop offset="1" stop-color="#be1e2d"/></linearGradient><linearGradient id="linear-gradient-11" x1="1000" y1="36.42" x2="0" y2="36.42" xlink:href="#linear-gradient-5"/><linearGradient id="linear-gradient-12" x1="678.65" y1="21.97" x2="0" y2="21.97" xlink:href="#linear-gradient-2"/></defs><title>WoCode_ShapeDivider_CandyAngle</title><polygon class="cls-1" points="0 206.59 0 284.36 724.21 241.72 0 206.59"/><polygon class="cls-2" points="0 284.36 0 347.41 439.86 347.41 1000 299.91 1000 225.48 0 284.36"/><polygon class="cls-3" points="1000 712.56 1000 772.98 542.68 743.11 1000 712.56"/><polygon class="cls-4" points="0 43.94 0 125.63 1000 72.85 0 43.94"/><polygon class="cls-5" points="1000 1031.98 1000 1150.54 0 1113.94 1000 1031.98"/><polygon class="cls-6" points="0 879.55 0 973.25 724.21 921.88 0 879.55"/><polygon class="cls-7" points="1000 1150.54 1000 1210.96 542.68 1181.09 1000 1150.54"/><polygon class="cls-8" points="0 973.25 0 1113.94 1000 1031.98 1000 902.32 0 973.25"/><polygon class="cls-9" points="0 1113.94 0 1217.35 1000 1150.54 0 1113.94"/><polygon class="cls-10" points="1000 347.41 1000 299.91 439.86 347.41 1000 347.41"/><polygon class="cls-11" points="1000 0 1000 72.85 0 43.94 678.65 0 1000 0"/><polygon class="cls-12" points="0 0 0 43.94 678.65 0 0 0"/></svg>