<?xml version="1.0" encoding="UTF-8" standalone="no"?>
<!-- Created with Inkscape (http://www.inkscape.org/) -->

<svg
   xmlns:dc="http://purl.org/dc/elements/1.1/"
   xmlns:cc="http://creativecommons.org/ns#"
   xmlns:rdf="http://www.w3.org/1999/02/22-rdf-syntax-ns#"
   xmlns:svg="http://www.w3.org/2000/svg"
   xmlns="http://www.w3.org/2000/svg"
   xmlns:xlink="http://www.w3.org/1999/xlink"
   xmlns:sodipodi="http://sodipodi.sourceforge.net/DTD/sodipodi-0.dtd"
   xmlns:inkscape="http://www.inkscape.org/namespaces/inkscape"
   width="158.75mm"
   height="158.74995mm"
   viewBox="0 0 158.75 158.74995"
   version="1.1"
   id="svg6413"
   inkscape:version="0.92.1 r15371"
   sodipodi:docname="Instagram.svg"
   inkscape:export-filename="E:\Logos By Nick Website\Blog\Posts\Flat Social Icons\FlatSocialMediaIcons\Twitter\Twitter.png"
   inkscape:export-xdpi="96"
   inkscape:export-ydpi="96">
  <defs
     id="defs6407">
    <linearGradient
       inkscape:collect="always"
       xlink:href="#linearGradient4497"
       id="linearGradient5897"
       gradientUnits="userSpaceOnUse"
       gradientTransform="matrix(5.9999985,0,0,5.9999985,1906.4988,-479.87294)"
       x1="-294.99939"
       y1="101.43983"
       x2="-317.78662"
       y2="78.652596" />
    <linearGradient
       inkscape:collect="always"
       id="linearGradient4497">
      <stop
         style="stop-color:#ff0066;stop-opacity:1;"
         offset="0"
         id="stop4493" />
      <stop
         style="stop-color:#ffcc00;stop-opacity:1"
         offset="1"
         id="stop4495" />
    </linearGradient>
    <linearGradient
       inkscape:collect="always"
       xlink:href="#linearGradient4514"
       id="linearGradient5899"
       gradientUnits="userSpaceOnUse"
       gradientTransform="matrix(1.5874996,0,0,1.5874996,1906.4988,-479.87294)"
       x1="-1175.75"
       y1="312.56934"
       x2="-1113.048"
       y2="375.27133" />
    <linearGradient
       inkscape:collect="always"
       id="linearGradient4514">
      <stop
         style="stop-color:#1a1a1a;stop-opacity:1;"
         offset="0"
         id="stop4510" />
      <stop
         style="stop-color:#1a1a1a;stop-opacity:0;"
         offset="1"
         id="stop4512" />
    </linearGradient>
  </defs>
  <sodipodi:namedview
     id="base"
     pagecolor="#ffffff"
     bordercolor="#666666"
     borderopacity="1.0"
     inkscape:pageopacity="0.0"
     inkscape:pageshadow="2"
     inkscape:zoom="1"
     inkscape:cx="434.6192"
     inkscape:cy="303.19039"
     inkscape:document-units="px"
     inkscape:current-layer="layer1"
     showgrid="false"
     fit-margin-top="0"
     fit-margin-left="0"
     fit-margin-right="0"
     fit-margin-bottom="0"
     inkscape:showpageshadow="false"
     borderlayer="true"
     inkscape:window-width="3840"
     inkscape:window-height="2050"
     inkscape:window-x="3348"
     inkscape:window-y="-12"
     inkscape:window-maximized="1" />
  <metadata
     id="metadata6410">
    <rdf:RDF>
      <cc:Work
         rdf:about="">
        <dc:format>image/svg+xml</dc:format>
        <dc:type
           rdf:resource="http://purl.org/dc/dcmitype/StillImage" />
        <dc:title></dc:title>
      </cc:Work>
    </rdf:RDF>
  </metadata>
  <g
     inkscape:label="Layer 1"
     inkscape:groupmode="layer"
     id="layer1"
     transform="translate(11.729902,10.735595)">
    <path
       style="opacity:1;vector-effect:none;fill:url(#linearGradient5897);fill-opacity:1;stroke:none;stroke-width:2.64583302;stroke-linecap:round;stroke-linejoin:round;stroke-miterlimit:4;stroke-dasharray:none;stroke-dashoffset:0;stroke-opacity:1;marker:none;paint-order:markers fill stroke"
       d="m 147.02012,68.639387 a 79.374982,79.374982 0 0 1 -79.374998,79.374973 79.374982,79.374982 0 0 1 -79.375,-79.374973 79.374982,79.374982 0 0 1 79.375,-79.374982 79.374982,79.374982 0 0 1 79.374998,79.374982 z"
       id="path5831"
       inkscape:connector-curvature="0" />
    <path
       style="opacity:0.70800003;fill:url(#linearGradient5899);fill-opacity:1;stroke:none;stroke-width:0.26458332px;stroke-linecap:butt;stroke-linejoin:miter;stroke-opacity:1"
       d="m 78.54256,32.672384 c 0,0 -17.263856,1.091406 -18.256256,1.141014 -0.99198,0.0498 -11.360457,0.0498 -11.658117,0.09924 -0.2976,0.0498 -8.582458,2.728517 -8.582458,2.728517 l -5.258459,6.994918 -2.927039,9.177736 -1.389059,20.488663 3.968759,19.694917 3.323879,5.55625 -1.20618,3.568781 44.710369,44.71042 A 79.374982,79.374982 0 0 0 145.78508,82.120544 L 100.32435,36.659761 91.689156,34.755997 Z"
       id="path5833"
       inkscape:connector-curvature="0" />
    <path
       inkscape:connector-curvature="0"
       id="path5835"
       d="m 51.221086,29.733639 c -12.451197,0 -22.576674,10.131141 -22.576674,22.582368 v 32.65246 c 0,12.451227 10.125477,22.576683 22.576674,22.576683 h 32.848012 c 12.451257,0 22.576732,-10.125456 22.576732,-22.576683 v -32.65246 c 0,-12.451227 -10.125475,-22.582368 -22.576732,-22.582368 z m 0,6.689272 h 32.848012 c 8.861758,0 15.893156,7.031452 15.893156,15.893096 v 32.65246 c 0,8.861686 -7.031398,15.887513 -15.893156,15.887513 H 51.221086 c -8.861637,0 -15.887516,-7.025827 -15.887516,-15.887513 v -32.65246 c 0,-8.861644 7.025879,-15.893096 15.887516,-15.893096 z m 37.357791,6.689182 c -2.583959,0 -4.677359,2.093454 -4.677359,4.677359 0,2.583995 2.0934,4.677461 4.677359,4.677461 2.583899,0 4.677479,-2.093466 4.677479,-4.677461 0,-2.583905 -2.09358,-4.677359 -4.677479,-4.677359 z m -20.933695,5.493239 c -11.025657,0 -20.034115,9.00853 -20.034115,20.034091 0,11.025603 9.008458,20.034091 20.034115,20.034091 11.025477,0 20.039575,-9.008488 20.039575,-20.034091 0,-11.025561 -9.014098,-20.034091 -20.039575,-20.034091 z m 0,6.689278 c 7.411018,0 13.350417,5.933753 13.350417,13.344813 0,7.411102 -5.939399,13.344855 -13.350417,13.344855 -7.411138,0 -13.344896,-5.933753 -13.344896,-13.344855 0,-7.41106 5.933758,-13.344813 13.344896,-13.344813 z"
       style="color:#000000;font-style:normal;font-variant:normal;font-weight:normal;font-stretch:normal;font-size:medium;line-height:normal;font-family:Sans;-inkscape-font-specification:Sans;text-indent:0;text-align:start;text-decoration:none;text-decoration-line:none;letter-spacing:normal;word-spacing:normal;text-transform:none;writing-mode:lr-tb;direction:ltr;baseline-shift:baseline;text-anchor:start;display:inline;overflow:visible;visibility:visible;fill:#ffffff;fill-opacity:1;stroke:none;stroke-width:9.89541721;marker:none;enable-background:accumulate" />
  </g>
</svg>
