<?xml version="1.0" encoding="UTF-8" standalone="no"?>
<!-- Created with Inkscape (http://www.inkscape.org/) -->

<svg
   xmlns:dc="http://purl.org/dc/elements/1.1/"
   xmlns:cc="http://creativecommons.org/ns#"
   xmlns:rdf="http://www.w3.org/1999/02/22-rdf-syntax-ns#"
   xmlns:svg="http://www.w3.org/2000/svg"
   xmlns="http://www.w3.org/2000/svg"
   xmlns:xlink="http://www.w3.org/1999/xlink"
   xmlns:sodipodi="http://sodipodi.sourceforge.net/DTD/sodipodi-0.dtd"
   xmlns:inkscape="http://www.inkscape.org/namespaces/inkscape"
   width="158.75mm"
   height="158.74995mm"
   viewBox="0 0 158.75 158.74995"
   version="1.1"
   id="svg6413"
   inkscape:version="0.92.1 r15371"
   sodipodi:docname="Twitter.svg"
   inkscape:export-filename="E:\Logos By Nick Website\Blog\Posts\Flat Social Icons\FlatSocialMediaIcons\Facebook\Facebook.png"
   inkscape:export-xdpi="96"
   inkscape:export-ydpi="96">
  <defs
     id="defs6407">
    <linearGradient
       inkscape:collect="always"
       xlink:href="#linearGradient4462"
       id="linearGradient5893"
       gradientUnits="userSpaceOnUse"
       gradientTransform="matrix(4,0,0,4,1338.7035,-270.57728)"
       x1="-332.05209"
       y1="72.104172"
       x2="-304.13855"
       y2="100.01771" />
    <linearGradient
       inkscape:collect="always"
       id="linearGradient4462">
      <stop
         style="stop-color:#00ccff;stop-opacity:1;"
         offset="0"
         id="stop4458" />
      <stop
         style="stop-color:#004ed1;stop-opacity:1"
         offset="1"
         id="stop4460" />
    </linearGradient>
    <linearGradient
       inkscape:collect="always"
       xlink:href="#linearGradient4483"
       id="linearGradient5895"
       gradientUnits="userSpaceOnUse"
       gradientTransform="matrix(1.0583333,0,0,1.0583333,1338.7035,-270.57728)"
       x1="-1217.8887"
       y1="290.59668"
       x2="-1137.2051"
       y2="371.28027" />
    <linearGradient
       inkscape:collect="always"
       id="linearGradient4483">
      <stop
         style="stop-color:#1a1a1a;stop-opacity:1;"
         offset="0"
         id="stop4479" />
      <stop
         style="stop-color:#1a1a1a;stop-opacity:0;"
         offset="1"
         id="stop4481" />
    </linearGradient>
  </defs>
  <sodipodi:namedview
     id="base"
     pagecolor="#ffffff"
     bordercolor="#666666"
     borderopacity="1.0"
     inkscape:pageopacity="0.0"
     inkscape:pageshadow="2"
     inkscape:zoom="1"
     inkscape:cx="468.6192"
     inkscape:cy="216.19039"
     inkscape:document-units="px"
     inkscape:current-layer="layer1"
     showgrid="false"
     fit-margin-top="0"
     fit-margin-left="0"
     fit-margin-right="0"
     fit-margin-bottom="0"
     inkscape:showpageshadow="false"
     borderlayer="true"
     inkscape:window-width="3840"
     inkscape:window-height="2050"
     inkscape:window-x="3348"
     inkscape:window-y="-12"
     inkscape:window-maximized="1" />
  <metadata
     id="metadata6410">
    <rdf:RDF>
      <cc:Work
         rdf:about="">
        <dc:format>image/svg+xml</dc:format>
        <dc:type
           rdf:resource="http://purl.org/dc/dcmitype/StillImage" />
        <dc:title></dc:title>
      </cc:Work>
    </rdf:RDF>
  </metadata>
  <g
     inkscape:label="Layer 1"
     inkscape:groupmode="layer"
     id="layer1"
     transform="translate(11.729902,10.735595)">
    <path
       inkscape:connector-curvature="0"
       id="path5823"
       d="M 147.02005,68.639387 A 79.374982,79.374982 0 0 1 67.645051,148.01436 79.374982,79.374982 0 0 1 -11.72995,68.639387 79.374982,79.374982 0 0 1 67.645051,-10.735595 79.374982,79.374982 0 0 1 147.02005,68.639387 Z"
       style="opacity:1;vector-effect:none;fill:url(#linearGradient5893);fill-opacity:1;stroke:none;stroke-width:2.64583302;stroke-linecap:round;stroke-linejoin:round;stroke-miterlimit:4;stroke-dasharray:none;stroke-dashoffset:0;stroke-opacity:1;marker:none;paint-order:markers fill stroke" />
    <path
       style="opacity:0.68000034;fill:url(#linearGradient5895);fill-opacity:1;stroke:none;stroke-width:0.26458332px;stroke-linecap:butt;stroke-linejoin:miter;stroke-opacity:1"
       d="M 100.77794,41.190762 86.033666,52.896513 70.68783,68.374637 63.808711,88.879842 49.785755,92.584007 32.573379,90.676121 87.360746,145.46346 A 79.374982,79.374982 0 0 0 145.14529,85.558087 Z"
       id="path5825"
       inkscape:connector-curvature="0" />
    <path
       d="m 102.71678,46.885486 c -2.57952,1.144728 -5.353437,1.918428 -8.263796,2.266956 2.970479,-1.781688 5.251258,-4.601567 6.325676,-7.961014 -2.780037,1.649681 -5.858756,2.846267 -9.138055,3.491249 -2.62362,-2.795969 -6.363659,-4.543667 -10.502458,-4.543667 -7.947718,0 -14.389376,6.442204 -14.389376,14.389406 0,1.128222 0.1266,2.226792 0.3726,3.2793 -11.959737,-0.59928 -22.562755,-6.329789 -29.660273,-15.034851 -1.23864,2.1243 -1.948199,4.595813 -1.948199,7.233425 0,4.993036 2.539379,9.396705 6.401638,11.978193 -2.358719,-0.07392 -4.577939,-0.721332 -6.518098,-1.799892 -0.0028,0.06078 -0.0028,0.12036 -0.0028,0.18078 0,6.973288 4.960798,12.787911 11.543097,14.110772 -1.20642,0.32898 -2.47734,0.5028 -3.789899,0.5028 -0.9282,0 -1.82808,-0.08784 -2.70828,-0.25632 1.8324,5.716649 7.145699,9.87754 13.443717,9.994006 -4.928879,3.860177 -11.132637,6.159472 -17.874956,6.159472 -1.160699,0 -2.307059,-0.0684 -3.433679,-0.20058 6.370859,4.082765 13.933677,6.464249 22.060975,6.464249 26.467673,0 40.93961,-21.926041 40.93961,-40.943192 0,-0.62361 -0.012,-1.24296 -0.042,-1.860066 2.810339,-2.030465 5.249696,-4.564186 7.180076,-7.45045"
       id="path5827"
       inkscape:connector-curvature="0"
       style="fill:#ffffff;stroke-width:0.26458332" />
  </g>
</svg>
